<svg width="156" height="59" viewBox="0 0 156 59" fill="none" xmlns="http://www.w3.org/2000/svg">
<path d="M2.69825 21.3174C2.69825 23.5227 2.65328 25.4063 2.56334 26.463C2.51837 27.6116 2.20357 27.7494 0 27.8413V29.4034C1.34913 29.4034 3.28287 29.2655 5.30656 29.2655C7.10539 29.2655 9.21902 29.4034 10.2084 29.4034L10.4332 27.8413C8.49949 27.7035 8.13972 27.5197 8.04978 26.6008C8.00481 25.4523 7.95984 24.1659 7.95984 22.2822V16.4016C7.95984 15.5286 8.09475 14.9773 8.40955 14.3341C9.264 12.7261 10.793 11.8073 12.2321 11.8073C13.4013 11.8073 14.1208 12.3127 14.4806 13.2315C14.7504 13.8288 14.7504 14.2882 14.7504 16.9529V21.0418C14.7504 23.6605 14.6605 25.0847 14.6155 26.463C14.5706 27.5197 14.1208 27.7035 12.412 27.8413V29.4034C13.4013 29.4034 14.9753 29.2655 17.1789 29.2655C19.1576 29.2655 21.3162 29.4034 22.3055 29.4034L22.4854 27.8413C20.5067 27.7494 20.1469 27.5197 20.057 26.6008C20.012 25.5442 20.012 23.9821 20.012 22.1444V16.1718C20.012 15.4368 20.1469 14.8395 20.4617 14.1963C21.2712 12.7721 22.7552 11.8073 24.1943 11.8073C25.4085 11.8073 26.173 12.4045 26.5328 13.3234C26.7577 13.9206 26.8026 14.3801 26.8026 20.6742C26.8026 23.8443 26.7577 25.5442 26.6227 26.6468C26.5778 27.4738 26.173 27.7494 24.3742 27.8872L24.3292 29.4034C25.4985 29.4034 27.0724 29.2655 29.321 29.2655C31.4346 29.2655 33.0536 29.4034 34.6275 29.4034L34.7175 27.8872C32.2441 27.6116 32.0642 27.5656 32.0642 26.6008V14.5179C32.0642 13.4153 31.8843 12.3127 31.3897 11.3938C30.7601 10.2452 29.276 8.91289 26.8026 8.91289C23.5198 8.91289 21.3162 10.9344 19.7872 12.3127C19.6073 11.8073 19.3824 11.256 18.9777 10.7506C18.438 10.0155 17.3138 8.91289 14.9303 8.91289C11.7824 8.91289 9.53382 10.7965 8.00481 12.2667C7.95984 11.5776 7.73498 9.83175 7.64504 9.14261C5.26159 9.60203 2.51837 9.7858 0.0899417 9.7858L0.0449709 11.3479C2.24854 11.3479 2.51837 11.4857 2.56334 12.0829C2.65328 13.3693 2.69825 15.207 2.69825 17.3664V21.3174Z" fill="#7B0000"/>
<path d="M47.5451 8.91289C40.7994 8.91289 37.3367 13.8288 37.3367 19.6176C37.3367 25.2685 40.3497 29.9087 47.2303 29.9087C53.6611 29.9087 57.3037 25.5442 57.3037 19.296C57.3037 13.2775 53.7061 8.91289 47.59 8.91289H47.5451ZM47.3202 10.5668C48.7593 10.5668 49.7037 11.4397 50.3333 12.6802C51.0078 14.0125 51.5025 16.5394 51.5025 19.8013C51.5025 22.6038 51.1877 24.7631 50.5581 26.1874C49.9735 27.5656 48.9841 28.2548 47.635 28.2548C46.2409 28.2548 45.1616 27.4738 44.3971 25.9576C43.6776 24.3497 43.2279 21.8228 43.2279 18.6987C43.2279 15.9881 43.6776 13.6909 44.3521 12.4505C45.0267 11.3019 45.8811 10.5668 47.2752 10.5668H47.3202Z" fill="#7B0000"/>
<path d="M70.9967 8.91289C64.251 8.91289 60.7883 13.8288 60.7883 19.6176C60.7883 25.2685 63.8013 29.9087 70.6819 29.9087C77.1127 29.9087 80.7553 25.5442 80.7553 19.296C80.7553 13.2775 77.1577 8.91289 71.0416 8.91289H70.9967ZM70.7718 10.5668C72.2109 10.5668 73.1553 11.4397 73.7849 12.6802C74.4594 14.0125 74.9541 16.5394 74.9541 19.8013C74.9541 22.6038 74.6393 24.7631 74.0097 26.1874C73.4251 27.5656 72.4357 28.2548 71.0866 28.2548C69.6925 28.2548 68.6132 27.4738 67.8487 25.9576C67.1292 24.3497 66.6795 21.8228 66.6795 18.6987C66.6795 15.9881 67.1292 13.6909 67.8037 12.4505C68.4783 11.3019 69.3327 10.5668 70.7268 10.5668H70.7718Z" fill="#7B0000"/>
<path d="M83.5748 29.4034C84.879 29.4034 86.6328 29.2655 88.6565 29.2655C90.4553 29.2655 92.8388 29.4034 93.9181 29.4034L93.9631 27.8413C92.0293 27.7035 91.6246 27.4738 91.5796 26.6008C91.4897 25.4523 91.4897 23.5227 91.4897 21.8228V16.2178C91.4897 15.3449 91.5796 14.6557 91.9394 14.1044C92.7938 12.6802 94.098 11.8073 95.672 11.8073C96.8862 11.8073 97.5158 12.3127 98.0104 13.1856C98.3252 13.8288 98.4152 14.3341 98.3702 20.4905C98.3702 23.7983 98.2803 25.682 98.1903 26.5549C98.1454 27.4738 97.6956 27.7494 95.9868 27.8413L95.9418 29.4034C96.9761 29.4034 98.5501 29.2655 100.844 29.2655C102.957 29.2655 104.621 29.4034 106.285 29.4034L106.33 27.8413C103.857 27.6575 103.632 27.5656 103.632 26.6008V14.472C103.632 13.2775 103.407 12.3586 103.002 11.5776C102.328 10.2912 100.844 8.91289 98.0554 8.91289C95.0424 8.91289 93.0187 10.7047 91.4897 12.1748C91.4897 11.4857 91.3098 9.96957 91.1749 9.14261C88.7914 9.55609 86.1831 9.7858 83.7547 9.7858L83.7097 11.3479C85.8233 11.3938 86.0932 11.5316 86.0932 12.1289C86.1831 13.3693 86.2281 15.1611 86.2281 17.3664V21.5012C86.2281 23.3849 86.1831 24.9929 86.0932 26.4171C86.0032 27.5656 85.7334 27.7494 83.5748 27.8413V29.4034Z" fill="#7B0000"/>
<path d="M113.022 0C111.268 0 110.099 1.2864 110.099 3.07816C110.099 4.82399 111.313 5.97256 112.887 5.97256C114.641 5.97256 115.945 4.77804 115.945 3.03222C115.945 1.05668 114.911 0 113.067 0H113.022ZM107.76 11.21H109.784C110.504 11.21 110.683 11.3938 110.728 11.9451C110.818 13.2775 110.863 14.0621 110.863 19.0699C110.863 25.3641 110.728 28.4736 110.504 30.8627C110.234 34.1705 109.868 35.1813 108.249 35.1813C107.62 35.1813 107.08 35.0894 106.585 34.9975L106.27 35.5488C106.45 36.0542 106.72 36.4217 106.945 36.7433C107.215 37.0649 107.575 37.2487 108.114 37.2487C109.733 37.2487 111.673 36.0542 113.562 33.803C114.821 32.2409 115.585 30.1276 115.81 28.0602C116.08 26.2684 116.125 25.5478 116.125 21.2292C116.125 13.5568 116.125 12.3127 116.17 9.05072L116.035 8.91289C113.741 9.23449 110.459 9.51015 107.76 9.64798V11.21Z" fill="#7B0000"/>
<path d="M125.411 0C123.657 0 122.488 1.33234 122.488 3.07816C122.488 4.82399 123.702 5.97256 125.276 5.97256C127.075 5.97256 128.334 4.77804 128.334 3.03222C128.334 1.14857 127.299 0 125.456 0H125.411ZM131.122 27.8413C128.963 27.7035 128.604 27.5197 128.514 26.463C128.514 25.4063 128.424 24.1199 128.424 21.5931V16.034C128.424 12.1289 128.514 10.0155 128.559 8.95883C126.085 9.51015 122.982 9.60203 120.464 9.7858L120.419 11.3479C122.667 11.256 123.027 11.4397 123.072 12.1289C123.117 12.864 123.162 14.3341 123.162 16.4475V21.5471C123.162 23.9821 123.117 25.636 123.027 26.509C122.937 27.4278 122.667 27.7494 120.194 27.8413V29.4034C121.543 29.4034 122.892 29.2655 125.456 29.2655C127.839 29.2655 129.503 29.4034 131.077 29.4034L131.122 27.8413Z" fill="#7B0000"/>
<path d="M133.245 29.4034C134.549 29.4034 136.303 29.2655 138.326 29.2655C140.125 29.2655 142.509 29.4034 143.588 29.4034L143.633 27.8413C141.699 27.7035 141.295 27.4738 141.25 26.6008C141.16 25.4523 141.16 23.5227 141.16 21.8228V16.2178C141.16 15.3449 141.25 14.6557 141.609 14.1044C142.464 12.6802 143.768 11.8073 145.342 11.8073C146.556 11.8073 147.186 12.3127 147.68 13.1856C147.995 13.8288 148.085 14.3341 148.04 20.4905C148.04 23.7983 147.95 25.682 147.86 26.5549C147.815 27.4738 147.366 27.7494 145.657 27.8413L145.612 29.4034C146.646 29.4034 148.22 29.2655 150.514 29.2655C152.627 29.2655 154.291 29.4034 155.955 29.4034L156 27.8413C153.527 27.6575 153.302 27.5656 153.302 26.6008V14.472C153.302 13.2775 153.077 12.3586 152.672 11.5776C151.998 10.2912 150.514 8.91289 147.725 8.91289C144.712 8.91289 142.689 10.7047 141.16 12.1748C141.16 11.4857 140.98 9.96957 140.845 9.14261C138.461 9.55609 135.853 9.7858 133.425 9.7858L133.38 11.3479C135.493 11.3938 135.763 11.5316 135.763 12.1289C135.853 13.3693 135.898 15.1611 135.898 17.3664V21.5012C135.898 23.3849 135.853 24.9929 135.763 26.4171C135.673 27.5656 135.403 27.7494 133.245 27.8413V29.4034Z" fill="#7B0000"/>
<rect x="138.695" y="56.5703" width="16.6927" height="1.47622" fill="#7B0000"/>
<path d="M131.023 57.3339V47.3531H132.887V48.9338H132.996C133.358 47.8677 134.335 47.206 135.493 47.206C135.728 47.206 136.108 47.2244 136.307 47.2428V49.1176C136.145 49.0809 135.692 49.0074 135.294 49.0074C133.955 49.0074 132.96 49.9448 132.96 51.2498V57.3339H131.023Z" fill="#7B0000"/>
<path d="M124.872 57.5362C121.977 57.5362 120.203 55.5143 120.203 52.408C120.203 49.3383 122.013 47.2245 124.745 47.2245C126.989 47.2245 129.106 48.6399 129.106 52.2425V52.941H122.121C122.176 54.8342 123.27 55.9187 124.89 55.9187C125.994 55.9187 126.7 55.4408 127.025 54.8342H128.98C128.545 56.4518 127.025 57.5362 124.872 57.5362ZM122.139 51.4705H127.206C127.206 49.9449 126.247 48.8421 124.763 48.8421C123.216 48.8421 122.212 50.0552 122.139 51.4705Z" fill="#7B0000"/>
<path d="M118.859 47.3531V48.9155H116.85V54.393C116.85 55.5142 117.411 55.7164 118.026 55.7348C118.298 55.7348 118.732 55.6981 119.004 55.6797V57.3891C118.732 57.4259 118.316 57.4626 117.791 57.4626C116.271 57.4626 114.914 56.6171 114.932 54.7974V48.9155H113.484V47.3531H114.932V44.9636H116.85V47.3531H118.859Z" fill="#7B0000"/>
<path d="M112.386 47.3531V48.9155H110.378V54.393C110.378 55.5142 110.939 55.7164 111.554 55.7348C111.825 55.7348 112.26 55.6981 112.531 55.6797V57.3891C112.26 57.4259 111.843 57.4626 111.319 57.4626C109.798 57.4626 108.441 56.6171 108.459 54.7974V48.9155H107.012V47.3531H108.459V44.9636H110.378V47.3531H112.386Z" fill="#7B0000"/>
<path d="M101.637 57.5362C98.7421 57.5362 96.9688 55.5143 96.9688 52.408C96.9688 49.3383 98.7783 47.2245 101.511 47.2245C103.755 47.2245 105.872 48.6399 105.872 52.2425V52.941H98.8869C98.9412 54.8342 100.036 55.9187 101.656 55.9187C102.759 55.9187 103.465 55.4408 103.791 54.8342H105.745C105.311 56.4518 103.791 57.5362 101.637 57.5362ZM98.905 51.4705H103.972C103.972 49.9449 103.013 48.8421 101.529 48.8421C99.9817 48.8421 98.9774 50.0552 98.905 51.4705Z" fill="#7B0000"/>
<path d="M87.6094 57.3339V44.0262H89.5999V55.5878H95.5173V57.3339H87.6094Z" fill="#7B0000"/>
<path d="M78.9951 50.0736C78.8141 49.2832 78.1988 48.7685 77.1312 48.7685C76.0273 48.7685 75.2311 49.3567 75.2492 50.1103C75.2311 50.6985 75.7016 51.1213 76.7874 51.3786L78.3436 51.7462C80.1532 52.1506 81.0218 53.0329 81.0399 54.4482C81.0218 56.2496 79.5379 57.5362 77.0226 57.5362C74.6702 57.5362 73.2587 56.4701 73.0234 54.6137H74.9959C75.1587 55.5143 75.8464 55.9555 77.0045 55.9555C78.2531 55.9555 79.0493 55.4408 79.0674 54.5953C79.0493 53.952 78.5789 53.5292 77.5474 53.2902L76.0092 52.9594C74.2359 52.555 73.313 51.5992 73.313 50.2206C73.313 48.4377 74.833 47.2245 77.1131 47.2245C79.3027 47.2245 80.6599 48.3642 80.8589 50.0736H78.9951Z" fill="#7B0000"/>
<path d="M60.9319 57.3339L58.0547 47.3531H60.0452L61.9634 54.6687H62.072L63.9901 47.3531H65.9807L67.8807 54.6319H67.9893L69.8894 47.3531H71.8799L69.0027 57.3339H67.0302L65.0397 50.147H64.8949L62.9225 57.3339H60.9319Z" fill="#7B0000"/>
<path d="M52.7078 57.5362C49.8125 57.5362 48.0391 55.5143 48.0391 52.408C48.0391 49.3383 49.8486 47.2245 52.5811 47.2245C54.825 47.2245 56.9422 48.6399 56.9422 52.2425V52.941H49.9572C50.0115 54.8342 51.1063 55.9187 52.7259 55.9187C53.8297 55.9187 54.5355 55.4408 54.8612 54.8342H56.8155C56.3812 56.4518 54.8612 57.5362 52.7078 57.5362ZM49.9753 51.4705H55.0421C55.0421 49.9449 54.0831 48.8421 52.5992 48.8421C51.052 48.8421 50.0477 50.0552 49.9753 51.4705Z" fill="#7B0000"/>
<path d="M45.9547 44.0262V57.3339H44.127L37.4858 47.6105H37.3773V57.3339H35.3867V44.0262H37.2325L43.8737 53.7681H44.0003V44.0262H45.9547Z" fill="#7B0000"/>
</svg>
