<svg width="136" height="124" viewBox="0 0 136 124" fill="none" xmlns="http://www.w3.org/2000/svg">
<g opacity="0.4" clip-path="url(#clip0_1909_12479)">
<path d="M118.71 75.9446H118.351C117.997 75.9446 106.59 76.0185 106.574 76.0185H106.545C106.391 76.0185 105.876 76 105.876 75.483C105.876 74.9995 106.363 74.9432 106.604 74.9432C106.677 74.9432 106.727 74.9484 106.734 74.9484C106.822 74.9484 106.91 74.9496 106.999 74.9496C107.015 74.9496 117.794 74.8938 118.544 74.8656C117.656 69.085 116.897 63.3428 115.89 57.5953C112.886 57.7989 104.452 58.3896 104.297 58.3896C103.897 58.3896 103.701 58.1484 103.701 57.8654C103.701 56.7967 111.528 57.1233 115.716 56.5159C114.136 41.7264 115.818 38.786 106.796 29.8542C106.76 29.8269 106.72 29.8037 106.679 29.7848C99.0078 35.1552 98.6534 35.8309 98.1347 35.8309C98.0024 35.8267 97.8768 35.7706 97.7839 35.6745C97.6911 35.5783 97.6382 35.4494 97.6363 35.3146C97.6363 34.7201 101.19 32.6085 105.907 29.0221C99.3235 22.6295 86.7858 19.758 86.7688 19.7559C83.5299 28.7222 83.7934 29.8391 83.0241 29.8391C82.958 29.8404 82.8922 29.8285 82.8306 29.8039C82.7689 29.7793 82.7127 29.7427 82.665 29.696C82.6173 29.6492 82.5791 29.5934 82.5525 29.5317C82.526 29.4699 82.5117 29.4035 82.5104 29.3361C82.5101 29.3267 82.5102 29.3174 82.5105 29.308C82.5105 29.0113 85.2418 21.1197 85.7178 19.5284C81.415 18.7336 74.2008 16.6988 63.1613 16.6988C62.7649 16.6847 62.368 16.6939 61.9727 16.7265C61.9727 16.8357 61.9711 16.9372 61.9711 17.0356C61.9711 17.2734 62.2273 25.4914 62.2273 25.6321C62.2273 26.2066 61.8361 26.2386 61.7156 26.2386C60.7517 26.2386 61.3686 24.2026 60.8974 16.7447C60.8162 16.7447 60.7466 16.743 60.6813 16.743C49.6236 16.743 42.5484 21.9367 42.3892 22.0452C43.6339 24.5949 48.2188 33.0707 48.2188 33.4363C48.216 33.5738 48.1605 33.7048 48.0643 33.8013C47.968 33.8979 47.8386 33.9523 47.7035 33.953C47.039 33.953 43.9098 26.9336 41.4926 22.6445C34.4637 27.5522 28.4956 38.1474 28.0945 39.1037C34.1864 46.9304 34.4365 46.8872 34.4365 47.3031C34.4335 47.4403 34.3786 47.571 34.2833 47.6679C34.188 47.7649 34.0596 47.8206 33.9249 47.8234C33.3923 47.8234 32.0398 45.5899 27.5525 40.1212C24.2285 45.4472 22.2534 56.372 22.2026 61.1027C31.9009 60.3403 43.5067 59.7396 43.516 59.7396C43.6269 59.7396 43.6707 59.8279 43.9383 59.8279C44.1902 59.8279 44.395 59.7456 44.6868 59.7456C48.9852 59.7456 50.2265 73.7767 50.3192 74.2796C52.795 74.5001 53.1724 74.6005 53.1724 75.0319C53.1704 75.0916 53.1568 75.1503 53.1325 75.2047C53.1081 75.259 53.0735 75.308 53.0306 75.3487C52.9877 75.3894 52.9373 75.4211 52.8824 75.442C52.8275 75.4629 52.769 75.4726 52.7104 75.4705L52.7053 75.4703H52.6931C52.6776 75.4703 52.5896 75.4488 50.417 75.1584C50.417 75.2814 50.4136 75.3811 50.4136 75.4717C50.4136 75.7599 50.6421 78.2684 50.6421 81.7193V82.3722C51.432 81.6502 50.2736 82.2826 56.4083 77.5876C55.6157 75.1709 54.1707 73.2756 54.1707 70.0633C54.1707 70.0459 54.4284 61.42 55.9343 59.9222C56.0325 59.8299 56.1094 59.7166 56.1594 59.5904C56.2094 59.4643 56.2313 59.3284 56.2235 59.1925C56.2235 59.0395 56.1852 58.5625 56.1852 57.733C56.1852 47.1459 62.204 38.7376 72.5995 36.7761C74.247 36.3396 75.9428 36.12 77.6452 36.1227C80.2854 36.1227 87.1803 36.4398 93.4587 43.3107C98.3882 48.7054 99.2568 52.6187 99.685 66.2427C99.8233 68.7777 99.8519 71.1435 99.8623 73.1713C99.9012 74.9157 99.9415 76.7811 99.987 78.7831C99.9965 78.871 100.007 78.954 100.018 79.0327C100.576 79.9105 110.693 86.2674 114.875 96.6027C118.562 91.1002 118.891 81.4618 118.921 81.1783V78.6028C118.829 77.5054 118.888 78.2505 118.71 75.9446ZM26.2699 59.6685C26.2699 59.9019 26.1679 60.2057 25.8298 60.2057C25.7652 60.2067 25.7011 60.1922 25.643 60.1634C25.5848 60.1346 25.5341 60.0922 25.495 60.0397C25.4083 60.0957 25.3085 60.1272 25.2058 60.1312C24.579 60.1312 24.7079 59.9492 24.1532 53.0699C24.1495 53.0258 24.1475 52.9816 24.1472 52.9373C24.139 52.8637 24.1464 52.7892 24.1688 52.7188C24.1912 52.6483 24.2281 52.5836 24.2771 52.5289C24.3261 52.4741 24.386 52.4307 24.4527 52.4014C24.5195 52.3722 24.5917 52.3578 24.6644 52.3593C24.9076 52.3593 25.0376 52.3853 25.1364 52.8025C25.1718 52.7377 25.2247 52.6847 25.2888 52.6496C25.3529 52.6145 25.4255 52.5988 25.4981 52.6044C26.0403 52.6044 25.9387 52.9917 26.1029 56.4761C26.2623 59.4902 26.2693 59.6132 26.2693 59.6557L26.2699 59.6685ZM48.3217 51.0522C48.3151 51.0522 48.3071 51.0543 48.3013 51.0543C47.8113 51.0543 47.3359 50.12 47.3359 49.4775C47.3359 49.1033 47.4665 48.5626 47.4665 47.5528C47.4665 46.8545 47.4338 46.7488 47.2253 46.3442C47.12 46.1397 46.9922 46.0621 46.8583 46.0621C46.6755 46.0852 46.5067 46.174 46.3823 46.3124C46.2579 46.4509 46.1861 46.63 46.1797 46.8176C46.1797 47.1174 46.315 47.2097 46.315 47.4559C46.3133 47.5261 46.2981 47.5953 46.2702 47.6595C46.2423 47.7237 46.2022 47.7817 46.1523 47.8301C46.1024 47.8785 46.0437 47.9165 45.9794 47.9418C45.9151 47.9671 45.8465 47.9792 45.7776 47.9775L45.7694 47.9771H45.7616C45.6359 47.9741 45.5148 47.9288 45.4171 47.8482C45.3698 47.8674 45.3195 47.8774 45.2686 47.8777C44.7817 47.8777 44.7268 47.1045 44.7268 46.9401C44.7268 45.1758 46.6227 44.5851 47.2006 44.5851C48.0434 44.5851 48.9455 45.5555 48.9455 47.4034C48.9455 48.1456 48.8125 48.4063 48.8125 49.1882C48.8125 50.0256 48.9588 50.417 48.9588 50.6385C48.9588 50.9907 48.7344 51.116 48.5585 51.116C48.4752 51.1187 48.3929 51.0965 48.3217 51.0522ZM49.5886 52.7084C49.4906 52.7767 49.3747 52.8133 49.256 52.8134C49.1146 52.812 48.9796 52.7536 48.8803 52.6511C48.781 52.5487 48.7255 52.4104 48.7259 52.2664C48.7254 52.1978 48.7381 52.1298 48.7634 52.0663C48.7887 52.0028 48.826 51.9449 48.8733 51.8961C48.9205 51.8472 48.9767 51.8083 49.0387 51.7816C49.1007 51.7549 49.1672 51.7408 49.2346 51.7403C49.2495 51.7403 49.2644 51.7409 49.2793 51.7421C49.3626 51.7392 49.4455 51.7556 49.5217 51.79C49.5978 51.8244 49.6654 51.876 49.7192 51.9408C49.7979 51.9631 49.8672 52.0112 49.9164 52.0775C49.9656 52.1439 49.9919 52.225 49.9914 52.3081C49.9887 52.4152 49.9451 52.5169 49.8698 52.5917C49.7946 52.6664 49.6937 52.7083 49.5886 52.7084ZM68.0663 35.847C68.0101 35.8475 67.9543 35.8374 67.9016 35.8172C67.8363 35.8347 67.769 35.8438 67.7014 35.8443C67.1244 35.8443 67.1087 35.3955 67.1087 35.326V35.3179C67.1087 35.0015 67.3409 34.7968 67.7041 34.7968C67.8052 34.7904 67.9061 34.8108 67.9971 34.8561C68.088 34.9013 68.1659 34.9699 68.223 35.055C68.3096 35.0709 68.3878 35.1178 68.4436 35.1872C68.4993 35.2566 68.529 35.344 68.5272 35.4336C68.5236 35.4916 68.5088 35.5482 68.4837 35.6004C68.4586 35.6525 68.4237 35.6991 68.3809 35.7375C68.3381 35.7759 68.2883 35.8053 68.2344 35.8241C68.1804 35.8429 68.1234 35.8507 68.0665 35.847H68.0663ZM69.1808 31.7321C68.1442 33.9445 68.1917 34.2588 67.7946 34.2588C67.7546 34.1729 67.6879 34.1029 67.6049 34.0594C67.5219 34.0159 67.4272 34.0015 67.3353 34.0183C67.199 34.0211 67.0671 33.9686 66.9688 33.8724C66.8704 33.7762 66.8136 33.6441 66.8108 33.5052V33.4983C66.8108 32.9518 68.0428 30.6181 68.0428 29.8876C68.0428 29.645 68.0285 29.3666 67.7831 29.3666C67.5738 29.3666 67.2387 29.6421 66.9592 29.8445C66.8886 29.8964 66.7976 30.1673 66.4828 30.1673C66.3545 30.1736 66.2288 30.1287 66.1325 30.0421C66.0362 29.9555 65.9768 29.8341 65.967 29.7036C65.973 29.5619 66.0136 29.4241 66.0851 29.3025C66.0809 29.2801 66.0786 29.2573 66.0783 29.2345C66.0783 28.8707 66.7896 28.0043 67.9673 28.0043C69.4193 28.0043 69.4603 29.3489 69.5853 29.9578C69.5732 30.5715 69.4354 31.1758 69.1808 31.7321ZM101.703 50.2604C101.596 50.2616 101.491 50.23 101.401 50.1697C101.312 50.1094 101.243 50.0233 101.202 49.9223C101.086 49.8999 100.981 49.8374 100.905 49.7454C100.829 49.6534 100.786 49.5374 100.784 49.4171C100.784 49.1138 101.111 48.817 101.443 48.817C101.591 48.826 101.731 48.8922 101.834 49.0022C101.937 49.1122 101.995 49.2578 101.996 49.4096C101.996 49.4578 101.99 49.5059 101.979 49.5527C102.028 49.587 102.068 49.6325 102.096 49.6854C102.124 49.7383 102.14 49.7973 102.142 49.8575C102.141 49.9111 102.131 49.9641 102.11 50.0134C102.09 50.0627 102.06 50.1075 102.022 50.1451C101.985 50.1827 101.941 50.2124 101.892 50.2325C101.843 50.2527 101.791 50.2629 101.738 50.2625C101.726 50.2623 101.715 50.2615 101.703 50.2604ZM102.187 47.8276C102.108 47.8258 102.031 47.8012 101.966 47.7566C101.9 47.712 101.848 47.6492 101.816 47.5757C101.512 47.3989 101.473 46.8938 101.473 46.767C101.473 45.3564 103.278 44.0956 103.278 43.4401C103.28 43.3932 103.272 43.3466 103.254 43.3032C103.237 43.2598 103.21 43.2207 103.177 43.1884C103.143 43.1562 103.104 43.1316 103.06 43.1162C103.017 43.1009 102.97 43.0951 102.925 43.0993C102.586 43.0993 101.824 43.5073 101.616 43.5073C101.483 43.5068 101.356 43.4527 101.263 43.3568C101.169 43.2608 101.117 43.131 101.117 42.9958C101.122 42.9002 101.15 42.8072 101.197 42.7246C101.245 42.642 101.311 42.5722 101.391 42.5211C101.428 42.2993 101.851 41.7145 103.007 41.6824C105.136 41.684 105.216 43.4741 105.216 43.5417C105.216 44.7927 103.636 46.1846 103.199 46.5774C102.529 47.1811 102.706 47.8276 102.187 47.8276ZM44.2867 90.0266C43.6092 91.3069 39.1741 96.4496 37.8157 109.82C35.7615 109.331 33.7812 108.563 31.9281 107.537C31.9723 101.843 32.0165 96.1427 32.0608 90.4021L44.2867 90.0266ZM22.9909 98.0385C22.9909 100.223 22.9829 99.8877 22.9361 100.018C20.705 97.3553 19.3885 94.3138 18.8703 90.8438L22.9885 90.679V92.0553C22.9887 95.0391 22.9909 96.8883 22.9909 98.0385Z" fill="#999999"/>
<path d="M63.4708 97.3702C57.8275 94.5632 58.1609 92.6126 57.12 88.8451C56.9652 88.8451 56.8122 88.842 56.6606 88.842C56.0202 88.842 47.4137 89.1951 47.3975 89.1951C47.3125 89.1951 47.2907 89.192 47.2521 89.192C46.8588 89.192 39.3736 98.9773 39.3736 112.579C39.3736 117.766 40.5248 121.229 40.9465 122.674L40.0887 122.78C39.9069 122.269 38.5056 118.361 38.5056 112.544C38.5056 99.9664 44.6877 91.1715 45.8377 89.2506L30.9864 89.8075C30.6462 94.2213 31.1781 123.325 30.201 123.325C29.917 123.325 29.7537 123.13 29.7537 122.623C29.7537 122.583 30.0621 91.658 30.0621 90.2096V89.9208C29.8549 89.8976 29.6463 89.8896 29.438 89.897C28.1189 89.897 25.1828 90.0076 24.8079 90.0939V90.4221C24.8079 91.2462 24.6908 123.238 24.6908 123.256V123.37C24.6908 123.373 24.692 123.391 24.692 123.42C24.692 123.569 24.658 124 24.2497 124C23.831 124 23.8149 123.519 23.8149 123.421V123.405C23.8149 123.353 23.9192 90.7021 23.9192 90.4796V90.0863C23.8137 90.0863 23.7208 90.0845 23.6325 90.0845C23.4166 90.0845 7.48829 90.7083 7.04734 90.7083C6.90393 90.7083 6.57458 90.7023 6.51283 90.341C6.02868 87.5123 5.55166 85.5955 5.55166 80.8644C5.55166 80.5324 5.55336 80.4593 5.55336 80.2548V79.9117C5.36504 79.9592 3.90424 80.241 1.98394 81.7947C0.863543 82.7009 1.62822 83.2849 0.915769 83.2849C0.584038 83.2849 0.5 82.9064 0.5 82.7373C0.5 80.5021 5.56953 78.9322 5.58501 78.9215C5.69541 77.297 6.08073 68.6421 9.27351 62.7867C9.98801 61.4772 43.5003 59.7401 43.5163 59.7401C43.6272 59.7401 43.6709 59.8285 43.9385 59.8285C44.1905 59.8285 44.3953 59.7462 44.687 59.7462C48.9854 59.7462 50.2268 73.7773 50.3195 74.2801C52.7952 74.5007 53.1727 74.601 53.1727 75.0325C53.1706 75.0922 53.1571 75.1509 53.1327 75.2052C53.1084 75.2596 53.0738 75.3085 53.0309 75.3493C52.988 75.39 52.9376 75.4217 52.8827 75.4426C52.8277 75.4635 52.7693 75.4732 52.7107 75.4711L52.7056 75.4709H52.6933C52.6778 75.4709 52.5899 75.4494 50.4173 75.159C50.4173 75.282 50.4139 75.3816 50.4139 75.4723C50.4139 75.7604 50.6424 78.2689 50.6424 81.7199V83.3781C52.324 82.2345 52.0986 80.9478 53.6249 80.5711C54.3862 80.3829 55.4511 79.1939 57.4088 78.1528C57.4117 78.0968 57.4131 78.04 57.4132 77.9825C57.4132 75.1552 55.1066 73.6553 55.1066 71.0493C55.1066 62.7856 55.6549 60.6888 56.9662 60.1962C56.9662 60.0862 56.9682 59.9836 56.9682 59.8843C56.9682 59.6641 56.9473 59.3792 56.9473 58.7182C56.9473 46.857 65.5364 36.1245 77.6446 36.1245C80.2848 36.1245 87.1797 36.4416 93.4581 43.3125C99.664 50.1038 99.434 54.5452 99.9906 78.9724C100.008 79.7088 116.659 89.6384 116.659 105.532C116.659 118.629 104.951 122.347 97.3701 122.347C76.4248 122.347 61.8942 103.094 61.8942 99.2002C61.8937 98.9089 61.9479 98.96 63.4708 97.3702ZM90.2707 97.5705C90.2707 97.2089 90.2779 96.8419 90.2779 96.4616C89.4663 96.2561 69.0621 92.9018 69.0056 92.9018C68.9325 92.9019 68.8603 92.9186 68.7943 92.9506C68.7283 92.9827 68.6701 93.0294 68.624 93.0872C63.0853 99.1092 62.874 99.2298 62.874 99.4142C62.874 99.4292 62.8757 99.4448 62.8757 99.4642C62.8757 102.51 77.0861 121.445 97.3834 121.445C115.539 121.445 115.794 106.895 115.794 105.469C115.794 93.1421 104.033 82.8051 100.104 80.4907C99.9906 81.124 99.9156 81.1896 99.2952 81.2281C99.2782 81.2291 90.0765 81.5589 89.231 81.5589C88.8475 81.5589 88.4609 81.553 88.0665 81.553C83.2207 90.8825 74.6413 91.1514 73.4285 91.1514C73.3542 91.1514 73.3077 91.1503 73.2911 91.1503C67.291 91.1503 65.4767 87.041 65.3385 86.8705C65.9613 88.6656 65.985 88.6736 68.1455 92.1777C68.2155 92.0689 68.3098 91.9787 68.4208 91.9144C68.5318 91.8502 68.6562 91.8138 68.7838 91.8083C68.7998 91.8083 88.4171 95.1263 90.4152 95.3453C90.9892 92.7514 91.5075 91.1417 92.7118 87.1772C92.8062 86.867 92.9414 86.674 93.1782 86.674C93.2255 86.6747 93.2721 86.6848 93.3155 86.7039C93.3588 86.7229 93.3981 86.7505 93.431 86.785C93.4639 86.8196 93.4898 86.8603 93.5072 86.905C93.5247 86.9498 93.5333 86.9975 93.5326 87.0456C93.5324 87.0574 93.5316 87.0692 93.5304 87.081C93.5304 87.4367 91.5352 94.1028 91.2767 95.7009C92.0706 95.9863 97.7958 97.5494 97.7958 101.616C97.7958 103.189 96.6533 105.226 94.4455 105.226C90.5873 105.226 90.2707 98.872 90.2707 97.5705ZM69.073 46.136C63.4302 48.2475 59.793 56.6953 59.793 63.9602C59.793 64.9006 59.9009 65.8429 59.9461 66.7846C59.9558 66.9877 59.8791 67.7808 62.2722 67.7808C62.7897 67.7808 63.2236 67.7265 63.588 67.7265C65.2892 67.7265 65.482 68.9076 65.6473 82.2967C65.6618 83.4698 67.4336 86.0335 72.4201 86.0335C81.8417 86.0335 87.8437 78.6576 87.8437 76.6524C87.8437 76.6344 87.3066 62.1095 87.3066 62.0017C87.3066 61.5165 87.5152 61.3916 87.7578 61.3916C88.3613 61.3916 88.129 62.1694 88.2991 64.3801H89.2551C89.3356 63.5702 89.2921 62.9672 89.7893 62.9672C90.1159 62.9672 90.216 63.2415 90.216 63.4678C90.216 63.6166 90.199 63.5936 90.199 63.9422V64.2169C90.6903 64.1414 91.1674 63.9895 91.6135 63.7663C91.7221 63.7106 91.8166 63.6302 91.8898 63.5313C91.963 63.4324 92.0128 63.3176 92.0354 63.1959C92.1565 62.6068 92.3268 59.8119 92.3268 58.8956C92.3268 50.052 91.9185 49.861 90.5436 49.861C88.6344 49.861 87.7472 51.9067 87.7275 53.1304C87.6543 57.6515 87.8529 58.2309 86.8844 58.2309C84.0131 58.2309 82.5618 55.8716 79.127 53.4581C77.7298 52.4752 71.8335 54.4284 69.073 46.136ZM23.5447 77.4571C23.5569 77.4302 23.5672 77.4024 23.5755 77.374C23.4824 77.0313 23.4292 76.6787 23.4168 76.3234C23.4168 73.8598 26.8585 71.357 29.439 71.357C31.2172 71.357 31.5185 72.6439 31.5185 73.1688C31.5185 76.2979 25.6154 77.913 25.2752 78.034C25.3031 78.047 25.9529 78.4672 27.6089 78.4672C30.5924 78.4672 36.9705 76.8706 39.1577 76.0361C39.1704 75.9295 39.1861 75.8403 39.1917 75.7505C39.9062 63.5115 42.6111 61.2277 42.7523 60.7075C41.3958 60.7744 13.4385 62.6286 10.6957 62.7778C9.07736 62.8658 6.51181 73.1916 6.51181 78.4938C6.51181 78.5826 6.51402 78.6749 6.51402 78.7775C15.3195 77.6859 18.5506 78.2996 23.5447 77.4571ZM39.0864 79.8218C39.0864 78.8888 39.1013 77.9531 39.131 77.0148C39.0056 77.0518 31.6859 79.3782 27.494 79.3782C24.6556 79.3782 24.5585 78.3105 23.9641 78.3105C23.9479 78.3105 8.94025 79.3394 6.45635 79.7114C6.44615 80.1606 6.44093 80.6086 6.4407 81.0555C6.4407 84.0012 6.67665 86.9056 7.33484 89.8076L39.5723 88.5947C39.2431 85.6825 39.0809 82.7532 39.0864 79.8218ZM59.511 68.1518C59.4807 68.2292 59.4669 68.2432 59.4669 68.2717C59.4669 70.1352 63.1518 70.3215 63.1518 75.116C63.1518 75.1949 63.1508 75.2127 63.1508 75.2815C63.1508 75.8308 63.2379 76.5464 63.2379 76.7089C63.244 76.7661 63.238 76.824 63.2204 76.8786C63.2027 76.9333 63.1739 76.9835 63.1357 77.0259C63.0975 77.0683 63.0509 77.1019 62.9989 77.1245C62.947 77.1471 62.8909 77.1581 62.8344 77.1568C62.0628 77.1568 62.3782 75.928 62.2205 74.4555C61.8016 70.5433 58.927 70.8911 58.6224 68.6023C58.4608 67.3876 58.355 61.4199 57.131 61.1248C56.8493 61.3474 56.0006 62.039 56.0006 71.1962C56.0006 73.1064 57.6026 73.7454 58.3246 77.8782C60.4619 78.0627 62.5762 78.2571 64.7268 78.4261V78.154C64.7268 76.0557 64.3662 69.9529 64.1639 69.0051C64.1527 68.915 64.1072 68.8329 64.0372 68.7766C63.9672 68.7203 63.8783 68.6942 63.7896 68.704C63.7738 68.704 63.6443 68.7057 63.4627 68.7057C61.1535 68.7057 60.8144 68.4935 59.511 68.1518ZM67.5525 92.9422C67.151 92.1741 65.5073 89.6215 65.2838 89.1104C62.6684 83.1293 63.0443 83.0776 60.8326 83.0776H60.7135C60.1993 83.0776 59.7083 83.1539 59.1032 83.1539C58.1602 83.1539 56.5128 82.8467 55.9616 82.8467H55.8812C55.7189 82.8467 55.5069 82.864 55.5069 83.0925C55.507 83.117 55.5093 83.1413 55.5137 83.1653C55.6211 83.7744 55.6382 83.9523 55.994 84.0339C61.1244 85.2091 61.1128 85.6556 62.2477 90.0194C62.6879 91.7123 63.1673 91.461 63.1673 91.8987C63.1639 92.0134 63.1173 92.1224 63.0373 92.2033C62.9573 92.2841 62.8499 92.3306 62.7373 92.3331C61.3511 92.3331 61.1722 87.2142 59.7582 86.2876C59.7582 86.4487 59.757 86.5821 59.757 86.7057C59.757 87.1851 59.7873 87.9893 59.7873 88.0028C59.7873 88.4315 59.2316 88.7697 58.7739 88.7697C58.6913 88.7697 58.5826 88.7597 58.446 88.7597C58.2768 88.7547 58.1081 88.7823 57.949 88.8411C58.9697 95.0087 62.5374 95.9423 64.1115 96.6643L67.5525 92.9422ZM40.3982 87.8774L58.9339 87.6086V85.7705C58.3351 85.5529 56.21 84.9163 56.1135 84.9163C55.8614 84.9163 55.9307 85.1403 55.1218 85.1403C55.0102 85.1403 47.962 85.0048 43.6281 85.0048C41.7414 85.0048 40.7238 85.0232 40.4769 85.0232H40.1437C40.1973 85.9991 40.2667 86.923 40.3982 87.8774ZM91.1989 96.678C91.1471 96.9746 91.1303 97.2766 91.1487 97.5773C91.1487 99.9127 91.7567 104.315 94.5036 104.315C96.2371 104.315 96.9064 102.567 96.9064 101.621C96.9064 99.8415 94.7586 97.4156 91.1989 96.678ZM65.0148 86.2283C65.0282 86.204 65.0396 86.1786 65.0488 86.1524C64.7785 85.3209 64.6335 84.4525 64.6189 83.5767C64.6189 82.4397 64.7627 82.8394 64.7627 81.0902C64.7627 79.3512 64.7576 79.6844 64.73 79.3515C64.0963 79.2718 61.1776 79.0163 57.7409 78.7503C57.3481 79.3061 56.4633 79.6686 55.7165 80.2902C55.7662 80.3352 55.7432 80.3397 55.8364 80.3397H55.9278C56.0901 80.3397 56.8102 80.2964 57.6774 80.2964C58.7067 80.2964 61.1572 80.4028 61.7147 80.9375C62.8902 82.0659 62.7577 82.4575 62.9566 82.5836C63.7 83.0627 63.865 83.8172 65.015 86.2283H65.0148ZM24.299 76.3671C24.2997 76.6709 24.3714 76.9702 24.5083 77.2402C26.7494 76.916 30.6155 75.0341 30.6155 73.1287C30.6155 72.284 29.7683 72.2585 29.3567 72.2585C27.2486 72.2585 24.299 74.4557 24.299 76.3669V76.3671ZM54.7863 83.8851C54.7244 83.6058 54.6845 83.3219 54.6672 83.0361C54.6672 81.9947 55.6421 81.9562 55.9114 81.9562H55.9616C56.7292 81.9562 57.7535 82.2612 59.1161 82.2612C59.8442 82.2612 59.8589 82.1901 60.5111 82.1901C60.8003 82.1901 61.0912 82.204 61.3806 82.204H61.6802C61.3816 81.6888 61.1965 81.5346 60.7724 81.4641C59.9128 81.3024 59.0418 81.2118 58.1679 81.1933C53.8084 81.1933 52.9112 81.4471 52.9112 82.5408C52.9114 83.2799 53.9711 83.816 54.7863 83.8851ZM52.1193 83.2734C51.7111 83.5727 51.3827 83.9177 51.2721 84.1951H52.4694C52.8947 84.1951 52.7825 84.1911 52.91 84.1565L52.1193 83.2734Z" fill="#333333"/>
<path d="M59.4207 121.94C59.2084 121.94 58.9954 121.945 58.7833 121.945C57.3839 121.945 51.8647 116.029 51.8647 104.884C51.8647 99.9486 53.2619 94.0374 54.0474 94.0374C54.1595 94.036 54.2675 94.08 54.3477 94.1597C54.428 94.2395 54.4738 94.3484 54.4752 94.4626C54.4753 94.471 54.4752 94.4795 54.4749 94.4879C54.4749 94.8752 52.7533 98.6768 52.7533 104.903C52.7533 116.852 58.8945 121.362 59.4464 121.866L59.4207 121.94ZM47.9126 49.1701C47.9779 48.6946 48.0177 48.2158 48.0316 47.7359C48.0316 47.3303 48.0085 46.9233 47.9687 46.5201C47.9306 46.1342 47.5512 45.4932 47.1691 45.4932C46.84 45.4932 45.5406 45.9188 45.5406 46.9345C45.5406 47.2237 45.6398 47.3317 45.6398 47.5126C45.6401 47.5602 45.6312 47.6074 45.6136 47.6516C45.5961 47.6957 45.5701 47.7359 45.5373 47.7698C45.5045 47.8037 45.4654 47.8307 45.4223 47.8492C45.3793 47.8678 45.333 47.8775 45.2863 47.8778L45.2679 47.8775C44.781 47.8775 44.7259 47.1042 44.7259 46.9397C44.7259 45.1754 46.622 44.5847 47.1999 44.5847C48.0427 44.5847 48.9448 45.5551 48.9448 47.4031C48.9448 48.1452 48.8118 48.406 48.8118 49.1878C48.8118 50.0254 48.9581 50.4163 48.9581 50.6381C48.9581 50.9904 48.7337 51.1156 48.5578 51.1156C48.0041 51.116 48.0408 50.3997 47.9126 49.1701ZM103.007 41.6815C105.136 41.6833 105.217 43.4741 105.217 43.5413C105.217 44.7922 103.637 46.1841 103.2 46.5771C102.529 47.1806 102.706 47.8271 102.187 47.8271C102.134 47.8268 102.081 47.8159 102.031 47.7947C101.982 47.7736 101.937 47.7428 101.899 47.704C101.861 47.6653 101.831 47.6193 101.811 47.5687C101.791 47.5182 101.78 47.4641 101.781 47.4095C101.781 47.4039 101.781 47.3984 101.781 47.3928C101.781 46.0413 104.328 44.8873 104.328 43.5319C104.328 43.5016 104.283 42.5443 102.978 42.5443C102.09 42.5443 102.082 42.9521 101.786 42.9521C101.683 42.9475 101.585 42.9039 101.511 42.8298C101.437 42.7558 101.393 42.6565 101.387 42.5512C101.387 42.3571 101.795 41.715 103.007 41.6814V41.6815ZM69.5853 29.9571C69.5732 30.5707 69.4355 31.1751 69.1809 31.7314C68.1444 33.9439 68.1918 34.2583 67.7948 34.2583C67.7401 34.2587 67.6859 34.2482 67.6352 34.2274C67.5845 34.2065 67.5384 34.1757 67.4994 34.1367C67.4604 34.0976 67.4293 34.0511 67.408 33.9999C67.3866 33.9486 67.3754 33.8936 67.3749 33.8379V33.8268C67.3749 33.1545 68.6818 31.2707 68.6818 30.0841C68.6818 28.8919 68.1229 28.8699 67.9773 28.8699H67.9624C67.9044 28.8703 67.8465 28.8749 67.7892 28.8838C66.5653 29.0671 67.0216 29.6696 66.5034 29.6696C66.3913 29.6663 66.2847 29.6192 66.2056 29.5382C66.1264 29.4572 66.0808 29.3484 66.0781 29.2342C66.0781 28.8703 66.7896 28.0039 67.9673 28.0039C69.4193 28.0036 69.4603 29.3482 69.5853 29.9571ZM26.1037 56.4754C26.2631 59.4895 26.2704 59.6125 26.2704 59.655V59.668C26.2704 59.9014 26.1684 60.2051 25.8302 60.2051C25.7283 60.2051 25.6296 60.1687 25.5514 60.1022C25.4731 60.0357 25.4203 59.9433 25.402 59.8412C25.3731 59.7269 25.0631 53.3001 25.0631 53.1991V53.1521C25.0631 53.0014 25.0883 52.6039 25.4996 52.6039C26.0411 52.6037 25.9396 52.9912 26.1037 56.4754ZM101.703 50.26C101.569 50.2655 101.439 50.2166 101.34 50.1241C101.242 50.0316 101.184 49.9031 101.178 49.7669L101.178 49.7556C101.176 49.6514 101.214 49.5505 101.283 49.4738C101.352 49.397 101.448 49.3504 101.55 49.3436C101.625 49.3457 101.698 49.3686 101.761 49.4098C101.899 49.4938 102.142 49.6083 102.142 49.8568C102.141 49.9104 102.13 49.9634 102.11 50.0127C102.09 50.0621 102.06 50.1069 102.022 50.1445C101.985 50.1821 101.94 50.2118 101.892 50.232C101.843 50.2521 101.791 50.2623 101.738 50.2619C101.726 50.2618 101.715 50.2612 101.703 50.26ZM68.5265 35.4338C68.5192 35.5505 68.4667 35.6596 68.3806 35.7371C68.2945 35.8146 68.1818 35.8542 68.0672 35.8472C67.9665 35.8537 67.8674 35.8192 67.7917 35.7513C67.716 35.6834 67.6698 35.5876 67.6635 35.485C67.6627 35.4725 67.6625 35.4599 67.6629 35.4474C67.661 35.3948 67.6693 35.3422 67.6873 35.2928C67.7053 35.2434 67.7327 35.1981 67.7679 35.1595C67.8031 35.1208 67.8454 35.0896 67.8924 35.0677C67.9394 35.0457 67.9903 35.0334 68.042 35.0314C68.0533 35.031 68.0648 35.031 68.0763 35.0314C68.1675 35.0314 68.5265 35.0777 68.5265 35.4338ZM49.1269 52.3254C49.1339 52.2102 49.1857 52.1026 49.2706 52.0261C49.3556 51.9497 49.4669 51.9108 49.5801 51.9179C49.6824 51.9111 49.7833 51.9459 49.8604 52.0148C49.9376 52.0837 49.9847 52.181 49.9914 52.2852C49.9919 52.2926 49.9921 52.3001 49.9923 52.3076C49.9923 52.6651 49.6314 52.7112 49.5391 52.7112C49.4865 52.7162 49.4336 52.7099 49.3836 52.6927C49.3336 52.6756 49.2877 52.6479 49.2488 52.6116C49.21 52.5752 49.1791 52.531 49.1581 52.4817C49.137 52.4324 49.1264 52.3792 49.1269 52.3254ZM90.1951 58.8236C89.8192 59.0956 89.6968 59.2097 89.4847 59.2097C89.4179 59.2094 89.3518 59.1958 89.2901 59.1695C89.2285 59.1433 89.1725 59.1049 89.1255 59.0566C89.0784 59.0083 89.0411 58.9511 89.0158 58.8881C88.9904 58.8251 88.9775 58.7577 88.9777 58.6897C88.9779 58.6735 88.9787 58.6573 88.9803 58.6411C88.9803 52.7009 89.2695 52.3832 89.5199 52.3832C89.55 52.3832 89.5795 52.3877 89.6079 52.3877H89.6147C89.6657 52.3877 89.9872 52.4019 89.9872 52.8496C89.9872 52.8659 89.8898 57.5251 89.8898 57.7233V57.9033C89.9564 57.9033 90.0141 57.9045 90.0684 57.9045C90.1534 57.9045 90.1608 57.9016 90.2096 57.9016C91.1155 57.9016 91.1992 59.0717 91.1992 60.1618C91.1992 60.4085 91.1949 60.6513 91.1949 60.8753C91.1996 60.9965 91.1568 61.1146 91.076 61.2036C90.9952 61.2926 90.8829 61.3453 90.764 61.3501L90.7572 61.3505C90.0629 61.3505 90.4426 60.3068 90.1951 58.8236ZM72.2975 69.4809C72.2425 69.4849 72.1872 69.4779 72.1349 69.4601C72.0826 69.4424 72.0342 69.4144 71.9925 69.3776C71.9508 69.3409 71.9166 69.2961 71.8919 69.2459C71.8672 69.1956 71.8525 69.141 71.8485 69.0849C71.8479 69.0751 71.8475 69.0652 71.8475 69.0553C71.8475 67.8704 73.7069 66.5454 74.5577 66.5454C74.6704 66.5432 74.7794 66.5867 74.8607 66.6663C74.942 66.7459 74.9889 66.8551 74.9911 66.9699C74.9914 66.9768 74.9914 66.9835 74.9911 66.9902C74.9911 67.4367 74.4165 67.4459 73.9306 67.714C72.4293 68.5421 72.9281 69.4809 72.2975 69.4809ZM73.26 56.3504C70.9884 56.2091 70.6572 54.644 70.6572 54.5588C70.6616 54.4423 70.7101 54.3321 70.7926 54.2514C70.8751 54.1706 70.9851 54.1255 71.0995 54.1256C71.6534 54.1256 71.6384 55.4188 73.1818 55.4188C73.4414 55.4188 73.5307 55.3824 73.6581 55.3824C73.7167 55.3771 73.7758 55.3845 73.8315 55.404C73.8872 55.4235 73.9382 55.4546 73.9813 55.4955C74.0245 55.5363 74.0587 55.5859 74.0818 55.641C74.105 55.6961 74.1165 55.7556 74.1157 55.8155C74.1149 56.283 73.5344 56.3005 73.26 56.3504ZM67.1465 54.6326C67.3688 54.6326 67.5377 54.8256 67.5377 55.136V55.1533C67.4815 55.2647 67.4076 55.366 67.3191 55.4531C65.2228 57.0935 65.1552 57.1137 64.9802 57.1137H64.9666C64.8581 57.106 64.7561 57.0582 64.6798 56.9793C64.6035 56.9004 64.5581 56.7958 64.5522 56.6852C64.5522 56.471 64.7893 56.2704 64.8227 56.2448C66.9025 54.6414 66.9127 54.6326 67.1465 54.6326ZM71.6287 61.1169C71.6287 61.1961 71.6323 61.2515 71.6323 61.2976C71.6376 61.4147 71.5971 61.5292 71.5195 61.6158C71.442 61.7024 71.3339 61.7541 71.2189 61.7596C71.2096 61.7599 71.2003 61.76 71.191 61.7599C71.0976 61.7664 71.0051 61.737 70.9319 61.6775C70.8587 61.6179 70.8101 61.5326 70.7957 61.4383C70.7241 60.947 70.6787 60.4521 70.6596 59.9558C70.6678 59.8499 70.716 59.7515 70.7941 59.6811C70.8721 59.6107 70.9739 59.5739 71.0781 59.5784C71.577 59.5784 71.5187 60.1164 71.6287 61.1169ZM66.4626 61.298C66.4626 61.1479 66.457 61.0207 66.457 60.9036C66.457 60.8987 66.4548 60.8727 66.4548 60.8343C66.4548 60.6783 66.4907 60.3176 66.8523 60.3176C66.9469 60.3136 67.0393 60.3477 67.1093 60.4126C67.1794 60.4774 67.2215 60.5678 67.2266 60.6641C67.3052 61.2943 67.3225 61.868 67.3225 61.9195C67.3256 62.024 67.2877 62.1255 67.2172 62.2016C67.1468 62.2777 67.0496 62.3222 66.9469 62.3253C66.9377 62.3255 66.9285 62.3255 66.9194 62.3251C66.4578 62.326 66.5053 61.7925 66.4626 61.298ZM47.0841 86.713C43.7574 86.7846 43.5626 86.7881 43.5237 86.7881H43.5128C43.0106 86.7881 42.8956 86.5521 42.8956 86.3365C42.8956 86.3039 42.8936 86.2729 42.8936 86.2435C42.8936 85.8874 43.1788 85.7583 50.6509 85.7583C51.2358 85.7583 51.255 86.1341 51.255 86.1955V86.2034C51.255 86.7955 50.794 86.6477 47.0851 86.7267L47.0841 86.713Z" fill="#333333"/>
</g>
<defs>
<clipPath id="clip0_1909_12479">
<rect width="135" height="124" fill="white" transform="translate(0.5)"/>
</clipPath>
</defs>
</svg>
