<svg width="33" height="32" viewBox="0 0 33 32" fill="none" xmlns="http://www.w3.org/2000/svg">
<path d="M0.5 16C0.5 7.16344 7.66344 0 16.5 0C25.3366 0 32.5 7.16344 32.5 16C32.5 24.8366 25.3366 32 16.5 32C7.66344 32 0.5 24.8366 0.5 16Z" fill="white"/>
<path d="M16.5018 10.2756C18.2544 10.2756 19.4367 11.0327 20.1107 11.6653L22.7448 9.09342C21.127 7.58971 19.0218 6.66675 16.5018 6.66675C12.8515 6.66675 9.69888 8.76156 8.16406 11.8105L11.1818 14.1542C11.9389 11.9038 14.0337 10.2756 16.5018 10.2756V10.2756Z" fill="#EA4335"/>
<path d="M25.46 16.2077C25.46 15.4403 25.3978 14.8803 25.263 14.2996H16.5V17.7633H21.6437C21.54 18.624 20.98 19.9203 19.7356 20.7914L22.6807 23.0729C24.4437 21.4447 25.46 19.0492 25.46 16.2077V16.2077Z" fill="#4285F4"/>
<path d="M11.1917 17.8459C10.9946 17.2651 10.8806 16.6429 10.8806 15.9999C10.8806 15.357 10.9946 14.7347 11.1813 14.154L8.16352 11.8103C7.53093 13.0755 7.16797 14.4962 7.16797 15.9999C7.16797 17.5036 7.53093 18.9244 8.16352 20.1896L11.1917 17.8459V17.8459Z" fill="#FBBC05"/>
<path d="M16.4993 25.3336C19.0193 25.3336 21.1348 24.504 22.68 23.0729L19.7348 20.7914C18.9467 21.341 17.8889 21.7247 16.4993 21.7247C14.0311 21.7247 11.9363 20.0966 11.1897 17.8462L8.17188 20.1899C9.70669 23.2388 12.8489 25.3336 16.4993 25.3336V25.3336Z" fill="#34A853"/>
</svg>
