<svg width="32" height="32" viewBox="0 0 32 32" fill="none" xmlns="http://www.w3.org/2000/svg">
<rect width="32" height="32" rx="16" fill="white"/>
<path d="M24.7947 25.3985C27.7997 22.5842 29.1352 17.8938 28.3339 13.4043H16.3809V18.3628H23.192C22.925 19.9709 21.99 21.311 20.6546 22.1822L24.7947 25.3985Z" fill="#4285F4"/>
<path d="M4.94922 21.3671C5.05919 21.5829 5.17514 21.7954 5.29707 22.0047C5.41909 22.2141 5.5469 22.4197 5.68049 22.6218C5.81418 22.8238 5.95337 23.022 6.09827 23.2162C6.24316 23.4105 6.39337 23.6004 6.54909 23.7863C6.70472 23.972 6.86548 24.1533 7.03147 24.33C7.19737 24.5067 7.36821 24.6785 7.54391 24.8457C7.71961 25.0127 7.89988 25.1747 8.08473 25.3317C8.26958 25.4886 8.45872 25.6401 8.65225 25.7864C8.84569 25.9327 9.04314 26.0734 9.24461 26.2085C9.44608 26.3436 9.65118 26.473 9.86002 26.5965C10.0688 26.7201 10.2809 26.8377 10.4964 26.9494C10.7118 27.061 10.9303 27.1665 11.1517 27.2658C11.3732 27.3651 11.5972 27.4581 11.824 27.5447C12.0507 27.6315 12.2797 27.7117 12.5109 27.7855C12.7422 27.8593 12.9754 27.9265 13.2104 27.9871C13.4455 28.0478 13.6821 28.1017 13.9202 28.1491C14.1584 28.1964 14.3977 28.2369 14.6382 28.2708C14.8786 28.3046 15.1198 28.3317 15.3618 28.3519C15.6038 28.3721 15.8461 28.3856 16.0889 28.3921C16.3316 28.3987 16.5743 28.3984 16.817 28.3913C17.0598 28.3843 17.302 28.3703 17.544 28.3495C17.7859 28.3288 18.0271 28.3012 18.2675 28.2669C18.5078 28.2326 18.747 28.1914 18.9851 28.1436C19.2232 28.0958 19.4596 28.0414 19.6945 27.9802C19.9295 27.9191 20.1625 27.8513 20.3937 27.7771C20.6247 27.7028 20.8536 27.6221 21.0801 27.5349C21.3066 27.4477 21.5305 27.3543 21.7517 27.2544C21.973 27.1547 22.1912 27.0488 22.4064 26.9366C22.6217 26.8246 22.8335 26.7065 23.042 26.5825C23.2505 26.4584 23.4553 26.3286 23.6565 26.1932C23.8577 26.0576 24.0549 25.9164 24.248 25.7698C24.4412 25.6231 24.6301 25.4711 24.8145 25.3138L20.6536 22.103C17.0967 24.4442 11.1907 23.5746 9.1773 18.0894L4.94922 21.3671Z" fill="#34A853"/>
<path d="M9.25898 18.1869C8.71682 16.5155 8.71682 14.9779 9.25898 13.3066L4.98946 10.0308C3.43076 13.1061 2.95638 17.4515 4.98946 21.4627L9.25898 18.1869Z" fill="#FBBC02"/>
<path d="M9.16306 13.2167C10.6346 8.59325 16.9219 5.913 21.1358 9.86632L24.8145 6.248C19.5974 1.22258 9.43065 1.42354 4.94922 9.93333L9.16306 13.2167Z" fill="#EA4335"/>
</svg>
