<svg width="40" height="41" viewBox="0 0 40 41" fill="none" xmlns="http://www.w3.org/2000/svg">
<path d="M1.90234 26.6517L3.81137 25.5503L30.0975 20.2637L38.1009 24.3755L17.395 36.2703L1.90234 26.6517Z" fill="#111111" stroke="#111111" stroke-width="0.3"/>
<path d="M21.9547 14.0625C15.5702 17.6981 2.73477 24.9959 2.46875 25.1023L17.6319 34.2135L37.5168 22.9077L21.9547 14.0625Z" fill="white" stroke="#111111" stroke-width="0.3"/>
<path d="M22.0211 14.1953L22.4866 25.1686H2.53516" stroke="#111111" stroke-width="0.3"/>
<path d="M17.7656 34.1479L18.4972 25.3027" stroke="#111111" stroke-width="0.3"/>
<path d="M22.4219 22.2422L37.452 22.8407" stroke="#111111" stroke-width="0.3"/>
<path d="M22.5367 11.666C16.1523 15.3016 3.3168 22.5994 3.05078 22.7058L18.2139 31.817L38.0989 20.5112L22.5367 11.666Z" fill="white" stroke="#111111" stroke-width="0.3"/>
<path d="M22.6032 11.7988L23.0687 22.7721H3.11719" stroke="#111111" stroke-width="0.3"/>
<path d="M18.3477 31.7514L19.0792 22.9062" stroke="#111111" stroke-width="0.3"/>
<path d="M23.0039 19.8457L38.034 20.4442" stroke="#111111" stroke-width="0.3"/>
<path d="M23.6463 18.6465L30.9267 5.36423L16.2129 15.9997L23.6463 18.6465Z" fill="white" stroke="#111111" stroke-width="0.3" stroke-linejoin="round"/>
<path d="M12.7874 14.4747L30.9618 5.288L16.3578 16.0823L13.09 21.5978L12.7874 14.4747Z" fill="#111111" stroke="#111111" stroke-width="0.3" stroke-linejoin="round"/>
<path d="M18.5448 16.8627L13.1103 21.6208L16.391 16.041L18.5448 16.8627Z" fill="white" stroke="#111111" stroke-width="0.3" stroke-linejoin="round"/>
<path d="M12.8026 14.4986L6.49511 12.3895L30.9506 5.27347L12.8026 14.4986Z" fill="white" stroke="#111111" stroke-width="0.3" stroke-linejoin="round"/>
</svg>
