<svg width="200" height="112" viewBox="0 0 200 112" fill="none" xmlns="http://www.w3.org/2000/svg">
<path d="M45.839 1L0.436035 16.7656L48.1795 30.1168L95.1901 14.813L45.839 1Z" fill="#A93535" stroke="black" stroke-width="0.5" stroke-linejoin="round"/>
<path d="M0.436035 16.75L0.436032 84.0272" stroke="black" stroke-width="0.5"/>
<path d="M48.1626 30.1602V65.6644" stroke="black" stroke-width="0.5"/>
<path d="M95.1899 14.8066V49.3067" stroke="black" stroke-width="0.5"/>
<path d="M199.561 54.6875L199.561 83.5996" stroke="black" stroke-width="0.5"/>
<path d="M48.1626 66.5418L48.1635 30.2331L95.1899 15.0312V20.5605C85.8497 23.925 67.9121 28.5854 60.576 35.5806C53.053 42.7542 53.2331 56.6792 52.8219 64.6344L48.1626 66.5418Z" fill="#E9E9E9" stroke="black" stroke-width="0.5"/>
<path d="M42.0601 67.4375L42.1275 67.1968C42.0521 67.1757 41.9713 67.191 41.909 67.2383C41.8467 67.2856 41.8101 67.3593 41.8101 67.4375H42.0601ZM122.562 89.9753H122.812V89.7857L122.629 89.7346L122.562 89.9753ZM41.8101 67.4375V99.9287H42.3101V67.4375H41.8101ZM41.9927 67.6782L122.495 90.2161L122.629 89.7346L42.1275 67.1968L41.9927 67.6782ZM122.312 89.9753V111.303H122.812V89.9753H122.312Z" fill="black"/>
<path d="M124.221 35.2832L42.064 67.3986L122.526 89.9759L199.564 54.6747L124.221 35.2832Z" fill="#A93535" stroke="black" stroke-width="0.5" stroke-linejoin="round"/>
<path d="M104.181 62.2181C103.274 66.5619 102.776 71.3294 102.603 74.5409L59.1323 60.8251C59.3699 54.3243 61.3517 41.2157 67.3785 40.7871C72.8889 41.7362 99.131 49.517 109.831 51.718C110.004 51.7535 110.174 51.7889 110.34 51.8241C111.213 52.0083 111.925 52.4637 112.524 53.1099L113.293 52.1455L139.558 63.2896C129.619 68.5574 128.234 70.486 124.084 69.7868C122.796 69.5698 121.614 69.0998 120.432 68.398L104.181 62.2181Z" fill="white"/>
<path d="M110.34 51.8241C105.23 50.7448 103.01 66.9686 102.603 74.5409L59.1323 60.8251C59.3699 54.3243 61.3517 41.2157 67.3785 40.7871C72.8889 41.7362 99.131 49.517 109.831 51.718M110.34 51.8241C110.174 51.7889 110.004 51.7535 109.831 51.718M110.34 51.8241C111.213 52.0083 111.925 52.4637 112.524 53.1099M124.084 69.7868C122.24 69.4762 120.614 68.647 118.892 67.3615C115.653 64.9438 115.627 56.461 112.524 53.1099M124.084 69.7868C128.234 70.486 129.619 68.5574 139.558 63.2896L113.293 52.1455L112.524 53.1099M124.084 69.7868L104.181 62.2181C105.019 58.7891 106.574 51.718 109.831 51.718" stroke="black" stroke-width="0.5"/>
<path d="M143.123 66.2898C159.148 66.2898 172.138 62.4998 172.138 57.8246C172.138 53.1494 159.148 49.3594 143.123 49.3594C127.099 49.3594 114.109 53.1494 114.109 57.8246C114.109 62.4998 127.099 66.2898 143.123 66.2898Z" fill="black"/>
<path d="M118.485 66.6112C114.168 65.6682 111.596 60.4319 110.849 57.9316L132.228 66.0754C129.446 66.6469 122.801 67.5541 118.485 66.6112Z" fill="black"/>
<path d="M101.975 41.0364H101.977V40.7864C101.977 26.5756 113.495 15.0566 127.704 15.0566C141.913 15.0566 153.431 26.5756 153.431 40.7864C153.431 40.832 153.432 40.887 153.432 40.9511C153.441 42.0638 153.472 45.8997 151.594 50.3503L151.594 50.3504C147.954 58.9887 138.676 66.5818 127.703 66.5161C114.704 66.4393 102.118 55.6376 101.975 41.0364Z" fill="white" stroke="black" stroke-width="0.5"/>
<path opacity="0.1" d="M121.214 61.2896C120.227 60.337 132.919 61.683 140.591 52.881C148.263 44.079 147.435 35.4294 148.425 36.3849C149.412 37.3375 152 48.0532 144.328 56.8552C136.656 65.6572 122.204 62.2451 121.214 61.2896Z" fill="#7B0000"/>
<path d="M104.181 62.2181C103.274 66.5619 102.776 71.3294 102.603 74.5409L59.1323 60.8251C59.3699 54.3243 61.3517 41.2157 67.3785 40.7871C72.8889 41.7362 99.131 49.517 109.831 51.718C110.004 51.7535 110.174 51.7889 110.34 51.8241C111.562 52.0709 112.305 52.7842 112.524 53.1099C115.627 56.4609 115.653 64.9438 118.892 67.3615C119.338 67.6942 119.777 67.9964 120.215 68.2669L104.181 62.2181Z" fill="white"/>
<path d="M110.34 51.8241C105.23 50.7448 103.01 66.9686 102.603 74.5409L59.1323 60.8251C59.3699 54.3243 61.3517 41.2157 67.3785 40.7871C72.8889 41.7362 99.131 49.517 109.831 51.718M110.34 51.8241C110.174 51.7889 110.004 51.7535 109.831 51.718M110.34 51.8241C111.562 52.0709 112.305 52.7842 112.524 53.1099C115.627 56.461 115.653 64.9438 118.892 67.3615C119.338 67.6942 119.777 67.9964 120.215 68.2669M124.084 69.7868C122.717 69.5566 121.471 69.0415 120.215 68.2669M109.831 51.718C106.574 51.718 105.019 58.7891 104.181 62.2181L120.215 68.2669" stroke="black" stroke-width="0.5"/>
<path d="M122.609 111.288V89.9458L199.375 54.8359V60.2828C186.691 67.7516 160.541 78.5589 144.71 88.7553C136.287 94.1807 132.918 101.678 132.918 105.504L122.609 111.288Z" fill="#E9E9E9" stroke="black" stroke-width="0.5"/>
</svg>
