<svg width="32" height="32" viewBox="0 0 32 32" fill="none" xmlns="http://www.w3.org/2000/svg">
<circle cx="16" cy="16" r="16" fill="#FEE500"/>
<path d="M16.0471 7.72217C11.0692 7.72217 7.05469 10.9337 7.05469 14.8326C7.05469 17.3633 8.7247 19.5792 11.2297 20.8446L10.3819 24.0112C10.3659 24.0587 10.3634 24.1096 10.3748 24.1584C10.3861 24.2072 10.4108 24.2519 10.4461 24.2874C10.4976 24.3328 10.5638 24.3579 10.6324 24.358C10.6893 24.3535 10.7432 24.331 10.7865 24.2938L14.4349 21.8338C14.9734 21.9081 15.5163 21.9467 16.0599 21.9494C21.0314 21.9494 25.0523 18.7378 25.0523 14.8326C25.0523 10.9273 21.0186 7.72217 16.0471 7.72217Z" fill="#392020"/>
<path d="M10.2012 13.7084H9.21849C9.09669 13.7119 8.97639 13.6807 8.87164 13.6184C8.82514 13.5893 8.78516 13.5509 8.75421 13.5055C8.72326 13.4602 8.70201 13.409 8.69179 13.3551C8.68867 13.3209 8.68867 13.2865 8.69179 13.2524C8.68874 13.1884 8.70116 13.1246 8.72799 13.0665C8.75483 13.0083 8.79529 12.9575 8.84595 12.9183C8.95793 12.8372 9.09309 12.7944 9.23134 12.7963H12.1924C12.3152 12.792 12.4363 12.8256 12.5393 12.8926C12.5869 12.9205 12.6277 12.9586 12.6588 13.0041C12.6899 13.0497 12.7105 13.1015 12.7191 13.156C12.7222 13.188 12.7222 13.2203 12.7191 13.2524C12.7221 13.3173 12.7097 13.3819 12.6829 13.4411C12.6561 13.5003 12.6157 13.5522 12.5649 13.5927C12.4557 13.6737 12.3218 13.7146 12.186 13.7084H11.2354V17.087C11.2392 17.1589 11.2281 17.2309 11.2026 17.2983C11.1772 17.3658 11.138 17.4273 11.0876 17.4788C11.0393 17.528 10.9811 17.5666 10.917 17.5921C10.8528 17.6175 10.784 17.6292 10.7151 17.6265C10.5945 17.6299 10.4764 17.5914 10.3811 17.5173C10.2903 17.445 10.2288 17.3423 10.2077 17.2283C10.2013 17.1814 10.2013 17.1338 10.2077 17.087L10.2012 13.7084Z" fill="#FEE500"/>
<path d="M13.0031 13.0468C13.0314 12.9411 13.0977 12.8495 13.1894 12.7898C13.2871 12.7345 13.3984 12.7078 13.5106 12.7128H13.7546C13.8737 12.7085 13.9915 12.7374 14.0951 12.7963C14.2048 12.87 14.2827 12.9824 14.3135 13.111L15.5981 16.7401C15.6314 16.8348 15.6593 16.9313 15.6816 17.0292C15.6838 17.0698 15.6838 17.1105 15.6816 17.1512C15.6838 17.2138 15.6722 17.2761 15.6478 17.3338C15.6234 17.3915 15.5867 17.4431 15.5403 17.4852C15.4953 17.5313 15.4412 17.5677 15.3816 17.592C15.3219 17.6163 15.2578 17.628 15.1934 17.6265C15.0944 17.6363 14.9949 17.6126 14.911 17.559C14.8271 17.5054 14.7637 17.4251 14.731 17.331L14.4612 16.541H12.7719L12.5021 17.331C12.4702 17.4269 12.406 17.5088 12.3205 17.5626C12.235 17.6165 12.1335 17.6391 12.0332 17.6265C11.9246 17.6293 11.8182 17.5953 11.7314 17.5301C11.6467 17.4628 11.5896 17.3669 11.5708 17.2604C11.5674 17.2241 11.5674 17.1875 11.5708 17.1512C11.5597 17.0874 11.5597 17.0223 11.5708 16.9585C11.5708 16.8879 11.6157 16.8107 11.6414 16.7401L13.0031 13.0468ZM13.6454 13.8882L13.0352 15.8152H14.2492L13.6454 13.8882Z" fill="#FEE500"/>
<path d="M15.8287 13.2525C15.8222 13.1084 15.873 12.9675 15.97 12.8607C16.0193 12.811 16.0785 12.7721 16.1438 12.7467C16.2091 12.7212 16.279 12.7097 16.349 12.7129C16.4693 12.7115 16.5867 12.7499 16.683 12.8222C16.7722 12.8975 16.8314 13.0023 16.85 13.1176C16.8563 13.1623 16.8563 13.2078 16.85 13.2525V16.6311H18.6163C18.7388 16.6295 18.8591 16.6629 18.9632 16.7274C19.0099 16.7562 19.0501 16.7946 19.0811 16.84C19.1121 16.8854 19.1332 16.9367 19.143 16.9908C19.143 16.9908 19.143 17.055 19.143 17.0871C19.1461 17.1511 19.1337 17.2148 19.1068 17.273C19.08 17.3311 19.0395 17.382 18.9889 17.4212C18.8769 17.5022 18.7417 17.545 18.6035 17.5432H16.4325C16.2942 17.5521 16.1567 17.5161 16.0406 17.4404C15.9368 17.3628 15.8676 17.2475 15.848 17.1193C15.8432 17.0487 15.8432 16.9778 15.848 16.9073L15.8287 13.2525Z" fill="#FEE500"/>
<path d="M19.2581 13.2526C19.2543 13.1088 19.3048 12.969 19.3995 12.8608C19.4957 12.7733 19.6192 12.7216 19.7491 12.7146C19.879 12.7076 20.0073 12.7456 20.1124 12.8222C20.2036 12.8969 20.2651 13.0016 20.2858 13.1176C20.289 13.1625 20.289 13.2077 20.2858 13.2526V14.8262L21.9109 12.9506C21.9735 12.8866 22.04 12.8266 22.11 12.7708C22.176 12.7315 22.2516 12.7115 22.3284 12.713C22.4407 12.7124 22.5505 12.746 22.6431 12.8093C22.6868 12.8387 22.7241 12.8767 22.7528 12.9208C22.7815 12.965 22.801 13.0144 22.8101 13.0663C22.8127 13.079 22.8127 13.0921 22.8101 13.1048C22.807 13.1197 22.807 13.135 22.8101 13.1498C22.8099 13.2174 22.7922 13.2838 22.7588 13.3425C22.7247 13.4047 22.6837 13.4628 22.6367 13.5159L21.5705 14.6849L22.8551 16.6761V16.7403C22.9218 16.8323 22.9738 16.9342 23.0093 17.0422V17.0743C23.0167 17.1487 23.006 17.2239 22.978 17.2932C22.95 17.3626 22.9056 17.4241 22.8487 17.4725C22.7415 17.5535 22.6104 17.5965 22.4761 17.5946C22.3869 17.5983 22.2983 17.5783 22.2192 17.5368C22.1337 17.4794 22.0632 17.4023 22.0137 17.312L20.819 15.385L20.2473 15.9824V17.055C20.2512 17.1987 20.2007 17.3386 20.106 17.4468C20.0552 17.4964 19.9949 17.5352 19.9286 17.5606C19.8623 17.586 19.7915 17.5976 19.7206 17.5946C19.6021 17.5971 19.4864 17.5585 19.393 17.4854C19.3023 17.4131 19.2407 17.3105 19.2196 17.1964C19.2133 17.1495 19.2133 17.1019 19.2196 17.055L19.2581 13.2526Z" fill="#FEE500"/>
</svg>
