<svg width="32" height="32" viewBox="0 0 32 32" fill="none" xmlns="http://www.w3.org/2000/svg">
<path d="M24.9483 7.70996H5.05168C4.83181 7.70996 4.62095 7.7973 4.46547 7.95278C4.31 8.10825 4.22266 8.31912 4.22266 8.53899V22.6324C4.22266 23.0722 4.39734 23.4939 4.70829 23.8049C5.01923 24.1158 5.44097 24.2905 5.88071 24.2905H24.1193C24.559 24.2905 24.9808 24.1158 25.2917 23.8049C25.6027 23.4939 25.7773 23.0722 25.7773 22.6324V8.53899C25.7773 8.31912 25.69 8.10825 25.5345 7.95278C25.3791 7.7973 25.1682 7.70996 24.9483 7.70996ZM24.1193 22.6324H5.88071V10.425L14.4404 18.2697C14.5932 18.4095 14.7929 18.487 15 18.487C15.2071 18.487 15.4068 18.4095 15.5596 18.2697L24.1193 10.425V22.6324Z" fill="#333333"/>
<path d="M19.9877 14.4455L19.996 14.4453L20.0044 14.4453L25.1236 14.4527L24.072 13.4011C23.7828 13.1119 23.6203 12.7196 23.6203 12.3106C23.6203 11.9015 23.7828 11.5093 24.072 11.22C24.3612 10.9308 24.7535 10.7683 25.1625 10.7683C25.5715 10.7683 25.9638 10.9308 26.2531 11.22L29.938 14.905C30.2272 15.1942 30.3897 15.5865 30.3897 15.9955C30.3897 16.4045 30.2272 16.7968 29.938 17.086L26.2531 20.7709C25.9638 21.0602 25.5715 21.2227 25.1625 21.2227C24.7535 21.2227 24.3612 21.0602 24.072 20.7709C23.7828 20.4817 23.6203 20.0894 23.6203 19.6804C23.6203 19.2714 23.7828 18.8791 24.072 18.5899L25.1236 17.5382L20.0044 17.5457L20.0044 17.5457L20.0012 17.5457C19.5913 17.5437 19.1988 17.38 18.9089 17.0902C18.6191 16.8003 18.4554 16.4078 18.4534 15.9979L18.4534 15.9887L18.4537 15.9795C18.4665 15.5787 18.6286 15.1972 18.9083 14.9098L18.9082 14.9097L18.9179 14.9002C19.2053 14.6205 19.5869 14.4584 19.9877 14.4455Z" fill="#333333" stroke="white"/>
</svg>
