<svg width="32" height="32" viewBox="0 0 32 32" fill="none" xmlns="http://www.w3.org/2000/svg">
<path d="M24.9483 7.70996H5.05168C4.83181 7.70996 4.62095 7.7973 4.46547 7.95278C4.31 8.10825 4.22266 8.31912 4.22266 8.53899V22.6324C4.22266 23.0722 4.39734 23.4939 4.70829 23.8049C5.01923 24.1158 5.44097 24.2905 5.88071 24.2905H24.1193C24.559 24.2905 24.9808 24.1158 25.2917 23.8049C25.6027 23.4939 25.7773 23.0722 25.7773 22.6324V8.53899C25.7773 8.31912 25.69 8.10825 25.5345 7.95278C25.3791 7.7973 25.1682 7.70996 24.9483 7.70996ZM24.1193 22.6324H5.88071V10.425L14.4404 18.2697C14.5932 18.4095 14.7929 18.487 15 18.487C15.2071 18.487 15.4068 18.4095 15.5596 18.2697L24.1193 10.425V22.6324Z" fill="#B0D1D8"/>
<path d="M29.974 14.4455L29.9657 14.4453L29.9573 14.4453L24.8381 14.4527L25.8897 13.4011C26.1789 13.1119 26.3414 12.7196 26.3414 12.3106C26.3414 11.9015 26.1789 11.5093 25.8897 11.22C25.6005 10.9308 25.2082 10.7683 24.7992 10.7683C24.3901 10.7683 23.9978 10.9308 23.7086 11.22L20.0237 14.905C19.7345 15.1942 19.572 15.5865 19.572 15.9955C19.572 16.4045 19.7345 16.7968 20.0237 17.086L23.7086 20.7709C23.9978 21.0602 24.3901 21.2227 24.7992 21.2227C25.2082 21.2227 25.6005 21.0602 25.8897 20.7709C26.1789 20.4817 26.3414 20.0894 26.3414 19.6804C26.3414 19.2714 26.1789 18.8791 25.8897 18.5899L24.8381 17.5382L29.9573 17.5457L29.9573 17.5457L29.9604 17.5457C30.3703 17.5437 30.7629 17.38 31.0527 17.0902C31.3426 16.8003 31.5063 16.4078 31.5082 15.9979L31.5083 15.9887L31.508 15.9795C31.4952 15.5787 31.333 15.1972 31.0533 14.9098L31.0535 14.9097L31.0437 14.9002C30.7564 14.6205 30.3748 14.4584 29.974 14.4455Z" fill="#B0D1D8" stroke="white"/>
</svg>
