<svg width="32" height="32" viewBox="0 0 32 32" fill="none" xmlns="http://www.w3.org/2000/svg">
<path d="M30.4 28.7398C30.4 27.8561 31.1163 27.1398 32 27.1398V26.0932C31.1163 26.0932 30.4 25.3769 30.4 24.4932C30.4 23.6095 31.1163 22.8932 32 22.8932V21.8466C31.1163 21.8466 30.4 21.1303 30.4 20.2466C30.4 19.3629 31.1163 18.6466 32 18.6466V17.6C31.1163 17.6 30.4 16.8837 30.4 16C30.4 15.1163 31.1163 14.4 32 14.4V13.3534C31.1163 13.3534 30.4 12.6371 30.4 11.7534C30.4 10.8697 31.1163 10.1534 32 10.1534V9.1068C31.1163 9.1068 30.4 8.39055 30.4 7.5068C30.4 6.62306 31.1163 5.9068 32 5.9068V4.8602C31.1163 4.8602 30.4 4.14395 30.4 3.2602C30.4 2.37646 31.1163 1.6602 32 1.6602V0H30.3398C30.3398 0.883743 29.6235 1.6 28.7398 1.6C27.8561 1.6 27.1398 0.883743 27.1398 0H26.0932C26.0932 0.883743 25.3769 1.6 24.4932 1.6C23.6095 1.6 22.8932 0.883743 22.8932 0H21.8466C21.8466 0.883743 21.1303 1.6 20.2466 1.6C19.3629 1.6 18.6466 0.883743 18.6466 0H17.6C17.6 0.883743 16.8837 1.6 16 1.6C15.1163 1.6 14.4 0.883743 14.4 0H13.3534C13.3534 0.883743 12.6371 1.6 11.7534 1.6C10.8697 1.6 10.1534 0.883743 10.1534 0H9.1068C9.1068 0.883743 8.39055 1.6 7.5068 1.6C6.62306 1.6 5.9068 0.883743 5.9068 0H4.8602C4.8602 0.883743 4.14395 1.6 3.2602 1.6C2.37646 1.6 1.6602 0.883743 1.6602 0H0V1.6602C0.883743 1.6602 1.6 2.37646 1.6 3.2602C1.6 4.14395 0.883743 4.8602 0 4.8602V5.9068C0.883743 5.9068 1.6 6.62306 1.6 7.5068C1.6 8.39055 0.883743 9.1068 0 9.1068V10.1534C0.883743 10.1534 1.6 10.8697 1.6 11.7534C1.6 12.6371 0.883743 13.3534 0 13.3534V14.4C0.883743 14.4 1.6 15.1163 1.6 16C1.6 16.8837 0.883743 17.6 0 17.6V18.6466C0.883743 18.6466 1.6 19.3629 1.6 20.2466C1.6 21.1303 0.883743 21.8466 0 21.8466V22.8932C0.883743 22.8932 1.6 23.6095 1.6 24.4932C1.6 25.3769 0.883743 26.0932 0 26.0932V27.1398C0.883743 27.1398 1.6 27.8561 1.6 28.7398C1.6 29.6235 0.883743 30.3398 0 30.3398V32H1.6602C1.6602 31.1163 2.37646 30.4 3.2602 30.4C4.14395 30.4 4.8602 31.1163 4.8602 32H5.9068C5.9068 31.1163 6.62306 30.4 7.5068 30.4C8.39055 30.4 9.1068 31.1163 9.1068 32H10.1534C10.1534 31.1163 10.8697 30.4 11.7534 30.4C12.6371 30.4 13.3534 31.1163 13.3534 32H14.4C14.4 31.1163 15.1163 30.4 16 30.4C16.8837 30.4 17.6 31.1163 17.6 32H18.6466C18.6466 31.1163 19.3629 30.4 20.2466 30.4C21.1303 30.4 21.8466 31.1163 21.8466 32H22.8932C22.8932 31.1163 23.6095 30.4 24.4932 30.4C25.3769 30.4 26.0932 31.1163 26.0932 32H27.1398C27.1398 31.1163 27.8561 30.4 28.7398 30.4C29.6235 30.4 30.3398 31.1163 30.3398 32H32V30.3398C31.1163 30.3398 30.4 29.6235 30.4 28.7398Z" fill="#DADADA"/>
<path d="M17.243 22.5847C21.4848 22.5847 24.9234 21.5155 24.9234 20.1966C24.9234 18.8778 21.4848 17.8086 17.243 17.8086C13.0012 17.8086 9.5625 18.8778 9.5625 20.1966C9.5625 21.5155 13.0012 22.5847 17.243 22.5847Z" fill="#999999"/>
<path d="M7.19022 15.384C7.19022 11.5496 10.2984 8.44141 14.1328 8.44141C17.9673 8.44141 21.0754 11.5496 21.0754 15.384C21.0754 15.6086 21.1156 16.6946 20.5791 17.9658C19.5974 20.2951 17.0959 22.3443 14.1321 22.3266C10.6048 22.3058 7.18945 19.3597 7.18945 15.384H7.19022Z" fill="white"/>
<path opacity="0.1" d="M11.9941 21.0063C11.7026 20.7392 15.4495 21.1167 17.7142 18.6481C19.9789 16.1794 19.7345 13.7536 20.0267 14.0216C20.3182 14.2887 21.082 17.2941 18.8172 19.7627C16.5525 22.2313 12.2863 21.2743 11.9941 21.0063Z" fill="#333333"/>
</svg>
