<svg width="149" height="39" viewBox="0 0 149 39" fill="current" xmlns="http://www.w3.org/2000/svg">
<path d="M12.1889 22.998C12.1889 24.7978 12.1511 26.3351 12.0756 27.1975C12.0379 28.1349 11.7736 28.2474 9.92383 28.3224V29.5972C11.0563 29.5972 12.6796 29.4847 14.3784 29.4847C15.8884 29.4847 17.6627 29.5972 18.4932 29.5972L18.682 28.3224C17.0587 28.2099 16.7567 28.0599 16.6812 27.31C16.6434 26.3726 16.6057 25.3227 16.6057 23.7854V18.986C16.6057 18.2736 16.7189 17.8236 16.9832 17.2987C17.7005 15.9864 18.984 15.2364 20.192 15.2364C21.1735 15.2364 21.7775 15.6489 22.0795 16.3988C22.306 16.8862 22.306 17.2612 22.306 19.4359V22.773C22.306 24.9103 22.2305 26.0726 22.1928 27.1975C22.155 28.0599 21.7775 28.2099 20.343 28.3224V29.5972C21.1735 29.5972 22.4948 29.4847 24.3446 29.4847C26.0056 29.4847 27.8176 29.5972 28.6482 29.5972L28.7992 28.3224C27.1381 28.2474 26.8361 28.0599 26.7606 27.31C26.7229 26.4476 26.7229 25.1728 26.7229 23.6729V18.7985C26.7229 18.1986 26.8361 17.7111 27.1004 17.1862C27.7799 16.0238 29.0257 15.2364 30.2337 15.2364C31.253 15.2364 31.8947 15.7239 32.1967 16.4738C32.3855 16.9612 32.4232 17.3362 32.4232 22.4731C32.4232 25.0603 32.3855 26.4476 32.2722 27.3475C32.2345 28.0224 31.8947 28.2474 30.3847 28.3599L30.3469 29.5972C31.3285 29.5972 32.6497 29.4847 34.5373 29.4847C36.3115 29.4847 37.6706 29.5972 38.9918 29.5972L39.0673 28.3599C36.9911 28.1349 36.8401 28.0974 36.8401 27.31V17.4487C36.8401 16.5488 36.6891 15.6489 36.2738 14.899C35.7453 13.9616 34.4995 12.8742 32.4232 12.8742C29.6674 12.8742 27.8176 14.524 26.5341 15.6489C26.3831 15.2364 26.1944 14.7865 25.8546 14.374C25.4016 13.7741 24.4578 12.8742 22.4571 12.8742C19.8145 12.8742 17.927 14.4115 16.6434 15.6114C16.6057 15.049 16.4169 13.6241 16.3414 13.0617C14.3407 13.4367 12.0379 13.5866 9.99933 13.5866L9.96158 14.8615C11.8114 14.8615 12.0379 14.974 12.0756 15.4614C12.1511 16.5113 12.1889 18.0111 12.1889 19.7734V22.998Z" fill="current"/>
<path d="M49.8354 12.8742C44.1728 12.8742 41.266 16.8862 41.266 21.6107C41.266 26.2226 43.7953 30.0097 49.5712 30.0097C54.9695 30.0097 58.0273 26.4476 58.0273 21.3482C58.0273 16.4363 55.0073 12.8742 49.8732 12.8742H49.8354ZM49.6467 14.2241C50.8547 14.2241 51.6475 14.9365 52.176 15.9489C52.7422 17.0362 53.1575 19.0985 53.1575 21.7607C53.1575 24.0479 52.8932 25.8102 52.3647 26.9725C51.874 28.0974 51.0434 28.6598 49.9109 28.6598C48.7407 28.6598 47.8346 28.0224 47.1929 26.7851C46.5889 25.4727 46.2114 23.4105 46.2114 20.8608C46.2114 18.6485 46.5889 16.7738 47.1551 15.7614C47.7214 14.824 48.4387 14.2241 49.6089 14.2241H49.6467Z" fill="current"/>
<path d="M69.5218 12.8742C63.8592 12.8742 60.9524 16.8862 60.9524 21.6107C60.9524 26.2226 63.4817 30.0097 69.2576 30.0097C74.6559 30.0097 77.7137 26.4476 77.7137 21.3482C77.7137 16.4363 74.6937 12.8742 69.5596 12.8742H69.5218ZM69.3331 14.2241C70.5411 14.2241 71.3338 14.9365 71.8624 15.9489C72.4286 17.0362 72.8439 19.0985 72.8439 21.7607C72.8439 24.0479 72.5796 25.8102 72.0511 26.9725C71.5604 28.0974 70.7298 28.6598 69.5973 28.6598C68.427 28.6598 67.521 28.0224 66.8793 26.7851C66.2753 25.4727 65.8978 23.4105 65.8978 20.8608C65.8978 18.6485 66.2753 16.7738 66.8415 15.7614C67.4078 14.824 68.125 14.2241 69.2953 14.2241H69.3331Z" fill="current"/>
<path d="M80.0805 29.5972C81.1753 29.5972 82.6475 29.4847 84.3463 29.4847C85.8564 29.4847 87.8571 29.5972 88.7632 29.5972L88.8009 28.3224C87.1776 28.2099 86.8379 28.0224 86.8001 27.31C86.7246 26.3726 86.7246 24.7978 86.7246 23.4105V18.836C86.7246 18.1236 86.8001 17.5612 87.1021 17.1112C87.8194 15.9489 88.9142 15.2364 90.2354 15.2364C91.2547 15.2364 91.7832 15.6489 92.1985 16.3613C92.4627 16.8862 92.5382 17.2987 92.5005 22.3231C92.5005 25.0228 92.425 26.5601 92.3495 27.2725C92.3117 28.0224 91.9342 28.2474 90.4997 28.3224L90.4619 29.5972C91.3302 29.5972 92.6515 29.4847 94.5768 29.4847C96.351 29.4847 97.7478 29.5972 99.1446 29.5972L99.1823 28.3224C97.106 28.1724 96.9173 28.0974 96.9173 27.31V17.4112C96.9173 16.4363 96.7285 15.6864 96.3888 15.049C95.8225 13.9991 94.5768 12.8742 92.2362 12.8742C89.7069 12.8742 88.0081 14.3366 86.7246 15.5364C86.7246 14.974 86.5736 13.7366 86.4604 13.0617C84.4596 13.3992 82.27 13.5866 80.2315 13.5866L80.1937 14.8615C81.968 14.899 82.1945 15.0115 82.1945 15.4989C82.27 16.5113 82.3078 17.9736 82.3078 19.7734V23.148C82.3078 24.6853 82.27 25.9977 82.1945 27.16C82.119 28.0974 81.8925 28.2474 80.0805 28.3224V29.5972Z" fill="current"/>
<path d="M104.8 5.6001C103.328 5.6001 102.346 6.64997 102.346 8.1123C102.346 9.53713 103.365 10.4745 104.687 10.4745C106.159 10.4745 107.254 9.49963 107.254 8.0748C107.254 6.46249 106.385 5.6001 104.838 5.6001H104.8ZM100.383 14.749H102.082C102.686 14.749 102.837 14.899 102.875 15.3489C102.95 16.4363 102.988 17.0767 102.988 21.1637C102.988 26.3006 102.875 28.8385 102.686 30.7882C102.459 33.4879 102.152 34.3128 100.793 34.3128C100.265 34.3128 99.8118 34.2378 99.3965 34.1628L99.1323 34.6128C99.2833 35.0252 99.5098 35.3252 99.6985 35.5876C99.925 35.8501 100.227 36.0001 100.68 36.0001C102.039 36.0001 103.667 35.0252 105.253 33.1879C106.31 31.9131 106.952 30.1883 107.14 28.501C107.367 27.0387 107.405 26.4506 107.405 22.926C107.405 16.6643 107.405 15.6489 107.442 12.9867L107.329 12.8742C105.404 13.1367 102.648 13.3617 100.383 13.4742V14.749Z" fill="current"/>
<path d="M115.2 5.6001C113.727 5.6001 112.746 6.68747 112.746 8.1123C112.746 9.53713 113.765 10.4745 115.086 10.4745C116.596 10.4745 117.653 9.49963 117.653 8.0748C117.653 6.53748 116.785 5.6001 115.237 5.6001H115.2ZM119.994 28.3224C118.182 28.2099 117.88 28.0599 117.804 27.1975C117.804 26.3351 117.729 25.2852 117.729 23.223V18.686C117.729 15.4989 117.804 13.7741 117.842 12.9117C115.766 13.3617 113.161 13.4367 111.047 13.5866L111.009 14.8615C112.897 14.7865 113.199 14.9365 113.237 15.4989C113.274 16.0988 113.312 17.2987 113.312 19.0235V23.1855C113.312 25.1728 113.274 26.5226 113.199 27.235C113.123 27.9849 112.897 28.2474 110.82 28.3224V29.5972C111.953 29.5972 113.086 29.4847 115.237 29.4847C117.238 29.4847 118.635 29.5972 119.956 29.5972L119.994 28.3224Z" fill="current"/>
<path d="M121.776 29.5972C122.871 29.5972 124.343 29.4847 126.042 29.4847C127.552 29.4847 129.552 29.5972 130.458 29.5972L130.496 28.3224C128.873 28.2099 128.533 28.0224 128.495 27.31C128.42 26.3726 128.42 24.7978 128.42 23.4105V18.836C128.42 18.1236 128.495 17.5612 128.797 17.1112C129.515 15.9489 130.609 15.2364 131.931 15.2364C132.95 15.2364 133.479 15.6489 133.894 16.3613C134.158 16.8862 134.234 17.2987 134.196 22.3231C134.196 25.0228 134.12 26.5601 134.045 27.2725C134.007 28.0224 133.63 28.2474 132.195 28.3224L132.157 29.5972C133.026 29.5972 134.347 29.4847 136.272 29.4847C138.046 29.4847 139.443 29.5972 140.84 29.5972L140.878 28.3224C138.801 28.1724 138.613 28.0974 138.613 27.31V17.4112C138.613 16.4363 138.424 15.6864 138.084 15.049C137.518 13.9991 136.272 12.8742 133.932 12.8742C131.402 12.8742 129.703 14.3366 128.42 15.5364C128.42 14.974 128.269 13.7366 128.156 13.0617C126.155 13.3992 123.965 13.5866 121.927 13.5866L121.889 14.8615C123.663 14.899 123.89 15.0115 123.89 15.4989C123.965 16.5113 124.003 17.9736 124.003 19.7734V23.148C124.003 24.6853 123.965 25.9977 123.89 27.16C123.814 28.0974 123.588 28.2474 121.776 28.3224V29.5972Z" fill="current"/>
</svg>
