<svg width="161" height="64" viewBox="0 0 161 64" fill="none" xmlns="http://www.w3.org/2000/svg">
<path d="M3.61221 20.6028C3.61221 22.7341 3.56614 24.5546 3.47399 25.5759C3.42791 26.6859 3.10538 26.8192 0.847656 26.908V28.4177C2.22993 28.4177 4.2112 28.2844 6.28462 28.2844C8.12766 28.2844 10.2932 28.4177 11.3069 28.4177L11.5373 26.908C9.55601 26.7748 9.1874 26.5971 9.09525 25.7091C9.04918 24.599 9.0031 23.3558 9.0031 21.5353V15.8517C9.0031 15.0081 9.14133 14.4752 9.46386 13.8536C10.3393 12.2995 11.9059 11.4115 13.3803 11.4115C14.5783 11.4115 15.3155 11.8999 15.6841 12.7879C15.9606 13.3652 15.9606 13.8092 15.9606 16.3846V20.3364C15.9606 22.8673 15.8684 24.2438 15.8223 25.5759C15.7763 26.5971 15.3155 26.7748 13.5646 26.908V28.4177C14.5783 28.4177 16.1909 28.2844 18.4487 28.2844C20.476 28.2844 22.6877 28.4177 23.7013 28.4177L23.8856 26.908C21.8583 26.8192 21.4897 26.5971 21.3975 25.7091C21.3515 24.6878 21.3515 23.1781 21.3515 21.402V15.6297C21.3515 14.9193 21.4897 14.342 21.8122 13.7204C22.6416 12.3439 24.1621 11.4115 25.6365 11.4115C26.8806 11.4115 27.6639 11.9887 28.0325 12.8767C28.2628 13.454 28.3089 13.898 28.3089 19.9812C28.3089 23.0449 28.2628 24.6878 28.1246 25.7535C28.0785 26.5527 27.6639 26.8192 25.8208 26.9524L25.7747 28.4177C26.9727 28.4177 28.5854 28.2844 30.8892 28.2844C33.0547 28.2844 34.7135 28.4177 36.3261 28.4177L36.4183 26.9524C33.8841 26.686 33.6998 26.6415 33.6998 25.7091V14.0312C33.6998 12.9656 33.5155 11.8999 33.0087 11.0118C32.3636 9.90177 30.8431 8.6141 28.3089 8.6141C24.9454 8.6141 22.6877 10.5678 21.1211 11.8999C20.9368 11.4115 20.7064 10.8786 20.2917 10.3902C19.7388 9.67976 18.5869 8.6141 16.1449 8.6141C12.9196 8.6141 10.6158 10.4346 9.04918 11.8555C9.0031 11.1894 8.77272 9.50215 8.68057 8.83611C6.23854 9.28014 3.42791 9.45775 0.939808 9.45775L0.893732 10.9674C3.15145 10.9674 3.42791 11.1006 3.47399 11.6779C3.56614 12.9211 3.61221 14.6973 3.61221 16.7842V20.6028Z" fill="white"/>
<path d="M49.5611 8.6141C42.6497 8.6141 39.1019 13.3652 39.1019 18.9599C39.1019 24.4214 42.1889 28.9061 49.2386 28.9061C55.8274 28.9061 59.5596 24.6878 59.5596 18.6491C59.5596 12.8323 55.8735 8.6141 49.6072 8.6141H49.5611ZM49.3307 10.2126C50.8051 10.2126 51.7727 11.0562 52.4178 12.2551C53.1089 13.5428 53.6158 15.9849 53.6158 19.1375C53.6158 21.8461 53.2932 23.933 52.6482 25.3095C52.0492 26.6415 51.0355 27.3076 49.6532 27.3076C48.2249 27.3076 47.1191 26.5527 46.3358 25.0875C45.5986 23.5334 45.1378 21.0912 45.1378 18.0718C45.1378 15.4521 45.5986 13.232 46.2897 12.0331C46.9808 10.923 47.8563 10.2126 49.2846 10.2126H49.3307Z" fill="white"/>
<path d="M73.589 8.6141C66.6776 8.6141 63.1297 13.3652 63.1297 18.9599C63.1297 24.4214 66.2168 28.9061 73.2664 28.9061C79.8553 28.9061 83.5875 24.6878 83.5875 18.6491C83.5875 12.8323 79.9014 8.6141 73.6351 8.6141H73.589ZM73.3586 10.2126C74.833 10.2126 75.8006 11.0562 76.4457 12.2551C77.1368 13.5428 77.6437 15.9849 77.6437 19.1375C77.6437 21.8461 77.3211 23.933 76.6761 25.3095C76.0771 26.6415 75.0634 27.3076 73.6811 27.3076C72.2528 27.3076 71.1469 26.5527 70.3637 25.0875C69.6264 23.5334 69.1657 21.0912 69.1657 18.0718C69.1657 15.4521 69.6264 13.232 70.3176 12.0331C71.0087 10.923 71.8842 10.2126 73.3125 10.2126H73.3586Z" fill="white"/>
<path d="M86.4762 28.4177C87.8124 28.4177 89.6094 28.2844 91.6828 28.2844C93.5258 28.2844 95.9678 28.4177 97.0737 28.4177L97.1198 26.908C95.1385 26.7748 94.7238 26.5527 94.6777 25.7091C94.5856 24.599 94.5856 22.7341 94.5856 21.0912V15.6741C94.5856 14.8305 94.6777 14.1644 95.0463 13.6316C95.9218 12.2551 97.258 11.4115 98.8706 11.4115C100.115 11.4115 100.76 11.8999 101.267 12.7435C101.589 13.3652 101.681 13.8536 101.635 19.8036C101.635 23.0005 101.543 24.821 101.451 25.6647C101.405 26.5527 100.944 26.8192 99.1932 26.908L99.1471 28.4177C100.207 28.4177 101.82 28.2844 104.169 28.2844C106.335 28.2844 108.04 28.4177 109.745 28.4177L109.791 26.908C107.256 26.7304 107.026 26.6415 107.026 25.7091V13.9868C107.026 12.8323 106.796 11.9443 106.381 11.1895C105.69 9.94618 104.169 8.6141 101.313 8.6141C98.2256 8.6141 96.1522 10.3458 94.5856 11.7667C94.5856 11.1006 94.4013 9.63536 94.263 8.83611C91.821 9.23574 89.1486 9.45775 86.6605 9.45775L86.6144 10.9674C88.78 11.0118 89.0565 11.145 89.0565 11.7223C89.1486 12.9212 89.1947 14.6529 89.1947 16.7842V20.7804C89.1947 22.6009 89.1486 24.155 89.0565 25.5315C88.9643 26.6415 88.6879 26.8192 86.4762 26.908V28.4177Z" fill="white"/>
<path d="M116.647 0C114.85 0 113.652 1.24327 113.652 2.97497C113.652 4.66227 114.896 5.77234 116.509 5.77234C118.306 5.77234 119.642 4.61787 119.642 2.93057C119.642 1.02126 118.582 0 116.693 0H116.647ZM111.256 10.8342H113.329C114.067 10.8342 114.251 11.0118 114.297 11.5447C114.389 12.8323 114.435 13.5907 114.435 18.4306C114.435 24.5138 114.297 27.5191 114.067 29.828C113.79 33.025 113.416 34.0019 111.757 34.0019C111.112 34.0019 110.559 33.9131 110.052 33.8243L109.73 34.3571C109.914 34.8455 110.19 35.2008 110.421 35.5116C110.697 35.8224 111.066 36 111.619 36C113.277 36 115.265 34.8455 117.2 32.6698C118.49 31.1601 119.273 29.1176 119.504 27.1195C119.78 25.3878 119.826 24.6914 119.826 20.5175C119.826 13.1023 119.826 11.8999 119.872 8.74731L119.734 8.6141C117.384 8.92492 114.021 9.19133 111.256 9.32454V10.8342Z" fill="white"/>
<path d="M129.34 0C127.543 0 126.345 1.28767 126.345 2.97497C126.345 4.66227 127.589 5.77234 129.202 5.77234C131.045 5.77234 132.335 4.61787 132.335 2.93057C132.335 1.11006 131.275 0 129.386 0H129.34ZM135.192 26.908C132.98 26.7748 132.612 26.5971 132.519 25.5759C132.519 24.5546 132.427 23.3114 132.427 20.8692V15.4965C132.427 11.7223 132.519 9.67976 132.565 8.6585C130.031 9.19133 126.852 9.28014 124.272 9.45775L124.226 10.9674C126.53 10.8786 126.898 11.0562 126.944 11.7223C126.99 12.4327 127.036 13.8536 127.036 15.8961V20.8248C127.036 23.1781 126.99 24.7766 126.898 25.6203C126.806 26.5083 126.53 26.8192 123.995 26.908V28.4177C125.378 28.4177 126.76 28.2844 129.386 28.2844C131.828 28.2844 133.533 28.4177 135.146 28.4177L135.192 26.908Z" fill="white"/>
<path d="M137.367 28.4177C138.703 28.4177 140.5 28.2844 142.573 28.2844C144.416 28.2844 146.858 28.4177 147.964 28.4177L148.01 26.908C146.029 26.7748 145.614 26.5527 145.568 25.7091C145.476 24.599 145.476 22.7341 145.476 21.0912V15.6741C145.476 14.8305 145.568 14.1644 145.937 13.6316C146.812 12.2551 148.149 11.4115 149.761 11.4115C151.005 11.4115 151.65 11.8999 152.157 12.7435C152.48 13.3652 152.572 13.8536 152.526 19.8036C152.526 23.0005 152.434 24.821 152.341 25.6647C152.295 26.5527 151.835 26.8192 150.084 26.908L150.038 28.4177C151.097 28.4177 152.71 28.2844 155.06 28.2844C157.225 28.2844 158.93 28.4177 160.635 28.4177L160.681 26.908C158.147 26.7304 157.917 26.6415 157.917 25.7091V13.9868C157.917 12.8323 157.686 11.9443 157.272 11.1895C156.58 9.94618 155.06 8.6141 152.203 8.6141C149.116 8.6141 147.043 10.3458 145.476 11.7667C145.476 11.1006 145.292 9.63536 145.154 8.83611C142.712 9.23574 140.039 9.45775 137.551 9.45775L137.505 10.9674C139.671 11.0118 139.947 11.145 139.947 11.7223C140.039 12.9212 140.085 14.6529 140.085 16.7842V20.7804C140.085 22.6009 140.039 24.155 139.947 25.5315C139.855 26.6415 139.578 26.8192 137.367 26.908V28.4177Z" fill="white"/>
<rect x="79.7656" y="57" width="23.975" height="2" fill="white"/>
<path d="M10.2109 49.1016V59H8.83008L3.8125 51.7676H3.73047V59H2.22656V49.1016H3.62109L8.63867 56.3477H8.73438V49.1016H10.2109ZM15.3105 59.1504C13.123 59.1504 11.7832 57.6465 11.7832 55.3359C11.7832 53.0527 13.1504 51.4805 15.2148 51.4805C16.9102 51.4805 18.5098 52.5332 18.5098 55.2129V55.7324H13.2324C13.2734 57.1406 14.1006 57.9473 15.3242 57.9473C16.1582 57.9473 16.6914 57.5918 16.9375 57.1406H18.4141C18.0859 58.3438 16.9375 59.1504 15.3105 59.1504ZM13.2461 54.6387H17.0742C17.0742 53.5039 16.3496 52.6836 15.2285 52.6836C14.0596 52.6836 13.3008 53.5859 13.2461 54.6387ZM21.5312 59L19.3574 51.5762H20.8613L22.3105 57.0176H22.3926L23.8418 51.5762H25.3457L26.7812 56.9902H26.8633L28.2988 51.5762H29.8027L27.6289 59H26.1387L24.6348 53.6543H24.5254L23.0352 59H21.5312ZM35.1758 53.5996C35.0391 53.0117 34.5742 52.6289 33.7676 52.6289C32.9336 52.6289 32.332 53.0664 32.3457 53.627C32.332 54.0645 32.6875 54.3789 33.5078 54.5703L34.6836 54.8438C36.0508 55.1445 36.707 55.8008 36.7207 56.8535C36.707 58.1934 35.5859 59.1504 33.6855 59.1504C31.9082 59.1504 30.8418 58.3574 30.6641 56.9766H32.1543C32.2773 57.6465 32.7969 57.9746 33.6719 57.9746C34.6152 57.9746 35.2168 57.5918 35.2305 56.9629C35.2168 56.4844 34.8613 56.1699 34.082 55.9922L32.9199 55.7461C31.5801 55.4453 30.8828 54.7344 30.8828 53.709C30.8828 52.3828 32.0312 51.4805 33.7539 51.4805C35.4082 51.4805 36.4336 52.3281 36.584 53.5996H35.1758ZM41.6836 59V49.1016H43.1875V57.7012H47.6582V59H41.6836ZM52.2793 59.1504C50.0918 59.1504 48.752 57.6465 48.752 55.3359C48.752 53.0527 50.1191 51.4805 52.1836 51.4805C53.8789 51.4805 55.4785 52.5332 55.4785 55.2129V55.7324H50.2012C50.2422 57.1406 51.0693 57.9473 52.293 57.9473C53.127 57.9473 53.6602 57.5918 53.9062 57.1406H55.3828C55.0547 58.3438 53.9062 59.1504 52.2793 59.1504ZM50.2148 54.6387H54.043C54.043 53.5039 53.3184 52.6836 52.1973 52.6836C51.0283 52.6836 50.2695 53.5859 50.2148 54.6387ZM60.4004 51.5762V52.7383H58.8828V56.8125C58.8828 57.6465 59.3066 57.7969 59.7715 57.8105C59.9766 57.8105 60.3047 57.7832 60.5098 57.7695V59.041C60.3047 59.0684 59.9902 59.0957 59.5938 59.0957C58.4453 59.0957 57.4199 58.4668 57.4336 57.1133V52.7383H56.3398V51.5762H57.4336V49.7988H58.8828V51.5762H60.4004ZM65.2949 51.5762V52.7383H63.7773V56.8125C63.7773 57.6465 64.2012 57.7969 64.666 57.8105C64.8711 57.8105 65.1992 57.7832 65.4043 57.7695V59.041C65.1992 59.0684 64.8848 59.0957 64.4883 59.0957C63.3398 59.0957 62.3145 58.4668 62.3281 57.1133V52.7383H61.2344V51.5762H62.3281V49.7988H63.7773V51.5762H65.2949ZM69.834 59.1504C67.6465 59.1504 66.3066 57.6465 66.3066 55.3359C66.3066 53.0527 67.6738 51.4805 69.7383 51.4805C71.4336 51.4805 73.0332 52.5332 73.0332 55.2129V55.7324H67.7559C67.7969 57.1406 68.624 57.9473 69.8477 57.9473C70.6816 57.9473 71.2148 57.5918 71.4609 57.1406H72.9375C72.6094 58.3438 71.4609 59.1504 69.834 59.1504ZM67.7695 54.6387H71.5977C71.5977 53.5039 70.873 52.6836 69.752 52.6836C68.583 52.6836 67.8242 53.5859 67.7695 54.6387ZM74.4824 59V51.5762H75.8906V52.752H75.9727C76.2461 51.959 76.9844 51.4668 77.8594 51.4668C78.0371 51.4668 78.3242 51.4805 78.4746 51.4941V52.8887C78.3516 52.8613 78.0098 52.8066 77.709 52.8066C76.6973 52.8066 75.9453 53.5039 75.9453 54.4746V59H74.4824Z" fill="white"/>
</svg>
