<svg width="24" height="24" viewBox="0 0 24 24" fill="none" xmlns="http://www.w3.org/2000/svg">
    <path d="M9.55531 20.6539C5.11884 20.6277 0.824469 16.9369 0.748104 11.9623V11.8275C0.748104 6.95145 4.69123 3.00098 9.55338 3.00098C14.4155 3.00098 18.3587 6.95145 18.3587 11.8275C18.3587 11.8437 18.3588 11.8633 18.359 11.8859C18.362 12.275 18.3723 13.5823 17.7327 15.1017L17.7326 15.1019C16.4826 18.0745 13.2949 20.6764 9.55535 20.6539H9.55531Z"
          stroke="currentColor"/>
    <path fill-rule="evenodd" clip-rule="evenodd"
          d="M8.60547 21.0351C9.98318 21.3271 11.6224 21.4987 13.4589 21.4987C19.1442 21.4987 23.7531 20.0624 23.7531 18.2907C23.7531 17.0426 21.4661 15.961 18.1267 15.4307C16.6996 18.4854 13.3776 21.106 9.46567 21.0825C9.17807 21.0808 8.89102 21.0648 8.60547 21.0351Z"
          fill="currentColor"/>
</svg>
