<svg width="67" height="67" viewBox="0 0 67 67" fill="none" xmlns="http://www.w3.org/2000/svg">
<path d="M63.2 60.174C63.2 58.3236 64.6773 56.824 66.5 56.824V54.6326C64.6773 54.6326 63.2 53.133 63.2 51.2826C63.2 49.4323 64.6773 47.9326 66.5 47.9326V45.7413C64.6773 45.7413 63.2 44.2417 63.2 42.3913C63.2 40.541 64.6773 39.0413 66.5 39.0413V36.85C64.6773 36.85 63.2 35.3503 63.2 33.5C63.2 31.6497 64.6773 30.15 66.5 30.15V27.9587C64.6773 27.9587 63.2 26.459 63.2 24.6087C63.2 22.7583 64.6773 21.2587 66.5 21.2587V19.0674C64.6773 19.0674 63.2 17.5677 63.2 15.7174C63.2 13.867 64.6773 12.3674 66.5 12.3674V10.176C64.6773 10.176 63.2 8.67639 63.2 6.82605C63.2 4.97571 64.6773 3.47605 66.5 3.47605V0H63.0758C63.0758 1.85034 61.5986 3.35 59.7758 3.35C57.9531 3.35 56.4758 1.85034 56.4758 0H54.3172C54.3172 1.85034 52.8399 3.35 51.0172 3.35C49.1945 3.35 47.7172 1.85034 47.7172 0H45.5586C45.5586 1.85034 44.0813 3.35 42.2586 3.35C40.4359 3.35 38.9586 1.85034 38.9586 0H36.8C36.8 1.85034 35.3227 3.35 33.5 3.35C31.6773 3.35 30.2 1.85034 30.2 0H28.0414C28.0414 1.85034 26.5641 3.35 24.7414 3.35C22.9187 3.35 21.4414 1.85034 21.4414 0H19.2828C19.2828 1.85034 17.8055 3.35 15.9828 3.35C14.1601 3.35 12.6828 1.85034 12.6828 0H10.5242C10.5242 1.85034 9.04689 3.35 7.22417 3.35C5.40145 3.35 3.92417 1.85034 3.92417 0H0.5V3.47605C2.32272 3.47605 3.8 4.97571 3.8 6.82605C3.8 8.67639 2.32272 10.176 0.5 10.176V12.3674C2.32272 12.3674 3.8 13.867 3.8 15.7174C3.8 17.5677 2.32272 19.0674 0.5 19.0674V21.2587C2.32272 21.2587 3.8 22.7583 3.8 24.6087C3.8 26.459 2.32272 27.9587 0.5 27.9587V30.15C2.32272 30.15 3.8 31.6497 3.8 33.5C3.8 35.3503 2.32272 36.85 0.5 36.85V39.0413C2.32272 39.0413 3.8 40.541 3.8 42.3913C3.8 44.2417 2.32272 45.7413 0.5 45.7413V47.9326C2.32272 47.9326 3.8 49.4323 3.8 51.2826C3.8 53.133 2.32272 54.6326 0.5 54.6326V56.824C2.32272 56.824 3.8 58.3236 3.8 60.174C3.8 62.0243 2.32272 63.5239 0.5 63.5239V67H3.92417C3.92417 65.1497 5.40145 63.65 7.22417 63.65C9.04689 63.65 10.5242 65.1497 10.5242 67H12.6828C12.6828 65.1497 14.1601 63.65 15.9828 63.65C17.8055 63.65 19.2828 65.1497 19.2828 67H21.4414C21.4414 65.1497 22.9187 63.65 24.7414 63.65C26.5641 63.65 28.0414 65.1497 28.0414 67H30.2C30.2 65.1497 31.6773 63.65 33.5 63.65C35.3227 63.65 36.8 65.1497 36.8 67H38.9586C38.9586 65.1497 40.4359 63.65 42.2586 63.65C44.0813 63.65 45.5586 65.1497 45.5586 67H47.7172C47.7172 65.1497 49.1945 63.65 51.0172 63.65C52.8399 63.65 54.3172 65.1497 54.3172 67H56.4758C56.4758 65.1497 57.9531 63.65 59.7758 63.65C61.5986 63.65 63.0758 65.1497 63.0758 67H66.5V63.5239C64.6773 63.5239 63.2 62.0243 63.2 60.174Z" fill="#7B0000"/>
<path d="M35.5 47C44.3366 47 51.5 44.7614 51.5 42C51.5 39.2386 44.3366 37 35.5 37C26.6634 37 19.5 39.2386 19.5 42C19.5 44.7614 26.6634 47 35.5 47Z" fill="#4F0000"/>
<path d="M15.5016 32.4999C15.5016 24.4915 21.7686 18 29.5001 18C37.2316 18 43.4986 24.4915 43.4986 32.4999C43.4986 32.969 43.5796 35.237 42.498 37.892C40.5184 42.757 35.4746 47.0368 29.4985 46.9998C22.3864 46.9562 15.5 40.8033 15.5 32.4999H15.5016Z" fill="white"/>
<path opacity="0.1" d="M24.9864 43.8464C24.3817 43.2921 32.1558 44.0753 36.8548 38.9534C41.5537 33.8314 41.0466 28.7981 41.6528 29.3541C42.2576 29.9085 43.8423 36.1441 39.1434 41.266C34.4445 46.388 25.5927 44.4025 24.9864 43.8464Z" fill="#7B0000"/>
</svg>
