<svg width="40" height="40" viewBox="0 0 40 40" fill="none" xmlns="http://www.w3.org/2000/svg">
<path d="M37.73 30.6165C37.73 31.7789 38.6035 32.7371 39.73 32.8706V33.6706C38.6035 33.8041 37.73 34.7623 37.73 35.9248C37.73 37.0872 38.6035 38.0454 39.73 38.1789V39.73H38.1789C38.0454 38.6035 37.0872 37.73 35.9248 37.73C34.7623 37.73 33.8041 38.6035 33.6706 39.73H32.8706C32.7371 38.6035 31.7789 37.73 30.6165 37.73C29.4541 37.73 28.4959 38.6035 28.3624 39.73H27.5624C27.4289 38.6035 26.4707 37.73 25.3083 37.73C24.1458 37.73 23.1876 38.6035 23.0541 39.73H22.2541C22.1206 38.6035 21.1624 37.73 20 37.73C18.8376 37.73 17.8794 38.6035 17.7459 39.73H16.9459C16.8124 38.6035 15.8542 37.73 14.6918 37.73C13.5293 37.73 12.5711 38.6035 12.4376 39.73H11.6376C11.5041 38.6035 10.5459 37.73 9.3835 37.73C8.22107 37.73 7.26286 38.6035 7.12939 39.73H6.32937C6.19589 38.6035 5.23769 37.73 4.07525 37.73C2.91282 37.73 1.95461 38.6035 1.82114 39.73H0.27L0.27 38.1789C1.3965 38.0454 2.27 37.0872 2.27 35.9248C2.27 34.7623 1.3965 33.8041 0.27 33.6706L0.27 32.8706C1.3965 32.7372 2.27 31.7789 2.27 30.6165C2.27 29.4541 1.3965 28.4959 0.27 28.3624L0.27 27.5624C1.3965 27.4289 2.27 26.4707 2.27 25.3083C2.27 24.1458 1.3965 23.1876 0.27 23.0541L0.27 22.2541C1.3965 22.1206 2.27 21.1624 2.27 20C2.27 18.8376 1.3965 17.8794 0.27 17.7459L0.27 16.9459C1.3965 16.8124 2.27 15.8542 2.27 14.6918C2.27 13.5293 1.3965 12.5711 0.27 12.4376L0.27 11.6376C1.3965 11.5041 2.27 10.5459 2.27 9.3835C2.27 8.22107 1.3965 7.26286 0.27 7.12939L0.27 6.32937C1.3965 6.1959 2.27 5.23769 2.27 4.07525C2.27 2.91282 1.3965 1.95461 0.27 1.82114L0.27 0.27L1.82114 0.27C1.95461 1.3965 2.91282 2.27 4.07525 2.27C5.23769 2.27 6.19589 1.3965 6.32937 0.27L7.12939 0.27C7.26286 1.3965 8.22107 2.27 9.3835 2.27C10.5459 2.27 11.5041 1.3965 11.6376 0.27L12.4376 0.27C12.5711 1.3965 13.5293 2.27 14.6918 2.27C15.8542 2.27 16.8124 1.3965 16.9459 0.27L17.7459 0.27C17.8794 1.3965 18.8376 2.27 20 2.27C21.1624 2.27 22.1206 1.3965 22.2541 0.27L23.0541 0.27C23.1876 1.3965 24.1458 2.27 25.3083 2.27C26.4707 2.27 27.4289 1.3965 27.5624 0.27L28.3624 0.27C28.4959 1.3965 29.4541 2.27 30.6165 2.27C31.7789 2.27 32.7371 1.3965 32.8706 0.27L33.6706 0.27C33.8041 1.3965 34.7623 2.27 35.9248 2.27C37.0872 2.27 38.0454 1.3965 38.1789 0.27L39.73 0.27V1.82114C38.6035 1.95461 37.73 2.91282 37.73 4.07525C37.73 5.23769 38.6035 6.19589 39.73 6.32937V7.12939C38.6035 7.26286 37.73 8.22107 37.73 9.3835C37.73 10.5459 38.6035 11.5041 39.73 11.6376V12.4376C38.6035 12.5711 37.73 13.5293 37.73 14.6918C37.73 15.8542 38.6035 16.8124 39.73 16.9459V17.7459C38.6035 17.8794 37.73 18.8376 37.73 20C37.73 21.1624 38.6035 22.1206 39.73 22.2541V23.0541C38.6035 23.1876 37.73 24.1458 37.73 25.3083C37.73 26.4707 38.6035 27.4289 39.73 27.5624V28.3624C38.6035 28.4959 37.73 29.4541 37.73 30.6165Z" stroke="currentColor" stroke-width="0.54"/>
<path fill-rule="evenodd" clip-rule="evenodd" d="M12.1016 27.3327C13.5031 28.7242 17.4162 29.7257 22.0243 29.7257C27.8094 29.7257 32.4991 28.1473 32.4991 26.2003C32.4991 24.8111 30.1118 23.6096 26.6426 23.0352C25.1409 26.2573 21.6315 29.0247 17.4977 28.9999C15.5927 28.9887 13.7103 28.3849 12.1016 27.3327Z" fill="currentColor"/>
<path d="M17.5006 28.7298C12.5991 28.7009 7.85433 24.6374 7.77111 19.1467L7.77111 18.9999C7.77111 13.626 12.1267 9.27 17.5001 9.27C22.8734 9.27 27.229 13.626 27.229 18.9999C27.229 19.0174 27.2292 19.0385 27.2294 19.063C27.2328 19.4869 27.2443 20.9338 26.5355 22.6137L26.5354 22.6138C25.1572 25.8842 21.6437 28.7547 17.5006 28.7298Z" stroke="currentColor" stroke-width="0.54"/>
<path opacity="0.1" d="M14.4372 26.2838C14.0621 25.9212 18.8842 26.4336 21.7987 23.0833C24.7133 19.733 24.3988 16.4408 24.7748 16.8045C25.1499 17.1671 26.1329 21.2457 23.2183 24.596C20.3037 27.9463 14.8133 26.6475 14.4372 26.2838Z" fill="#797979"/>
</svg>
