<svg width="32" height="32" viewBox="0 0 32 32" fill="none" xmlns="http://www.w3.org/2000/svg">
<circle cx="16" cy="16" r="15.5" stroke="#999999"/>
<path fill-rule="evenodd" clip-rule="evenodd" d="M10.6663 17.3334C9.92996 17.3334 9.33301 16.7365 9.33301 16.0001C9.33301 15.2637 9.92996 14.6667 10.6663 14.6667C11.4027 14.6667 11.9997 15.2637 11.9997 16.0001C11.9997 16.7365 11.4027 17.3334 10.6663 17.3334ZM16.4441 17.3334C15.7077 17.3334 15.1108 16.7365 15.1108 16.0001C15.1108 15.2637 15.7077 14.6667 16.4441 14.6667C17.1805 14.6667 17.7775 15.2637 17.7775 16.0001C17.7775 16.7365 17.1805 17.3334 16.4441 17.3334ZM20.8886 16.0001C20.8886 16.7365 21.4855 17.3334 22.2219 17.3334C22.9583 17.3334 23.5552 16.7365 23.5552 16.0001C23.5552 15.2637 22.9583 14.6667 22.2219 14.6667C21.4855 14.6667 20.8886 15.2637 20.8886 16.0001Z" fill="#999999"/>
</svg>
