<svg width="20" height="20" viewBox="0 0 20 20" fill="none" xmlns="http://www.w3.org/2000/svg">
<path fill-rule="evenodd" clip-rule="evenodd" d="M16.9117 2.19368C16.9117 2.19368 16.585 2.11009 16.2612 2.20314L16.2587 2.20386L1.70332 6.30344C1.70332 6.30344 1.32237 6.40759 1.07041 6.71171C1.07041 6.71171 0.818451 7.01583 0.786957 7.4095C0.786957 7.4095 0.755463 7.80318 0.955868 8.14348C0.955868 8.14348 1.15627 8.48379 1.5071 8.64314L8.19405 11.8069L11.3538 18.4852C11.3538 18.4852 11.5172 18.8447 11.8575 19.0452C11.8575 19.0452 12.1978 19.2456 12.5915 19.2141C12.5915 19.2141 12.9852 19.1826 13.2893 18.9306C13.2893 18.9306 13.5934 18.6786 13.6963 18.3023L17.7961 3.74582C17.7961 3.74582 17.8917 3.41908 17.8073 3.08928C17.8073 3.08928 17.723 2.75948 17.4823 2.51876C17.4823 2.51876 17.2415 2.27804 16.9117 2.19368ZM2.03298 7.50918L16.5926 3.40845L12.4931 17.9634L12.4918 17.968L9.32373 11.2718C9.32373 11.2718 9.13556 10.8655 8.72455 10.6751L2.0417 7.51323L2.03298 7.50918Z" fill="#7B0000"/>
<path d="M12.638 8.24695C12.7552 8.12974 12.8213 7.97054 12.8213 7.80478C12.8213 7.63902 12.7554 7.48005 12.6382 7.36284L12.6328 7.35751C12.5161 7.24378 12.3592 7.17978 12.1963 7.17978C12.1775 7.17978 12.1588 7.18062 12.1401 7.18231C11.9944 7.19546 11.8578 7.25935 11.7543 7.36284L8.22332 10.8939C8.10611 11.0111 8.04002 11.1703 8.04002 11.336C8.04002 11.346 8.04026 11.3561 8.04075 11.3661C8.04821 11.5212 8.11321 11.6681 8.22308 11.778C8.34029 11.8952 8.49926 11.961 8.66502 11.961C8.83078 11.961 8.98976 11.8952 9.10697 11.778L12.638 8.24695Z" fill="#7B0000"/>
</svg>
