<svg width="20" height="20" viewBox="0 0 20 20" fill="none" xmlns="http://www.w3.org/2000/svg">
<path fill-rule="evenodd" clip-rule="evenodd" d="M17.4953 7.76352L7.94194 17.3169C7.82473 17.4341 7.66576 17.4999 7.5 17.4999H3.75C3.75 17.4999 3.23223 17.4999 2.86612 17.1338C2.86612 17.1338 2.5 16.7677 2.5 16.2499L2.5 12.7577C2.5 12.7577 2.49914 12.5125 2.59314 12.2836C2.59314 12.2836 2.68714 12.0548 2.86165 11.8794L12.2377 2.5033C12.2377 2.5033 12.4106 2.32777 12.6422 2.23078C12.6422 2.23078 12.8739 2.13379 13.125 2.13379C13.125 2.13379 13.3761 2.13379 13.6078 2.23078C13.6078 2.23078 13.8394 2.32777 14.0156 2.5067L17.4966 5.98768C17.4966 5.98768 17.6722 6.16052 17.7692 6.39216C17.7692 6.39216 17.8661 6.62381 17.8661 6.87493C17.8661 6.87493 17.8661 7.12606 17.7692 7.3577C17.7692 7.3577 17.6731 7.58713 17.4966 7.76219L17.4953 7.76352ZM16.6161 6.87493L16.6127 6.87156L13.125 3.38379L13.1216 3.38719L3.75 12.7588V16.2499H7.24112L16.6127 6.8783L16.6161 6.87493Z" fill="#333333"/>
<path d="M16.875 16.25H7.49999C7.15481 16.25 6.87499 16.5298 6.87499 16.875C6.87499 17.2202 7.15482 17.4999 7.5 17.4999L16.875 17.5C17.2202 17.5 17.5 17.2202 17.5 16.875C17.5 16.5298 17.2202 16.25 16.875 16.25Z" fill="#333333"/>
<path d="M14.5577 9.81662C14.6749 9.93383 14.8342 10 15 10C15.1658 10 15.3247 9.93415 15.4419 9.81694C15.5591 9.69973 15.625 9.54076 15.625 9.375C15.625 9.20924 15.5591 9.05027 15.4419 8.93306L11.067 4.55813C10.9497 4.44085 10.7908 4.375 10.625 4.375C10.4592 4.375 10.3003 4.44085 10.1831 4.55806C10.0658 4.67527 9.99999 4.83424 9.99999 5C9.99999 5.16576 10.0658 5.32473 10.1831 5.44194L14.5577 9.81662Z" fill="#333333"/>
</svg>
