<svg width="18" height="18" viewBox="0 0 18 18" fill="none" xmlns="http://www.w3.org/2000/svg">
<path fill-rule="evenodd" clip-rule="evenodd" d="M17.6574 1.8622C17.8036 2.01575 17.851 2.23843 17.7801 2.43821L12.7211 16.6882C12.658 16.8661 12.5097 17.0005 12.3265 17.046C12.1432 17.0914 11.9493 17.0419 11.8103 16.9141L9.10002 14.4222L7.76019 16.4955C7.63172 16.6943 7.39254 16.7914 7.16185 16.7385C6.93115 16.6855 6.75831 16.4937 6.72945 16.2588L6.15098 11.5495C6.12861 11.3674 6.19643 11.1859 6.3327 11.0631L11.625 6.66782L5.06179 10.491C4.87631 10.5898 4.65117 10.577 4.47808 10.4578L0.430908 7.66976C0.252758 7.54704 0.160773 7.33302 0.194321 7.11931C0.227869 6.9056 0.381003 6.73006 0.588188 6.66782L17.0882 1.7113C17.2912 1.65031 17.5113 1.70865 17.6574 1.8622ZM2.03416 7.40812L4.83452 9.33725L13.2496 4.85146C13.5004 4.71777 13.8115 4.79216 13.9747 5.02485C14.1379 5.25754 14.1019 5.57541 13.8908 5.76568L7.30327 11.7028L7.65699 14.5825L8.51721 13.2513C8.6072 13.1121 8.75403 13.0196 8.9185 12.9986C9.08297 12.9777 9.24831 13.0303 9.37036 13.1425L11.9456 15.5102L16.3485 3.10817L2.03416 7.40812Z" fill="white"/>
</svg>
