<svg width="24" height="25" viewBox="0 0 24 25" fill="none" xmlns="http://www.w3.org/2000/svg">
<path fill-rule="evenodd" clip-rule="evenodd" d="M12 2.75C12 2.75 13.3728 2.75 14.6276 3.28076C14.6276 3.28076 15.8391 3.79317 16.773 4.72703C16.773 4.72703 17.7068 5.6609 18.2192 6.87236C18.2192 6.87236 18.75 8.12721 18.75 9.5C18.75 9.5 18.75 10.8728 18.2192 12.1276C18.2192 12.1276 17.7068 13.3391 16.773 14.273C16.773 14.273 15.8391 15.2068 14.6276 15.7192C14.6276 15.7192 13.3728 16.25 12 16.25C12 16.25 10.6272 16.25 9.37237 15.7192C9.37237 15.7192 8.16089 15.2068 7.22703 14.273C7.22703 14.273 6.29317 13.3391 5.78076 12.1276C5.78076 12.1276 5.25 10.8728 5.25 9.5C5.25 9.5 5.25 8.12721 5.78076 6.87236C5.78076 6.87236 6.29317 5.66089 7.22703 4.72703C7.22703 4.72703 8.16089 3.79317 9.37237 3.28076C9.37237 3.28076 10.6272 2.75 12 2.75ZM12 4.25C12 4.25 9.82538 4.25 8.28769 5.78769C8.28769 5.78769 6.75 7.32538 6.75 9.5C6.75 9.5 6.75 11.6746 8.28769 13.2123C8.28769 13.2123 9.82538 14.75 12 14.75C12 14.75 14.1746 14.75 15.7123 13.2123C15.7123 13.2123 17.25 11.6746 17.25 9.5C17.25 9.5 17.25 7.32538 15.7123 5.78769C15.7123 5.78769 14.1746 4.25 12 4.25Z" fill="current"/>
<path d="M16.8754 17.5557C19.138 18.8621 20.4442 21.125 20.4442 21.125C20.5436 21.2972 20.7074 21.4229 20.8996 21.4744C20.9629 21.4914 21.0282 21.5 21.0938 21.5C21.1016 21.5 21.1095 21.4999 21.1173 21.4996C21.2409 21.4958 21.3616 21.4614 21.4687 21.3996C21.7008 21.2656 21.8438 21.018 21.8438 20.75C21.8438 20.7384 21.8435 20.7269 21.8429 20.7153C21.8374 20.5956 21.8032 20.4789 21.7433 20.3751C20.2362 17.7641 17.6254 16.2566 17.6254 16.2566C15.0147 14.7492 12 14.7492 12 14.7492C8.98529 14.7492 6.37455 16.2566 6.37455 16.2566C3.76401 17.764 2.25693 20.3747 2.25693 20.3747C2.19113 20.4887 2.15625 20.6184 2.15625 20.75L2.15637 20.7636C2.15748 20.8246 2.16602 20.8853 2.18182 20.9442C2.23332 21.1363 2.35904 21.3001 2.53131 21.3996C2.64531 21.4654 2.77462 21.5 2.90625 21.5C2.92013 21.5 2.93401 21.4996 2.94787 21.4989C3.20063 21.4848 3.42925 21.3442 3.5558 21.125C4.86197 18.8621 7.12461 17.5557 7.12461 17.5557C9.38726 16.2492 12 16.2492 12 16.2492C14.6127 16.2492 16.8754 17.5557 16.8754 17.5557Z" fill="current"/>
</svg>
