<svg width="880" height="151" viewBox="0 0 880 151" fill="none" xmlns="http://www.w3.org/2000/svg">
<rect x="378" y="94.4907" width="121.104" height="25.8657" rx="2" transform="rotate(-8.78256 378 94.4907)" fill="#7B0000"/>
<path d="M44.4304 99.096C44.5184 97.952 45.3984 97.336 46.9824 96.28C49.1824 94.784 51.2944 91.968 51.9984 90.912C53.0544 89.328 55.7824 85.456 56.6624 83.96C59.3024 79.296 59.8304 74.544 59.6544 69.088C59.6544 68.208 60.4464 67.504 61.5024 67.416C63.7024 67.24 64.3184 68.296 64.3184 70.32C64.3184 79.912 60.2704 87.48 53.9344 95.84C63.0864 94.96 70.2144 93.2 77.8704 93.2C78.8384 93.2 80.1584 93.288 80.1584 94.52C80.1584 95.928 79.5424 96.192 78.2224 96.456C74.6144 97.16 71.9744 97.688 68.2784 98.304C68.2784 98.304 62.3824 99.36 60.6224 99.712C56.6624 100.416 51.0304 101.824 46.9824 101.824C45.3984 101.824 44.2544 101.032 44.4304 99.096ZM49.1824 63.28C49.1824 58 53.3184 52.896 55.7824 50.696C56.4864 50.08 57.1024 50.344 57.9824 49.992C58.4224 49.816 58.6864 49.376 59.7424 49.376C62.2064 49.376 63.9664 52.368 63.9664 55.008C63.9664 60.464 60.0064 66.624 53.4064 66.888C51.1184 66.976 49.1824 65.656 49.1824 63.28ZM59.6544 53.336C57.6304 54.568 54.3744 59.32 54.3744 62.664C57.0144 62.664 60.2704 58.352 60.2704 55.008C60.2704 54.304 60.0064 53.776 59.6544 53.336ZM91.949 55.36C91.949 53.072 92.741 50.696 93.269 48.848C93.709 47.352 96.173 41.544 96.965 40.224C97.493 39.256 98.549 39.256 99.341 39.256C100.837 39.256 101.717 40.136 101.717 41.016C101.717 41.456 101.365 42.424 101.365 42.424C99.253 46.56 97.053 50.96 96.701 54.392C98.197 54.216 100.045 53.776 101.629 53.424C104.709 52.72 106.997 52.016 109.461 51.488C111.221 51.136 112.189 52.104 112.365 52.984C112.629 54.216 111.925 54.656 111.309 55.008C110.429 55.448 107.437 56.592 106.029 57.032C102.509 58.088 98.373 59.496 95.645 59.496C92.389 59.496 91.949 57.736 91.949 55.36ZM95.909 115.288C96.085 111.504 102.069 106.576 103.477 104.992C104.533 103.936 108.757 99.36 110.253 97.864C108.757 97.776 107.437 97.864 103.301 97.864C100.397 97.864 98.461 96.016 98.725 93.64C99.077 90.472 106.117 84.752 108.317 82.552C109.285 81.584 111.045 79.824 111.133 79.648C111.397 79.296 111.221 78.768 110.605 78.856C106.645 79.296 101.805 80.352 98.725 81.848C97.317 82.552 95.733 83.168 94.325 84.048C92.917 84.928 91.949 85.72 90.805 85.72C89.221 85.72 88.341 84.488 88.341 83.344C88.341 82.728 88.781 81.848 89.309 81.408C93.533 77.8 107.965 74.104 113.861 74.192C116.149 74.192 117.997 75.688 117.997 77.712C117.997 80.704 111.485 85.368 109.109 87.832C107.789 88.976 105.853 90.912 104.621 92.584C104.357 92.936 104.445 93.376 105.149 93.376C107.525 93.376 109.901 93.376 112.541 93.464C114.477 93.552 116.237 94.608 116.325 96.192C116.413 97.512 115.709 98.216 115.357 98.744C115.269 98.832 113.509 100.768 112.453 101.912C108.933 105.696 105.149 109.568 102.157 113.44C101.277 114.584 101.541 116.432 104.269 116.168C108.493 115.904 115.973 113.968 120.637 112.912C121.605 112.736 122.133 113.176 122.309 113.44C122.749 114.056 122.837 115.552 121.429 116.256C116.677 118.632 104.357 120.832 101.541 120.832C98.021 120.832 95.821 118.632 95.909 115.288ZM83.853 71.376C83.853 70.672 84.205 69.792 84.821 69.44C86.405 68.648 95.205 66.272 96.877 65.832C102.509 64.424 111.573 63.016 117.381 63.016C118.877 63.016 120.901 63.192 121.693 63.632C122.309 63.896 122.485 64.336 122.485 64.512C122.661 65.392 122.221 66.184 121.693 66.36C119.493 66.976 117.821 67.064 115.093 67.24C111.837 67.416 104.797 68.384 101.365 69.352C99.165 70.056 90.101 72.52 87.725 73.576C87.021 73.928 86.581 74.104 85.965 74.104C84.557 74.104 83.853 72.432 83.853 71.376ZM193.203 82.816C192.939 76.568 193.379 72.96 193.467 69.792C192.939 70.144 189.331 72.784 187.835 73.664C185.811 74.896 183.435 76.304 181.323 77.624C179.123 78.944 172.259 82.992 169.795 83.344C168.211 83.608 167.331 83.344 166.979 81.496C166.803 80.528 167.067 79.12 167.859 78.768C169.619 77.976 170.587 77.536 173.139 76.48C174.635 75.864 176.043 75.16 177.187 74.544C178.859 73.664 180.707 72.608 182.203 71.728C186.075 69.264 190.123 66.8 193.203 63.368L194.083 62.488C194.083 62.488 194.875 60.464 194.963 59.848C195.139 58.88 196.019 55.536 197.691 55.096C199.275 54.656 200.859 56.064 200.859 57.824C200.859 59.76 199.715 61.608 199.363 63.544C198.307 69.176 197.603 74.72 197.603 80.352V88.712C197.691 90.208 195.051 90.736 194.435 89.064C193.819 87.392 193.379 86.16 193.203 82.816ZM150.171 77.36C150.259 73.224 151.491 68.912 153.251 65.128C154.131 63.28 154.659 60.024 157.475 60.024C158.795 60.024 160.203 60.64 160.291 62.048C160.379 63.016 159.763 64.16 159.411 65.04C161.523 66.096 162.579 67.68 162.579 70.496C162.579 75.16 159.059 83.608 154.219 83.52C151.491 83.432 150.083 81.584 150.171 77.36ZM165.307 66.008C165.923 62.928 174.019 59.496 176.483 58.528C177.451 58.176 180.003 57.648 180.883 57.648C182.643 57.56 184.315 57.56 185.899 57.648C188.627 57.824 188.363 60.112 186.867 60.552C185.019 61.08 183.347 61.256 181.499 61.608C178.683 62.136 175.251 63.544 172.787 65.128C170.851 66.36 168.739 69 166.539 68.824C165.571 68.736 164.955 67.68 165.307 66.008ZM157.915 67.856C156.507 68.912 154.747 75.688 154.835 78.328C157.827 77.976 158.883 71.728 158.971 70.672C159.059 69.704 158.883 68.56 157.915 67.856ZM210.421 94.872C210.861 90.56 213.061 86.248 214.645 82.64C215.877 79.824 217.197 77.096 217.813 75.16C214.293 74.984 210.333 75.072 210.333 69.88C210.333 66.976 211.565 64.6 212.005 63.72C212.973 61.872 217.549 53.776 217.549 52.192C217.549 51.4 217.021 51.136 216.229 51.224C214.557 51.4 212.269 52.016 210.597 52.192C209.541 52.28 208.573 51.576 208.573 50.344C208.573 49.464 208.749 48.496 209.981 48.144C211.917 47.528 216.933 47.088 217.901 47.088C220.101 47.088 222.741 47.968 222.741 50.872C222.741 54.392 220.629 57.472 219.133 60.376C217.901 62.752 215.525 67.416 215.437 69.528C215.349 71.2 218.165 70.76 221.069 71.64C222.301 71.992 222.829 72.784 222.829 74.632C222.741 75.864 221.861 78.24 220.981 79.824C220.365 80.88 217.901 86.072 216.933 88.36C215.965 90.472 215.525 92.672 215.349 94.696C215.261 95.224 215.437 96.192 216.405 96.192C218.781 96.192 224.325 91.704 226.173 90.472C227.405 89.504 228.109 88.976 229.517 88.712C229.957 88.624 231.365 88.976 230.749 90.648C230.573 91.088 230.485 91.44 230.221 91.704C227.669 95.224 218.781 101.12 214.909 101.12C211.389 101.12 210.069 98.392 210.421 94.872ZM246.325 79.12C246.325 76.656 246.501 73.928 246.677 71.376L235.765 75.776C235.413 76.04 235.061 76.216 234.181 76.656C233.037 77.184 231.101 78.328 229.869 78.328C228.813 78.328 227.845 77.712 227.581 76.392C227.317 75.248 227.669 73.84 228.461 73.4C228.813 73.224 229.957 73.048 230.485 72.872C234.181 71.904 245.005 67.504 247.117 64.952C247.733 64.16 248.349 62.752 248.349 61.608L248.613 58.968C248.613 57.824 251.253 57.296 252.573 57.472C253.805 57.648 254.597 58.176 254.597 59.76C254.597 62.84 252.573 65.656 252.221 68.824C251.957 70.848 251.605 76.04 251.605 76.656C251.429 81.232 251.605 85.104 251.605 89.504C251.605 90.296 250.373 90.648 249.581 90.648C247.821 90.648 247.205 88.712 246.941 87.568C246.501 85.632 246.325 83.432 246.325 79.12ZM284.288 102.792C284.024 102.792 282.792 102.704 282.968 100.24C283.056 98.568 283.672 95.136 284.464 93.376C285.256 91.616 287.016 88.008 287.72 86.336C288.424 84.752 288.952 83.696 289.48 81.76C284.024 82.64 277.688 84.048 272.584 86.072C271.968 86.336 269.768 87.128 269.152 87.48C267.48 88.36 266.336 90.032 264.312 90.032C262.816 90.032 262.024 88.888 262.024 87.216C262.024 84.576 267.832 82.728 269.768 82.112C277.512 79.648 278.92 79.208 280.328 78.856C284.112 77.976 305.672 73.136 305.672 79.208C305.672 80.352 305.056 81.32 304 81.32C302.592 81.32 301.36 80.616 299.952 80.616C297.928 80.616 296.344 80.792 294.672 81.144C294.672 82.024 294.584 83.256 294.144 84.048C293.968 84.4 292.736 86.776 292.12 88.008C291.592 89.064 289.656 93.376 288.6 95.752C288.336 96.28 287.192 99.712 286.928 100.24C286.576 101.384 285.696 102.792 284.288 102.792ZM276.72 54.744C276.544 52.544 276.632 50.432 276.632 48.32C276.632 46.384 276.544 45.24 276.72 43.568C276.808 42.6 277.424 41.896 278.92 41.896C280.592 41.896 281.384 42.6 281.296 43.92C281.208 45.152 281.032 46.296 281.032 48.32C281.032 49.992 281.032 50.96 281.208 52.984C281.208 53.336 281.648 53.6 282 53.6C283.584 53.512 285.872 52.72 287.456 52.016C288.072 51.752 288.16 50.872 288.16 50.872C288.248 50.52 288.512 49.024 288.6 48.672C288.776 47.528 289.48 44.712 289.744 43.656C289.92 42.952 290.448 42.248 292.032 42.248C293.528 42.248 294.408 42.776 294.056 44.272C293.616 46.384 293.264 47.616 292.824 49.992C292.736 50.344 292.208 52.632 292.12 53.424C291.944 55.36 290.624 65.656 290.096 67.68C289.48 70.056 287.456 71.464 285.08 71.464C281.296 71.464 278.656 66.36 278.04 62.928C277.776 61.256 276.984 57.824 276.72 54.744ZM282 59.672C282 60.728 283.496 67.064 285.08 67.064C286.136 67.064 286.664 65.92 286.752 64.952C286.84 63.984 286.84 62.928 286.928 61.96C286.928 61.608 287.104 59.32 287.104 58.968V57.912C287.104 57.296 287.104 56.944 286.4 56.944C284.728 56.944 282 58.264 282 59.672ZM267.128 111.152C267.128 105.784 268.624 104.816 271.088 100.24C271.264 99.888 271.968 99.272 272.584 99.184C273.552 98.92 275.488 98.92 275.84 99.976C276.28 101.12 274.96 102.704 274.432 103.584C273.288 105.344 271.88 107.192 271.968 109.656C272.056 111.064 273.024 111.328 274.52 110.976C281.032 109.48 294.848 106.048 301.008 105.608C302.944 105.432 303.12 109.04 300.92 109.304C298.632 109.568 289.392 112.032 281.648 113.968C278.216 114.848 274.784 116.168 271.352 116.168C268.536 116.168 267.128 113.704 267.128 111.152ZM318.312 69C318.312 63.72 321.657 58.44 324.121 56.24C324.825 55.624 325.441 55.888 326.321 55.536C326.761 55.36 327.025 54.92 328.081 54.92C330.544 54.92 332.305 57.912 332.305 60.552C332.305 66.008 329.137 72.344 322.537 72.608C320.248 72.696 318.312 71.376 318.312 69ZM327.993 58.88C325.969 60.112 323.505 65.04 323.505 68.384C326.145 68.384 328.609 63.896 328.609 60.552C328.609 59.848 328.345 59.32 327.993 58.88ZM353.249 86.864C353.249 82.112 354.041 78.064 354.657 73.136C348.849 77.8 341.809 80.968 334.417 84.224C328.521 86.864 320.689 89.24 313.385 89.504C311.889 89.592 311.273 88.536 311.273 86.864C311.273 84.84 315.497 84.576 317.961 84.048C325.969 82.2 333.889 79.912 341.105 76.04C346.209 73.312 353.249 69.176 355.8 64.16C356.153 63.368 358.353 53.424 358.529 52.632C358.969 50.784 361.081 50.608 362.929 51.752C363.369 52.016 363.897 53.248 363.809 54.392C363.721 56.064 361.873 61.432 361.433 63.016C359.497 70.056 359.321 73.84 358.617 80.968C358.089 86.6 357.825 89.68 356.769 93.112C356.417 94.344 355.009 94.52 354.129 93.464C353.513 92.848 353.249 90.296 353.249 86.864ZM428.33 80.352C428.33 78.768 428.418 74.368 428.418 74.104C428.418 71.816 429.034 62.752 429.386 60.464C430.002 56.504 430.706 52.28 432.026 48.496C432.202 47.968 433.17 47.792 434.314 47.792C435.722 47.792 436.69 48.672 436.69 50.08C436.69 50.96 436.426 52.104 436.25 53.072C435.106 57.736 434.314 62.312 433.962 67.064C433.61 70.76 433.522 71.64 433.258 75.336V78.328C435.898 77.184 437.658 76.568 439.242 76.128C441.09 75.6 444.522 74.456 447.778 74.192C449.802 74.016 449.89 75.336 449.362 76.216C449.186 76.568 448.658 76.832 448.394 77.008C446.898 77.712 445.754 78.24 444.082 78.944C440.562 80.44 436.25 82.112 433.258 84.224C433.258 84.752 433.082 87.304 433.082 87.832V90.12C433.082 90.824 433.17 93.816 433.258 94.168C433.434 95.576 434.314 97.864 432.466 98.128C431.498 98.304 430.09 98.128 429.474 96.544C429.21 95.84 428.946 94.784 428.77 93.552C428.594 91.968 428.418 90.296 428.418 88.448C428.418 88.008 428.33 82.376 428.33 80.352ZM400.522 89.856C400.61 87.832 401.138 86.16 401.842 84.136C402.458 82.464 404.042 79.208 404.658 78.24C405.362 77.096 406.682 74.456 408.178 73.928C408.706 73.752 409.41 73.84 409.674 73.928C410.906 74.192 411.962 74.808 411.346 76.392C410.994 77.36 410.642 78.24 410.202 79.56C410.642 79.824 410.994 80.264 411.346 80.616C412.754 82.2 413.194 83.696 413.018 85.808C412.666 90.032 411.346 93.024 407.826 95.224C406.946 95.752 404.922 96.104 403.866 95.664C401.314 94.696 400.434 91.968 400.522 89.856ZM391.634 75.512C390.842 74.72 390.842 73.224 391.458 72.344C391.898 71.64 394.274 69.792 394.802 69.352C397.178 67.856 399.378 67.064 401.666 66.272C404.922 65.128 407.826 64.512 410.994 64.072C413.282 63.984 417.594 63.544 420.322 64.072C421.994 64.248 422.522 67.064 419.53 67.416C417.066 67.68 411.258 68.032 408.09 68.912C405.098 69.528 403.602 70.408 400.258 71.992C399.114 72.52 397.706 73.224 396.738 74.104C395.33 75.336 394.802 76.216 393.042 76.04C392.514 76.04 391.986 75.776 391.634 75.512ZM400.434 54.304C400.434 49.112 401.93 44.448 403.514 39.872C403.954 38.64 404.922 38.2 406.33 38.2C406.77 38.2 408.266 38.552 408.266 39.608C408.266 41.016 408.178 41.896 407.65 43.392C407.298 44.624 406.946 46.032 406.33 47.352C405.01 50.344 404.834 53.688 404.658 56.944C404.482 59.76 404.57 62.224 402.81 62.224C402.194 62.224 401.402 61.168 401.138 60.376C400.61 58.44 400.434 56.24 400.434 54.304ZM405.538 89.68C405.538 89.944 405.45 90.912 405.626 91.352C406.066 91.352 406.77 91.088 407.122 90.648C408.706 88.888 408.97 87.92 409.322 85.456C409.498 84.136 409.234 83.256 408.794 82.464C407.386 83.872 405.802 87.216 405.538 89.68ZM461.282 74.456C461.458 73.312 461.898 72.08 462.426 70.848C462.954 69.704 465.418 65.656 466.122 64.688C467.354 62.928 468.938 60.904 470.17 59.056C470.61 58.264 471.138 57.472 471.49 56.768C470.258 56.592 469.466 56.592 467.97 56.328C465.066 55.8 462.426 54.48 463.57 50.608C464.538 47.352 466.298 44.8 468.146 41.456C468.498 40.752 468.938 40.048 469.378 39.432C469.818 38.552 469.378 37.408 468.586 37.496C467.706 37.496 466.298 37.672 465.066 37.936C463.834 38.2 461.81 38.64 460.49 38.728C459.258 38.816 458.73 37.672 458.906 36.616C458.994 35.384 460.402 34.768 462.426 34.24C464.538 33.712 469.114 33.184 470.522 33.36C474.306 33.888 474.922 35.472 474.306 38.992C473.778 40.928 472.634 42.776 471.842 44.36C470.434 46.736 469.378 48.408 468.498 50.784C468.234 51.312 468.234 52.104 469.466 52.456C471.05 52.72 472.634 52.984 473.954 53.336C475.538 53.864 477.122 54.392 477.034 56.152C476.77 57.12 476.33 58.352 475.714 59.232C474.834 60.552 474.042 61.784 472.898 63.28C471.402 65.568 469.73 67.328 468.41 69.704C467.354 71.552 467.09 72.256 466.65 73.488C466.474 73.752 466.562 74.368 467.354 74.28C468.938 74.016 469.994 73.752 471.226 73.4C472.018 73.136 476.594 71.2 477.562 70.848C479.938 69.968 480.818 69.616 481.962 69.616C483.37 69.528 483.546 71.376 482.138 72.608C480.114 74.368 469.73 79.208 465.066 79.12C461.634 78.856 460.754 77.272 461.282 74.456ZM472.546 121.184C472.546 115.288 474.042 106.224 474.834 100.328C475.098 98.304 475.274 96.104 475.626 94.08C475.802 93.024 476.506 91.968 477.65 91.968C479.058 91.968 480.73 92.408 480.466 94.344C479.938 97.6 478.618 101.736 478.266 106.048C477.738 111.856 477.034 117.048 476.594 121.184C476.506 121.712 475.89 123.912 474.482 123.912C472.81 123.912 472.546 121.448 472.546 121.184ZM450.722 94.256C450.546 92.056 456.266 89.592 458.378 88.448C464.802 85.544 469.906 84.312 476.77 83.52C479.938 83.168 485.394 82.904 488.65 83.344C490.146 83.52 491.29 84.224 492.082 85.016C492.434 85.368 492.434 86.776 492.082 86.864L491.554 87.04C490.234 86.952 489.002 86.864 487.682 86.864C486.45 86.688 482.754 86.776 478.706 87.216C471.93 88.008 465.946 90.032 459.786 92.848C458.466 93.464 456.882 94.344 456.002 95.136C454.682 96.28 454.242 97.072 452.658 97.248C451.338 97.336 450.898 95.4 450.722 94.256ZM533.7 96.016C533.7 90.648 536.34 86.776 538.804 82.2C538.98 81.848 539.684 81.232 540.3 81.144C541.268 80.88 543.468 80.88 543.82 81.936C544.26 83.08 542.94 84.664 542.412 85.544C542.06 86.072 541.532 86.6 541.092 87.656C540.652 88.712 539.86 90.032 539.244 91.616C538.892 92.584 538.54 93.464 538.54 94.52C538.54 95.928 539.596 96.104 541.092 95.84C546.9 94.696 551.564 92.232 557.284 91.528C559.22 91.264 559.308 94.784 557.108 95.224C554.908 95.664 543.028 100.24 540.828 100.68C540.388 100.768 539.068 101.032 538.364 101.032H537.924C535.108 101.032 533.7 98.568 533.7 96.016ZM523.14 61.96C523.14 59.672 523.932 56.768 524.46 54.92C524.9 53.424 527.364 47.616 528.156 46.296C528.684 45.328 530.004 45.328 530.796 45.328C532.292 45.328 532.908 46.208 532.908 47.088C532.908 47.528 532.556 48.496 532.556 48.496C530.444 52.632 528.244 57.56 527.892 60.992C529.388 60.816 531.236 60.376 532.82 60.024C535.9 59.32 538.188 58.616 540.652 58.088C542.412 57.736 543.38 58.704 543.556 59.584C543.82 60.816 543.116 61.256 542.5 61.608C541.62 62.048 538.628 63.192 537.22 63.632C533.7 64.688 529.564 66.096 526.836 66.096C523.58 66.096 523.14 64.336 523.14 61.96ZM517.42 77.976C517.42 77.008 518.388 76.304 518.828 76.128C526.924 72.696 536.428 71.904 545.58 71.904H550.244C554.116 71.904 557.108 72.344 559.308 72.872C561.332 73.312 563.532 74.28 562.74 76.216C562.564 76.656 561.86 76.656 561.332 76.656C559.924 76.656 556.756 76.304 554.38 76.04C552.708 75.864 551.036 75.776 549.364 75.776C542.588 75.776 532.82 76.392 526.484 78.328C524.636 78.856 521.556 80.616 519.972 80.792C518.124 80.968 517.42 79.384 517.42 77.976ZM625.7 78.592C625.788 77.888 625.876 76.304 626.052 75.512L627.636 68.296C626.756 68.648 625.172 69.44 623.676 69.968C620.332 71.2 616.724 72.608 613.204 73.752C611.62 74.28 610.124 74.808 608.276 74.808C606.692 74.808 605.812 74.544 605.812 72.96C605.812 72.432 606.164 70.672 607.044 70.408C607.308 70.32 609.508 69.88 609.86 69.792C613.82 68.736 616.02 67.944 617.164 67.592C618.22 67.24 619.364 66.888 620.332 66.536C623.06 65.48 628.78 63.896 629.66 60.904C630.012 59.848 630.54 56.944 630.628 56.68C630.804 55.888 632.476 55.448 633.004 55.448C634.94 55.448 635.644 56.152 635.644 57.912C635.644 60.728 633.884 63.192 633.268 65.656C631.596 71.904 630.1 78.328 630.1 84.84C630.1 88.008 630.804 91.44 631.156 93.816C631.156 94.608 630.452 95.048 629.748 95.048C628.252 95.048 627.284 94.08 626.932 92.848C626.668 91.968 625.7 88.888 625.7 86.688C625.612 83.96 625.524 81.32 625.7 78.592ZM590.236 77.36C590.324 73.224 591.556 68.912 593.316 65.128C594.196 63.28 594.724 60.024 597.54 60.024C598.86 60.024 600.268 60.64 600.356 62.048C600.444 63.016 599.828 64.16 599.476 65.04C601.588 66.096 602.644 67.68 602.644 70.496C602.644 75.16 599.124 83.608 594.284 83.52C591.556 83.432 590.148 81.584 590.236 77.36ZM597.98 67.856C596.572 68.912 594.812 75.688 594.9 78.328C597.892 77.976 598.948 71.728 599.036 70.672C599.124 69.704 598.948 68.56 597.98 67.856ZM700.216 71.2C700.304 70.232 700.392 69.264 700.568 68.296C699.248 69.088 697.84 69.968 696.696 70.936C692.824 74.544 691.768 75.16 692.032 77.272C692.032 77.448 692.208 78.856 692.208 78.944C692.208 79.912 691.24 80.616 690.184 80.616C686.664 80.616 686.664 77.096 686.136 74.544C685.08 69.704 684.992 65.92 684.992 60.992C684.992 56.24 685.52 52.104 686.312 46.472C686.4 45.592 688.248 45.328 689.48 45.768C690.976 46.296 691.328 47.176 691.152 48.32C690.184 53.776 689.568 57.56 689.744 63.896C689.744 64.688 690.008 69.352 690.624 70.76C693.264 68.12 696.696 65.568 700.216 63.984C700.48 63.896 700.92 63.72 701.36 63.632C701.888 60.816 702.592 58 703.296 55.096C703.824 53.16 704.352 50.96 704.88 48.848C705.144 47.88 705.848 47.264 706.552 47.352C708.136 47.528 710.16 48.584 709.984 50.168C709.72 53.072 707.784 56.592 707.08 59.408C705.584 65.04 704.352 70.672 703.736 77.184C703.648 78.504 702.856 79.296 701.36 79.12C700.744 79.12 700.04 78.504 699.952 77.184C699.864 75.248 700.04 73.312 700.216 71.2ZM671.176 60.64C670.56 60.816 669.944 60.904 669.416 61.08C669.328 61.608 669.152 62.136 668.976 62.928C668.36 65.216 668.008 71.288 668.008 72.608C671 71.376 675.048 69.44 677.512 67.768C678.656 66.976 680.064 66.8 680.944 67.68C681.648 68.384 681.56 69.088 681.12 69.88C680.328 71.024 679.184 71.904 677.776 72.872C676.192 73.928 673.64 75.512 670.648 76.92C669.152 77.624 667.832 78.152 666.952 78.152C664.752 78.24 663.256 76.48 663.256 74.016C663.256 71.024 663.608 66.448 664.4 63.104C662.64 63.896 661.056 64.512 660 62.576C659.736 62.224 659.56 60.904 660.088 60.288C660.704 59.584 661.672 58.968 662.552 58.616C666.864 56.856 669.944 56.064 674.432 56.064C676.632 56.064 677.512 56.68 677.512 58.088C677.512 59.584 676.544 59.848 674.872 60.112C674.256 60.2 672.936 60.2 671.176 60.64ZM698.368 93.992C697.488 94.696 696.344 95.84 695.552 96.632C694.144 98.128 693.704 99.536 691.504 99.712C690.096 99.8 688.952 98.304 689.744 96.544C690.008 96.104 690.624 95.312 690.888 94.96C695.64 90.032 700.128 85.456 705.144 81.144C706.464 80 709.632 81.32 709.016 83.432C708.4 85.632 703.472 88.624 702.68 90.472C702.856 95.488 706.376 99.624 707.96 102.44C708.664 103.76 709.192 105.256 708.224 105.432C707.168 105.696 706.024 105.52 705.144 104.728C704.088 103.76 702.768 102.088 701.976 100.856C700.744 99.096 698.72 94.872 698.368 93.992ZM676.368 96.984C675.312 97.776 673.904 98.92 672.76 100.152C671.352 101.56 671.264 103.584 669.416 103.848C667.568 104.2 666.776 103.144 666.776 101.736C666.776 100.592 667.04 99.712 668.008 98.744C671.704 94.168 676.72 90.12 681.296 86.688C681.736 86.424 682.616 86.072 683.232 86.072C684.288 86.072 685.872 86.952 685.872 88.36C685.872 90.56 680.592 92.496 680.768 94.168C681.032 95.928 684.376 100.152 686.576 102C687.632 103.056 686.576 104.904 685.52 104.728C681.12 103.936 678.216 99.448 676.368 96.984ZM643.632 79.208C642.84 78.24 642.664 76.392 642.752 74.808C643.192 70.408 644.512 66.36 646.184 62.312C646.36 61.872 647.328 60.024 649.088 60.024C649.968 60.024 650.848 60.288 651.376 61.344C651.552 61.872 651.464 62.312 651.376 62.664C650.848 64.336 650.496 64.776 649.792 66.448C648.736 68.912 647.68 71.992 647.504 74.368C647.416 75.776 647.856 76.656 649.528 76.568C653.576 76.392 654.456 75.336 658.152 73.84C659.384 73.312 660.44 73.312 661.232 74.104C661.584 74.456 661.848 74.984 661.584 75.776C661.408 76.392 660.704 77.096 659.56 77.8C656.48 79.824 653.136 80.792 651.464 81.232C650.232 81.496 649.704 81.496 648.824 81.496C646.536 81.496 645.04 80.792 643.632 79.208ZM641.696 57.296C641.696 55.712 642.752 54.832 644.16 54.04C647.064 52.456 651.728 51.4 653.136 51.312C655.424 51.136 656.656 50.96 658.768 51.4C660.44 51.752 661.584 52.368 661.672 53.6C661.76 55.008 661.144 55.536 660 55.624C658.064 55.8 656.92 55.8 654.808 55.976C653.048 56.064 651.464 56.328 649.792 56.856C648.032 57.472 646.8 58.176 644.688 58.792C643.456 59.144 641.784 59.232 641.696 57.296ZM719.347 82.728C718.819 79.384 719.611 67.856 721.107 61.344C721.371 60.2 721.547 58.088 724.011 58.088C725.067 58.088 726.387 59.232 726.123 60.64C725.683 62.928 725.243 67.592 724.715 69.792C724.275 71.816 723.923 76.128 723.835 78.944C723.747 80.616 724.715 81.144 725.683 80.792C730.699 79.208 738.443 75.248 741.699 74.456C742.491 74.28 742.931 74.72 743.195 75.248C743.459 75.952 743.283 77.096 742.315 77.888C741.347 78.768 740.203 79.472 739.059 80.176C737.123 81.408 728.587 85.632 724.627 86.424C722.427 86.864 719.787 85.456 719.347 82.728ZM749.795 94.344C749.531 93.376 749.531 84.664 749.443 83.96C749.355 83.256 749.003 82.728 749.091 81.936C750.147 72.696 751.555 60.288 753.579 50.96C753.843 49.904 754.107 48.584 755.603 48.584C757.275 48.584 758.331 49.64 758.331 51.312C758.331 53.336 757.363 55.096 757.011 56.768C755.779 62.224 754.811 71.64 754.459 77.448C757.275 76.128 764.227 74.808 767.659 74.72C767.659 74.72 769.419 74.632 769.771 74.808C770.299 75.072 770.651 75.248 770.387 76.392C769.947 78.24 760.707 79.384 757.011 81.496C755.163 82.552 754.195 84.048 754.195 86.336C754.195 88.8 754.987 96.456 754.987 98.832C754.987 99.8 753.843 100.24 753.227 100.24C750.499 100.24 750.235 96.104 749.795 94.344ZM772.667 99.888C772.667 99.008 772.667 98.216 773.547 97.688C774.603 97.072 776.275 96.984 777.683 96.368C781.291 94.696 785.339 91.88 787.275 88.36C789.475 84.488 790.795 78.944 792.027 74.544C792.731 72.168 793.611 69.264 794.051 67.152C794.491 65.216 794.755 61.168 797.307 61.168C798.715 61.168 799.243 62.488 799.243 63.632C799.243 65.568 798.627 66.888 798.187 68.56C796.691 74.28 795.811 78.152 793.875 83.96C792.731 87.304 792.379 89.416 790.003 92.496C788.947 93.904 786.835 95.576 785.603 96.544C787.979 96.544 790.795 96.632 796.075 96.632C798.363 96.632 802.939 96.984 804.699 97.16C805.579 97.248 806.371 98.04 806.371 99.272C806.371 100.24 805.755 100.504 804.611 100.416C801.883 100.416 797.571 100.592 793.875 100.592C790.707 100.592 787.627 100.592 784.019 100.768C781.203 101.296 778.211 101.824 775.483 101.824C774.339 101.824 772.667 101.296 772.667 99.888ZM775.131 85.016C775.131 81.232 776.891 76.744 777.947 73.136C778.299 72.08 778.563 70.936 779.883 70.936C781.291 70.936 782.787 71.728 782.787 73.136C782.787 75.336 781.555 77.008 780.851 79.208C780.147 81.32 779.179 84.224 779.179 86.424C779.179 87.832 779.707 88.624 779.707 89.768C779.707 90.824 779.267 91.088 778.475 91.088C775.483 91.088 775.131 87.304 775.131 85.016ZM776.715 61.52C776.715 56.24 780.851 51.136 783.315 48.936C784.019 48.32 784.635 48.584 785.515 48.232C785.955 48.056 786.219 47.616 787.275 47.616C789.739 47.616 791.499 50.608 791.499 53.248C791.499 58.704 787.539 64.864 780.939 65.128C778.651 65.216 776.715 63.896 776.715 61.52ZM787.187 51.576C785.163 52.808 781.907 57.56 781.907 60.904C784.547 60.904 787.803 56.592 787.803 53.248C787.803 52.544 787.539 52.016 787.187 51.576ZM817.417 78.768C817.857 73.048 820.937 68.824 824.809 62.84C827.185 59.144 829.913 55.272 829.737 50.96C829.649 48.672 827.537 47.088 823.665 47C820.497 46.912 816.185 47.792 816.977 52.28C817.153 53.424 817.857 55.008 818.121 55.624C819.001 57.472 815.569 58.264 813.633 55.448C812.225 53.336 811.697 51.576 811.785 49.992C812.049 44.448 818.121 42.16 823.489 42.16C830.353 42.16 834.929 44.976 835.193 49.992C835.545 55.888 832.729 59.76 829.561 65.04C828.505 66.8 826.921 69.088 825.777 71.112C822.785 76.392 822.433 78.768 822.433 83.872C822.433 85.72 821.113 86.16 820.321 86.16C818.649 86.16 817.857 84.752 817.593 82.728C817.329 80.792 817.329 79.736 817.417 78.768ZM816.449 100.24C816.009 98.744 816.889 96.544 818.649 96.192C821.553 95.576 823.753 97.424 824.281 99.976C824.809 102.176 824.017 103.76 822.081 104.112C818.913 104.816 817.241 102.88 816.449 100.24Z" fill="white"/>
</svg>
