<svg width="428" height="274" viewBox="0 0 428 274" fill="none" xmlns="http://www.w3.org/2000/svg">
<path d="M248 71.8495C248 69.6401 249.791 67.8495 252 67.8495V65.233C249.791 65.233 248 63.4424 248 61.233C248 59.0236 249.791 57.233 252 57.233V54.6165C249.791 54.6165 248 52.8259 248 50.6165C248 48.4071 249.791 46.6165 252 46.6165V44C249.791 44 248 42.2094 248 40C248 37.7906 249.791 36 252 36V33.3835C249.791 33.3835 248 31.5929 248 29.3835C248 27.1741 249.791 25.3835 252 25.3835V22.767C249.791 22.767 248 20.9764 248 18.767C248 16.5576 249.791 14.767 252 14.767V12.1505C249.791 12.1505 248 10.3599 248 8.15051C248 5.94115 249.791 4.15051 252 4.15051V0H247.849C247.849 2.20936 246.059 4 243.85 4C241.64 4 239.849 2.20936 239.849 0H237.233C237.233 2.20936 235.442 4 233.233 4C231.024 4 229.233 2.20936 229.233 0H226.617C226.617 2.20936 224.826 4 222.617 4C220.407 4 218.616 2.20936 218.616 0H216C216 2.20936 214.209 4 212 4C209.791 4 208 2.20936 208 0H205.384C205.384 2.20936 203.593 4 201.384 4C199.174 4 197.384 2.20936 197.384 0H194.767C194.767 2.20936 192.976 4 190.767 4C188.558 4 186.767 2.20936 186.767 0H184.151C184.151 2.20936 182.36 4 180.151 4C177.941 4 176.151 2.20936 176.151 0H172V4.15051C174.209 4.15051 176 5.94115 176 8.15051C176 10.3599 174.209 12.1505 172 12.1505V14.767C174.209 14.767 176 16.5576 176 18.767C176 20.9764 174.209 22.767 172 22.767V25.3835C174.209 25.3835 176 27.1741 176 29.3835C176 31.5929 174.209 33.3835 172 33.3835V36C174.209 36 176 37.7906 176 40C176 42.2094 174.209 44 172 44V46.6165C174.209 46.6165 176 48.4071 176 50.6165C176 52.8259 174.209 54.6165 172 54.6165V57.233C174.209 57.233 176 59.0236 176 61.233C176 63.4424 174.209 65.233 172 65.233V67.8495C174.209 67.8495 176 69.6401 176 71.8495C176 74.0589 174.209 75.8495 172 75.8495V80H176.151C176.151 77.7906 177.941 76 180.151 76C182.36 76 184.151 77.7906 184.151 80H186.767C186.767 77.7906 188.558 76 190.767 76C192.976 76 194.767 77.7906 194.767 80H197.384C197.384 77.7906 199.174 76 201.384 76C203.593 76 205.384 77.7906 205.384 80H208C208 77.7906 209.791 76 212 76C214.209 76 216 77.7906 216 80H218.616C218.616 77.7906 220.407 76 222.617 76C224.826 76 226.617 77.7906 226.617 80H229.233C229.233 77.7906 231.024 76 233.233 76C235.442 76 237.233 77.7906 237.233 80H239.849C239.849 77.7906 241.64 76 243.85 76C246.059 76 247.849 77.7906 247.849 80H252V75.8495C249.791 75.8495 248 74.0589 248 71.8495Z" fill="#7B0000"/>
<path d="M215.107 56.4617C225.712 56.4617 234.309 53.7888 234.309 50.4916C234.309 47.1944 225.712 44.5215 215.107 44.5215C204.503 44.5215 195.906 47.1944 195.906 50.4916C195.906 53.7888 204.503 56.4617 215.107 56.4617Z" fill="#4F0000"/>
<path d="M189.981 38.4587C189.981 28.8726 197.752 21.1022 207.338 21.1022C216.924 21.1022 224.694 28.8726 224.694 38.4587C224.694 39.0202 224.794 41.7351 223.453 44.9131C220.999 50.7366 214.745 55.8596 207.336 55.8152C198.518 55.7631 189.979 48.3979 189.979 38.4587H189.981Z" fill="white"/>
<path opacity="0.1" d="M201.981 52.5151C201.253 51.8471 210.62 52.7909 216.282 46.6193C221.943 40.4478 221.332 34.3832 222.063 35.0531C222.792 35.7211 224.701 43.2344 219.039 49.4059C213.377 55.5774 202.712 53.185 201.981 52.5151Z" fill="#7B0000"/>
<path d="M120.985 128V127.04L122.041 126.752C122.553 126.592 122.889 126.368 123.049 126.08C123.209 125.76 123.305 125.344 123.337 124.832V115.328C123.337 114.272 123.337 113.376 123.337 112.64C123.337 111.904 123.321 111.04 123.289 110.048C123.289 109.504 123.209 109.088 123.049 108.8C122.889 108.48 122.537 108.256 121.993 108.128L120.985 107.888V107.024L128.761 104.24L129.337 104.768L129.673 107.984C130.793 106.96 132.041 106.08 133.417 105.344C134.793 104.608 136.201 104.24 137.641 104.24C139.241 104.24 140.489 104.56 141.385 105.2C142.281 105.84 142.969 106.816 143.449 108.128C144.665 106.912 146.009 105.968 147.481 105.296C148.953 104.592 150.409 104.24 151.849 104.24C154.025 104.24 155.657 104.784 156.745 105.872C157.833 106.96 158.377 108.672 158.377 111.008V124.88C158.377 125.904 158.825 126.544 159.721 126.8L160.633 127.04V128H149.833V127.04L150.697 126.8C151.561 126.512 151.993 125.856 151.993 124.832V110.768C151.993 109.392 151.737 108.464 151.225 107.984C150.745 107.472 149.945 107.216 148.825 107.216C147.961 107.216 147.145 107.392 146.377 107.744C145.609 108.096 144.761 108.64 143.833 109.376C144.025 110.336 144.121 111.44 144.121 112.688V124.88C144.153 125.424 144.249 125.856 144.409 126.176C144.601 126.464 144.953 126.672 145.465 126.8L146.281 127.04V128H135.433V127.04L136.441 126.752C136.953 126.592 137.289 126.368 137.449 126.08C137.641 125.76 137.737 125.344 137.737 124.832V110.816C137.737 109.504 137.497 108.576 137.017 108.032C136.537 107.488 135.721 107.216 134.569 107.216C133.097 107.216 131.513 107.92 129.817 109.328V124.88C129.817 125.936 130.265 126.576 131.161 126.8L131.977 127.04V128H120.985ZM176.05 128.672C173.682 128.672 171.602 128.176 169.81 127.184C168.05 126.192 166.674 124.784 165.682 122.96C164.722 121.136 164.242 118.96 164.242 116.432C164.242 113.904 164.754 111.728 165.778 109.904C166.834 108.08 168.242 106.688 170.002 105.728C171.794 104.736 173.81 104.24 176.05 104.24C178.29 104.24 180.29 104.736 182.05 105.728C183.842 106.688 185.25 108.08 186.274 109.904C187.33 111.696 187.858 113.872 187.858 116.432C187.858 118.96 187.362 121.152 186.37 123.008C185.41 124.832 184.05 126.24 182.29 127.232C180.53 128.192 178.45 128.672 176.05 128.672ZM176.05 127.328C177.202 127.328 178.13 127.024 178.834 126.416C179.57 125.776 180.098 124.672 180.418 123.104C180.738 121.536 180.898 119.344 180.898 116.528C180.898 113.68 180.738 111.472 180.418 109.904C180.098 108.304 179.57 107.2 178.834 106.592C178.13 105.952 177.202 105.632 176.05 105.632C174.898 105.632 173.97 105.952 173.266 106.592C172.562 107.2 172.034 108.304 171.682 109.904C171.362 111.472 171.202 113.68 171.202 116.528C171.202 119.344 171.362 121.536 171.682 123.104C172.034 124.672 172.562 125.776 173.266 126.416C173.97 127.024 174.898 127.328 176.05 127.328ZM203.74 128.672C201.372 128.672 199.292 128.176 197.5 127.184C195.74 126.192 194.364 124.784 193.372 122.96C192.412 121.136 191.932 118.96 191.932 116.432C191.932 113.904 192.444 111.728 193.468 109.904C194.524 108.08 195.932 106.688 197.692 105.728C199.484 104.736 201.5 104.24 203.74 104.24C205.98 104.24 207.98 104.736 209.74 105.728C211.532 106.688 212.94 108.08 213.964 109.904C215.02 111.696 215.548 113.872 215.548 116.432C215.548 118.96 215.052 121.152 214.06 123.008C213.1 124.832 211.74 126.24 209.98 127.232C208.22 128.192 206.14 128.672 203.74 128.672ZM203.74 127.328C204.892 127.328 205.82 127.024 206.524 126.416C207.26 125.776 207.788 124.672 208.108 123.104C208.428 121.536 208.588 119.344 208.588 116.528C208.588 113.68 208.428 111.472 208.108 109.904C207.788 108.304 207.26 107.2 206.524 106.592C205.82 105.952 204.892 105.632 203.74 105.632C202.588 105.632 201.66 105.952 200.956 106.592C200.252 107.2 199.724 108.304 199.372 109.904C199.052 111.472 198.892 113.68 198.892 116.528C198.892 119.344 199.052 121.536 199.372 123.104C199.724 124.672 200.252 125.776 200.956 126.416C201.66 127.024 202.588 127.328 203.74 127.328ZM219.196 128V127.088L219.964 126.896C221.02 126.576 221.548 125.792 221.548 124.544V110.384C221.516 109.712 221.404 109.2 221.212 108.848C221.02 108.464 220.604 108.208 219.964 108.08L219.196 107.888V107.024L226.972 104.24L227.548 104.768L227.884 107.744C229.036 106.72 230.316 105.888 231.724 105.248C233.164 104.576 234.572 104.24 235.948 104.24C238.06 104.24 239.676 104.816 240.796 105.968C241.948 107.12 242.524 108.88 242.524 111.248V124.592C242.524 125.84 243.1 126.624 244.252 126.944L244.78 127.088V128H233.74V127.088L234.46 126.896C235.516 126.544 236.044 125.76 236.044 124.544V110.288C236.044 109.168 235.804 108.352 235.324 107.84C234.844 107.328 234.044 107.072 232.924 107.072C231.356 107.072 229.724 107.76 228.028 109.136V124.592C228.028 125.84 228.588 126.624 229.708 126.944L230.188 127.088V128H219.196ZM254.15 101.6C253.094 101.6 252.198 101.264 251.462 100.592C250.726 99.92 250.358 99.072 250.358 98.048C250.358 96.992 250.726 96.144 251.462 95.504C252.198 94.832 253.094 94.496 254.15 94.496C255.206 94.496 256.102 94.832 256.838 95.504C257.574 96.144 257.942 96.992 257.942 98.048C257.942 99.072 257.574 99.92 256.838 100.592C256.102 101.264 255.206 101.6 254.15 101.6ZM246.998 139.568C245.238 139.568 243.99 139.264 243.254 138.656C242.486 138.048 242.102 137.264 242.102 136.304C242.102 135.44 242.406 134.736 243.014 134.192C243.622 133.68 244.342 133.424 245.174 133.424C246.006 133.424 246.758 133.632 247.43 134.048C248.134 134.464 248.694 135.088 249.11 135.92L249.494 136.688C249.75 137.104 250.022 137.232 250.31 137.072C250.598 136.944 250.758 136.48 250.79 135.68C250.854 134.112 250.902 132.496 250.934 130.832C250.966 129.168 250.982 127.088 250.982 124.592V110.288C250.95 108.976 250.294 108.224 249.014 108.032L248.294 107.888V107.024L256.838 104.24L257.51 104.768L257.366 111.584V124.688C257.366 126.832 257.27 128.624 257.078 130.064C256.918 131.504 256.614 132.72 256.166 133.712C255.75 134.736 255.142 135.664 254.342 136.496C253.254 137.584 252.086 138.368 250.838 138.848C249.59 139.328 248.31 139.568 246.998 139.568ZM268.425 101.6C267.369 101.6 266.473 101.264 265.737 100.592C265.001 99.92 264.633 99.072 264.633 98.048C264.633 96.992 265.001 96.144 265.737 95.504C266.473 94.832 267.369 94.496 268.425 94.496C269.481 94.496 270.377 94.832 271.113 95.504C271.849 96.144 272.217 96.992 272.217 98.048C272.217 99.072 271.849 99.92 271.113 100.592C270.377 101.264 269.481 101.6 268.425 101.6ZM262.905 128V127.088L263.625 126.896C264.265 126.704 264.697 126.416 264.921 126.032C265.145 125.648 265.273 125.136 265.305 124.496V115.664C265.305 114.672 265.305 113.76 265.305 112.928C265.305 112.064 265.289 111.184 265.257 110.288C265.257 109.648 265.129 109.152 264.873 108.8C264.649 108.416 264.217 108.16 263.577 108.032L262.905 107.888V107.024L271.305 104.24L271.881 104.768L271.737 111.584V124.544C271.737 125.184 271.849 125.696 272.073 126.08C272.329 126.464 272.761 126.752 273.369 126.944L273.897 127.088V128H262.905ZM277.469 128V127.088L278.237 126.896C279.293 126.576 279.821 125.792 279.821 124.544V110.384C279.789 109.712 279.677 109.2 279.485 108.848C279.293 108.464 278.877 108.208 278.237 108.08L277.469 107.888V107.024L285.245 104.24L285.821 104.768L286.157 107.744C287.309 106.72 288.589 105.888 289.997 105.248C291.437 104.576 292.845 104.24 294.221 104.24C296.333 104.24 297.949 104.816 299.069 105.968C300.221 107.12 300.797 108.88 300.797 111.248V124.592C300.797 125.84 301.373 126.624 302.525 126.944L303.053 127.088V128H292.013V127.088L292.733 126.896C293.789 126.544 294.317 125.76 294.317 124.544V110.288C294.317 109.168 294.077 108.352 293.597 107.84C293.117 107.328 292.317 107.072 291.197 107.072C289.629 107.072 287.997 107.76 286.301 109.136V124.592C286.301 125.84 286.861 126.624 287.981 126.944L288.461 127.088V128H277.469Z" fill="#333333"/>
<path d="M12.7741 211.44C12.2407 211.44 11.6541 211.307 11.0141 211.04C9.52073 210.613 8.00073 209.707 6.45406 208.32C4.80073 206.88 3.3874 205.173 2.21406 203.2C1.04073 201.173 0.347396 199.2 0.134062 197.28C0.0807291 197.067 0.0540624 196.8 0.0540624 196.48C0.0540624 196.16 0.0540624 195.787 0.0540624 195.36C0.0540624 188.427 4.32073 184.96 12.8541 184.96C17.1741 184.96 21.9207 185.653 27.0941 187.04C32.3207 188.427 38.3207 190.267 45.0941 192.56C46.3207 192.987 47.4407 193.387 48.4541 193.76C49.5207 194.08 50.4807 194.373 51.3341 194.64C53.4141 195.227 55.2274 195.52 56.7741 195.52C58.5341 195.52 59.7874 195.173 60.5341 194.48C61.3341 193.787 61.7341 193.013 61.7341 192.16V191.84C61.7341 191.2 61.9207 190.88 62.2941 190.88C62.7207 190.88 63.1741 191.2 63.6541 191.84C63.7607 191.947 63.8141 192.16 63.8141 192.48C63.8141 193.707 63.0941 194.853 61.6541 195.92C60.2141 196.987 58.4274 197.52 56.2941 197.52C55.9741 197.52 55.6807 197.52 55.4141 197.52C55.2007 197.52 54.9874 197.493 54.7741 197.44C52.6941 197.173 50.4007 196.693 47.8941 196C45.4407 195.253 42.4007 194.267 38.7741 193.04C33.7074 191.333 29.4941 190.027 26.1341 189.12C22.7741 188.213 19.6541 187.76 16.7741 187.76C13.6274 187.76 10.9607 188.453 8.77406 189.84C6.64073 191.227 5.0674 193.493 4.05406 196.64C3.89406 197.12 3.81406 197.653 3.81406 198.24C3.81406 199.253 4.05406 200.4 4.53406 201.68C5.01406 202.907 5.65406 204.107 6.45406 205.28C7.25406 206.453 8.1074 207.467 9.01406 208.32C9.92073 209.12 10.7741 209.6 11.5741 209.76C12.8541 210.027 13.4941 210.453 13.4941 211.04C13.4941 211.307 13.2541 211.44 12.7741 211.44ZM14.2941 239.52C13.0674 239.52 12.5074 238.72 12.6141 237.12C13.0407 233.76 14.1074 230.16 15.8141 226.32C16.6674 224.347 17.8941 221.813 19.4941 218.72C21.1474 215.573 23.1741 211.893 25.5741 207.68C27.2274 204.693 28.5607 202.373 29.5741 200.72C30.6407 199.067 31.7607 197.84 32.9341 197.04C33.9474 196.347 34.9074 196 35.8141 196C36.6674 196 36.8807 196.347 36.4541 197.04C35.6007 198.213 34.5607 199.707 33.3341 201.52C32.1607 203.28 30.8007 205.36 29.2541 207.76C27.2274 210.96 25.2541 214.213 23.3341 217.52C21.4141 220.827 19.7874 223.867 18.4541 226.64C17.1207 229.36 16.2407 231.547 15.8141 233.2C15.6541 233.84 15.5741 234.373 15.5741 234.8C15.5741 235.707 15.9474 236.16 16.6941 236.16C17.8674 236.16 20.0007 234.96 23.0941 232.56C23.2007 232.453 23.3341 232.4 23.4941 232.4C23.7074 232.4 23.8141 232.533 23.8141 232.8C23.8141 233.12 23.7074 233.387 23.4941 233.6C23.2807 233.813 23.0141 234.027 22.6941 234.24C22.3741 234.507 22.0007 234.8 21.5741 235.12C21.1474 235.387 20.7741 235.627 20.4541 235.84C20.1341 236.053 19.9207 236.213 19.8141 236.32C19.1207 236.8 18.5341 237.2 18.0541 237.52C17.5741 237.893 17.2007 238.187 16.9341 238.4C15.8674 239.147 14.9874 239.52 14.2941 239.52ZM31.4347 238.72C30.3147 238.72 29.8347 238.16 29.9947 237.04C30.3147 235.013 30.8747 232.987 31.6747 230.96C32.1014 229.893 32.6347 228.667 33.2747 227.28C33.968 225.893 34.768 224.347 35.6747 222.64C36.1547 221.733 36.5547 220.933 36.8747 220.24C37.248 219.547 37.5414 218.987 37.7547 218.56C38.128 217.813 38.5014 217.013 38.8747 216.16C39.3014 215.307 39.728 214.373 40.1547 213.36C42.1814 208.933 43.9147 205.467 45.3547 202.96C46.848 200.4 48.448 198.587 50.1547 197.52C50.2614 197.413 50.5547 197.413 51.0347 197.52C51.5147 197.573 51.968 197.68 52.3947 197.84C52.8747 198 53.168 198.187 53.2747 198.4C53.4347 198.773 53.5147 199.307 53.5147 200C53.5147 202.133 52.528 204.693 50.5547 207.68C49.488 209.28 48.128 211.04 46.4747 212.96C44.8747 214.827 42.9814 216.853 40.7947 219.04L39.3547 221.36C37.7547 223.92 36.5014 226.107 35.5947 227.92C34.7414 229.733 34.4214 231.333 34.6347 232.72C34.7414 233.04 34.8747 233.2 35.0347 233.2C35.1947 233.2 35.4614 233.067 35.8347 232.8C36.208 232.533 36.5814 232.213 36.9547 231.84C37.3814 231.467 37.7814 231.013 38.1547 230.48C38.4214 230.213 38.6347 229.92 38.7947 229.6C39.008 229.28 39.2214 228.987 39.4347 228.72C39.7547 228.133 40.0747 227.653 40.3947 227.28C41.408 225.573 42.2614 224.373 42.9547 223.68C44.128 222.507 45.168 221.92 46.0747 221.92C47.1414 221.92 48.0747 222.507 48.8747 223.68C49.728 224.8 50.6347 226.427 51.5947 228.56C52.288 230.16 52.928 231.387 53.5147 232.24C54.1014 233.04 54.6614 233.44 55.1947 233.44C55.728 233.44 56.3414 233.12 57.0347 232.48C57.6747 231.893 58.2347 231.573 58.7147 231.52C59.0347 231.893 59.008 232.373 58.6347 232.96C58.2614 233.493 57.7014 234 56.9547 234.48C56.2614 235.013 55.568 235.44 54.8747 235.76C54.1814 236.08 53.648 236.187 53.2747 236.08C51.7814 235.653 50.608 234.907 49.7547 233.84C48.9547 232.72 48.1547 231.28 47.3547 229.52C47.088 228.933 46.848 228.427 46.6347 228C46.4214 227.52 46.208 227.147 45.9947 226.88C45.6214 226.347 45.1147 226.08 44.4747 226.08C43.9947 226.08 43.4347 226.32 42.7947 226.8C42.1547 227.333 41.5147 227.973 40.8747 228.72C40.2347 229.413 39.6214 230.267 39.0347 231.28C38.6614 231.813 38.368 232.24 38.1547 232.56C37.9947 232.827 37.8614 233.013 37.7547 233.12C37.488 233.493 37.0614 234.027 36.4747 234.72C35.9414 235.467 35.3014 236.373 34.5547 237.44C34.288 237.76 33.8614 238.053 33.2747 238.32C32.7414 238.587 32.208 238.72 31.6747 238.72H31.4347ZM41.1947 215.76C41.3547 215.867 41.7547 215.627 42.3947 215.04C43.0347 214.4 43.7547 213.6 44.5547 212.64C45.408 211.627 46.2347 210.587 47.0347 209.52C47.888 208.4 48.5547 207.413 49.0347 206.56C50.688 203.733 51.5147 201.867 51.5147 200.96C51.5147 200.587 51.3814 200.32 51.1147 200.16C50.5814 199.733 49.8614 199.973 48.9547 200.88C48.048 201.733 47.1414 202.88 46.2347 204.32C45.328 205.707 44.5547 207.093 43.9147 208.48C43.5414 209.333 43.1414 210.293 42.7147 211.36C42.3414 212.427 42.0214 213.387 41.7547 214.24C41.488 215.04 41.3014 215.547 41.1947 215.76ZM64.9922 234.88C63.8722 234.88 62.8855 234.587 62.0322 234C60.6455 232.933 59.9522 231.333 59.9522 229.2C59.9522 227.067 60.6989 224.8 62.1922 222.4C63.6855 220 65.9522 217.787 68.9922 215.76C69.5255 215.387 70.2455 215.2 71.1522 215.2C72.3255 215.2 73.3655 215.52 74.2722 216.16C75.2322 216.8 75.6055 217.627 75.3922 218.64C75.0189 220.293 74.1922 221.76 72.9122 223.04C71.6855 224.32 70.2189 225.467 68.5122 226.48C66.8589 227.44 65.1522 228.373 63.3922 229.28C63.3389 229.44 63.2855 229.6 63.2322 229.76C63.2322 229.92 63.2322 230.08 63.2322 230.24C63.2322 230.987 63.4722 231.653 63.9522 232.24C64.4855 232.773 65.2055 233.04 66.1122 233.04C66.8055 233.04 67.3922 232.933 67.8722 232.72C68.7255 232.4 69.4189 232.107 69.9522 231.84C70.5389 231.573 71.2055 231.173 71.9522 230.64C72.6989 230.107 73.7122 229.307 74.9922 228.24C75.5789 227.813 75.9255 227.6 76.0322 227.6C76.3522 227.6 76.4589 227.84 76.3522 228.32C75.8189 229.173 74.8855 230.107 73.5522 231.12C72.2722 232.133 70.8322 233.013 69.2322 233.76C67.6855 234.507 66.2722 234.88 64.9922 234.88ZM63.8722 227.12C64.2989 227.12 65.1789 226.693 66.5122 225.84C67.8455 224.987 69.0989 224.053 70.2722 223.04C72.2989 221.173 73.3122 219.733 73.3122 218.72C73.3122 218.453 73.2322 218.213 73.0722 218C72.9122 217.733 72.6722 217.6 72.3522 217.6C71.3389 217.6 69.6322 218.8 67.2322 221.2C65.5789 222.8 64.4589 224.773 63.8722 227.12ZM76.6916 235.28C75.7316 235.28 75.2516 234.907 75.2516 234.16C75.2516 233.68 75.4116 233.067 75.7316 232.32C76.1049 231.573 76.4782 230.853 76.8516 230.16C77.8649 228.347 78.7982 226.587 79.6516 224.88C80.5049 223.173 81.3316 221.36 82.1316 219.44C82.5049 218.587 83.0649 218.16 83.8116 218.16C84.6116 218.16 84.8516 218.64 84.5316 219.6C84.2116 220.4 83.8916 221.12 83.5716 221.76C82.0782 224.8 81.3316 226.853 81.3316 227.92C81.3316 228.4 81.4916 228.693 81.8116 228.8C82.5582 228.213 83.1182 227.787 83.4916 227.52C83.8649 227.2 84.0782 227.013 84.1316 226.96C84.8782 226.373 85.7049 225.707 86.6116 224.96C87.5716 224.16 88.6116 223.253 89.7316 222.24C91.4916 220.64 92.9582 219.84 94.1316 219.84C95.5716 219.84 96.1849 221.147 95.9716 223.76C95.9182 224.773 95.9182 225.76 95.9716 226.72C96.0249 226.933 96.0516 227.253 96.0516 227.68C96.0516 228.053 96.0516 228.507 96.0516 229.04C96.0516 229.573 96.3716 229.84 97.0116 229.84C97.7582 229.84 98.4516 229.627 99.0916 229.2L100.852 228L102.612 226.88C102.718 226.827 102.905 226.8 103.172 226.8C103.492 226.8 103.492 227.04 103.172 227.52C99.8116 231.68 97.0382 233.76 94.8516 233.76C94.4249 233.76 93.9982 233.68 93.5716 233.52C93.1982 233.36 92.9316 232.907 92.7716 232.16C92.6116 231.36 92.5049 230.507 92.4516 229.6C92.4516 228.693 92.4516 228 92.4516 227.52L92.5316 224.88C92.5316 223.76 92.2382 223.2 91.6516 223.2C90.2649 223.2 86.8516 226.053 81.4116 231.76C80.9849 232.293 80.3182 233.013 79.4116 233.92C78.5049 234.827 77.5982 235.28 76.6916 235.28ZM105.083 239.2C104.923 239.253 104.816 239.227 104.763 239.12V238.88C104.763 238.88 104.843 238.693 105.003 238.32C105.216 238 105.643 237.28 106.283 236.16C106.869 235.2 107.269 234.4 107.483 233.76H107.323C107.056 233.76 106.923 233.6 106.923 233.28C106.923 233.173 106.976 232.907 107.083 232.48C107.349 231.413 107.483 230.587 107.483 230C107.483 229.84 107.669 229.68 108.043 229.52C108.469 229.413 108.896 229.307 109.323 229.2C109.803 229.093 110.229 229.04 110.603 229.04C110.816 229.04 110.976 229.307 111.083 229.84C111.189 230.32 111.269 230.693 111.323 230.96V231.04C111.323 231.413 111.056 232 110.523 232.8C110.043 233.6 109.429 234.427 108.683 235.28C107.989 236.187 107.296 236.987 106.603 237.68C105.909 238.427 105.403 238.933 105.083 239.2ZM129.113 235.28C128.153 235.28 127.673 234.907 127.673 234.16C127.673 233.68 127.833 233.067 128.153 232.32C128.527 231.573 128.9 230.853 129.273 230.16C130.287 228.347 131.22 226.587 132.073 224.88C132.927 223.173 133.753 221.36 134.553 219.44C134.927 218.587 135.487 218.16 136.233 218.16C137.033 218.16 137.273 218.64 136.953 219.6C136.633 220.4 136.313 221.12 135.993 221.76C134.5 224.8 133.753 226.853 133.753 227.92C133.753 228.4 133.913 228.693 134.233 228.8C134.98 228.213 135.54 227.787 135.913 227.52C136.287 227.2 136.5 227.013 136.553 226.96C137.3 226.373 138.127 225.707 139.033 224.96C139.993 224.16 141.033 223.253 142.153 222.24C143.913 220.64 145.38 219.84 146.553 219.84C147.993 219.84 148.607 221.147 148.393 223.76C148.34 224.773 148.34 225.76 148.393 226.72C148.447 226.933 148.473 227.253 148.473 227.68C148.473 228.053 148.473 228.507 148.473 229.04C148.473 229.573 148.793 229.84 149.433 229.84C150.18 229.84 150.873 229.627 151.513 229.2L153.273 228L155.033 226.88C155.14 226.827 155.327 226.8 155.593 226.8C155.913 226.8 155.913 227.04 155.593 227.52C152.233 231.68 149.46 233.76 147.273 233.76C146.847 233.76 146.42 233.68 145.993 233.52C145.62 233.36 145.353 232.907 145.193 232.16C145.033 231.36 144.927 230.507 144.873 229.6C144.873 228.693 144.873 228 144.873 227.52L144.953 224.88C144.953 223.76 144.66 223.2 144.073 223.2C142.687 223.2 139.273 226.053 133.833 231.76C133.407 232.293 132.74 233.013 131.833 233.92C130.927 234.827 130.02 235.28 129.113 235.28ZM158.385 235.36C156.305 235.36 155.265 234.427 155.265 232.56C155.265 232.453 155.265 232.267 155.265 232C155.318 231.733 155.371 231.413 155.425 231.04C155.958 228.853 157.025 226.747 158.625 224.72C160.278 222.64 162.171 220.827 164.305 219.28C165.105 218.64 166.385 218.32 168.145 218.32C169.158 218.32 170.038 218.48 170.785 218.8C171.585 219.067 172.145 219.493 172.465 220.08C172.785 220.613 172.945 221.227 172.945 221.92C172.945 222.027 172.918 222.187 172.865 222.4C172.865 222.613 172.838 222.853 172.785 223.12C172.891 223.067 173.051 223.04 173.265 223.04C173.531 223.04 173.851 223.013 174.225 222.96C174.598 222.907 174.945 222.853 175.265 222.8C175.638 222.747 176.011 222.72 176.385 222.72H176.705C177.291 222.72 177.345 222.96 176.865 223.44C176.438 223.867 175.851 224.133 175.105 224.24L172.385 224.56C171.851 226.053 170.918 227.547 169.585 229.04C168.305 230.533 166.865 231.84 165.265 232.96C163.718 234.027 162.251 234.72 160.865 235.04C160.065 235.253 159.238 235.36 158.385 235.36ZM168.625 223.44C168.945 223.44 169.318 223.44 169.745 223.44C170.225 223.387 170.758 223.333 171.345 223.28C171.398 223.173 171.425 222.933 171.425 222.56C171.425 221.6 171.025 220.933 170.225 220.56C169.798 220.293 169.265 220.16 168.625 220.16C167.825 220.16 166.998 220.427 166.145 220.96C165.345 221.44 164.491 222.08 163.585 222.88C164.705 223.253 166.385 223.44 168.625 223.44ZM160.785 232.56C161.318 232.56 162.065 232.32 163.025 231.84C164.038 231.307 165.078 230.613 166.145 229.76C167.211 228.907 168.171 228 169.025 227.04C169.291 226.773 169.558 226.453 169.825 226.08C170.091 225.653 170.385 225.227 170.705 224.8L168.785 225.04C165.798 225.467 163.131 225.707 160.785 225.76C159.611 227.68 158.891 229.28 158.625 230.56C158.571 231.253 158.758 231.76 159.185 232.08C159.611 232.4 160.145 232.56 160.785 232.56ZM191.291 236.08C190.171 235.92 189.398 235.52 188.971 234.88C188.598 234.293 188.411 233.467 188.411 232.4C188.411 232.133 188.438 231.707 188.491 231.12C188.598 230.533 188.704 229.813 188.811 228.96V228.32C188.811 227.573 188.678 227.147 188.411 227.04C188.358 226.987 188.224 226.96 188.011 226.96C187.638 226.96 186.944 227.307 185.931 228C185.878 228.053 185.584 228.32 185.051 228.8C184.518 229.227 183.744 229.867 182.731 230.72C179.798 233.333 177.798 234.507 176.731 234.24C175.611 233.973 175.051 233.227 175.051 232C175.051 230.827 175.478 229.413 176.331 227.76C177.024 226.267 177.878 224.827 178.891 223.44C179.904 222 180.704 221.067 181.291 220.64C181.718 220.373 182.064 220.24 182.331 220.24C182.598 220.24 182.838 220.347 183.051 220.56C183.158 220.667 183.211 220.827 183.211 221.04C183.211 221.253 183.078 221.493 182.811 221.76C182.278 222.293 181.771 223.12 181.291 224.24C180.811 225.307 180.571 226.267 180.571 227.12C180.571 227.227 180.571 227.36 180.571 227.52C180.624 227.68 180.678 227.867 180.731 228.08C180.998 228.24 181.291 228.32 181.611 228.32C182.251 228.32 183.131 228 184.251 227.36C184.678 227.093 185.264 226.72 186.011 226.24C186.758 225.707 187.664 225.04 188.731 224.24C189.158 223.92 189.638 223.76 190.171 223.76C190.758 223.76 191.238 223.973 191.611 224.4C192.038 224.773 192.251 225.307 192.251 226C192.251 226.107 192.224 226.267 192.171 226.48C192.171 226.64 192.144 226.853 192.091 227.12C191.984 227.547 191.878 227.947 191.771 228.32C191.664 228.693 191.584 229.067 191.531 229.44C191.478 229.653 191.451 229.947 191.451 230.32C191.451 230.64 191.451 231.013 191.451 231.44C191.451 232.613 192.064 233.2 193.291 233.2C193.824 233.2 194.358 233.12 194.891 232.96C195.478 232.747 195.904 232.507 196.171 232.24C198.731 230 201.238 227.093 203.691 223.52L203.611 222.56C203.558 222.027 203.664 221.52 203.931 221.04C204.198 220.507 204.544 219.973 204.971 219.44C205.131 219.227 205.344 219.12 205.611 219.12C205.878 219.12 206.118 219.253 206.331 219.52C206.598 219.733 206.731 220.027 206.731 220.4C206.731 220.667 206.651 220.96 206.491 221.28C206.171 221.867 205.664 222.72 204.971 223.84C204.278 224.907 203.478 226.08 202.571 227.36C201.664 228.64 200.758 229.84 199.851 230.96C198.944 232.08 198.118 232.96 197.371 233.6V233.68C196.464 234.48 195.424 235.093 194.251 235.52C193.078 236 192.091 236.187 191.291 236.08ZM232.213 236.16C232.106 236.16 231.999 236.133 231.893 236.08C231.786 236.08 231.679 236.053 231.573 236C230.826 235.627 230.346 235.093 230.133 234.4C229.919 233.707 229.866 232.827 229.973 231.76C230.079 231.333 230.186 230.587 230.293 229.52C230.453 228.453 230.639 227.6 230.853 226.96L226.773 230.88L224.533 233.04C222.986 234.587 221.706 235.36 220.693 235.36C220.266 235.36 219.919 235.2 219.653 234.88C219.173 234.293 218.933 233.573 218.933 232.72C218.933 231.6 219.226 230.4 219.813 229.12C220.399 227.84 221.093 226.613 221.893 225.44C222.693 224.213 223.413 223.2 224.053 222.4C225.653 220.427 227.199 218.88 228.693 217.76C230.239 216.64 231.839 216.08 233.493 216.08C234.399 216.08 235.279 216.24 236.133 216.56C237.039 216.88 237.866 217.413 238.613 218.16L238.693 218.24C238.693 218.4 238.559 218.56 238.293 218.72C238.186 218.827 238.079 218.907 237.973 218.96C237.919 219.013 237.866 219.067 237.813 219.12C237.173 219.76 236.453 220.827 235.653 222.32C234.853 223.813 234.159 225.387 233.573 227.04C232.986 228.64 232.693 230.027 232.693 231.2C232.693 232.267 232.959 232.987 233.493 233.36C233.759 233.52 234.053 233.6 234.373 233.6C235.066 233.6 236.026 233.173 237.253 232.32C237.306 232.267 237.413 232.187 237.573 232.08C237.786 231.92 238.079 231.707 238.453 231.44C238.879 231.12 239.226 230.96 239.493 230.96C239.759 230.96 239.893 231.067 239.893 231.28C239.893 231.6 239.679 231.973 239.253 232.4C238.933 232.667 238.559 232.96 238.133 233.28C237.759 233.6 237.306 233.92 236.773 234.24C235.973 234.827 235.146 235.28 234.293 235.6C233.439 235.973 232.746 236.16 232.213 236.16ZM223.173 231.04C224.293 231.04 226.373 229.387 229.413 226.08C230.213 225.173 230.933 224.32 231.573 223.52C232.213 222.667 232.799 221.84 233.333 221.04C234.293 219.493 234.613 218.427 234.293 217.84C234.133 217.52 233.813 217.36 233.333 217.36C232.746 217.36 231.946 217.68 230.933 218.32C229.919 218.907 228.879 219.68 227.813 220.64C226.799 221.6 225.866 222.56 225.013 223.52C224.426 224.267 223.839 225.307 223.253 226.64C222.666 227.973 222.373 229.067 222.373 229.92C222.373 230.667 222.639 231.04 223.173 231.04ZM242.004 235.28C241.044 235.28 240.564 234.907 240.564 234.16C240.564 233.68 240.724 233.067 241.044 232.32C241.417 231.573 241.791 230.853 242.164 230.16C243.177 228.347 244.111 226.587 244.964 224.88C245.817 223.173 246.644 221.36 247.444 219.44C247.817 218.587 248.377 218.16 249.124 218.16C249.924 218.16 250.164 218.64 249.844 219.6C249.524 220.4 249.204 221.12 248.884 221.76C247.391 224.8 246.644 226.853 246.644 227.92C246.644 228.4 246.804 228.693 247.124 228.8C247.871 228.213 248.431 227.787 248.804 227.52C249.177 227.2 249.391 227.013 249.444 226.96C250.191 226.373 251.017 225.707 251.924 224.96C252.884 224.16 253.924 223.253 255.044 222.24C256.804 220.64 258.271 219.84 259.444 219.84C260.884 219.84 261.497 221.147 261.284 223.76C261.231 224.773 261.231 225.76 261.284 226.72C261.337 226.933 261.364 227.253 261.364 227.68C261.364 228.053 261.364 228.507 261.364 229.04C261.364 229.573 261.684 229.84 262.324 229.84C263.071 229.84 263.764 229.627 264.404 229.2L266.164 228L267.924 226.88C268.031 226.827 268.217 226.8 268.484 226.8C268.804 226.8 268.804 227.04 268.484 227.52C265.124 231.68 262.351 233.76 260.164 233.76C259.737 233.76 259.311 233.68 258.884 233.52C258.511 233.36 258.244 232.907 258.084 232.16C257.924 231.36 257.817 230.507 257.764 229.6C257.764 228.693 257.764 228 257.764 227.52L257.844 224.88C257.844 223.76 257.551 223.2 256.964 223.2C255.577 223.2 252.164 226.053 246.724 231.76C246.297 232.293 245.631 233.013 244.724 233.92C243.817 234.827 242.911 235.28 242.004 235.28ZM283.95 240C283.15 240 282.564 239.6 282.19 238.8C282.137 238.747 282.11 238.587 282.11 238.32C282.11 238.053 282.244 237.44 282.51 236.48C282.617 236.213 282.697 235.947 282.75 235.68C282.857 235.413 282.964 235.147 283.07 234.88C283.177 234.613 283.284 234.32 283.39 234C283.497 233.627 283.604 233.253 283.71 232.88C283.924 232.08 284.03 231.413 284.03 230.88C284.03 230.133 283.79 229.76 283.31 229.76C283.15 229.76 282.857 229.893 282.43 230.16C281.737 230.693 280.99 231.2 280.19 231.68C279.444 232.16 278.644 232.613 277.79 233.04L275.23 234.4L273.55 235.36C273.39 235.413 273.017 235.653 272.43 236.08C271.897 236.4 271.337 236.56 270.75 236.56C270.057 236.56 269.284 236.187 268.43 235.44C267.79 234.8 267.47 234.133 267.47 233.44C267.47 232.853 267.764 232.027 268.35 230.96C268.777 230.267 269.497 229.413 270.51 228.4C270.937 227.973 271.284 227.6 271.55 227.28C271.87 226.907 272.137 226.613 272.35 226.4C274.59 223.413 278.057 220.773 282.75 218.48C284.084 217.787 285.284 217.44 286.35 217.44C287.524 217.44 288.457 217.92 289.15 218.88C289.47 218.24 289.977 217.333 290.67 216.16C291.417 214.933 292.217 213.6 293.07 212.16C293.977 210.72 294.83 209.36 295.63 208.08C296.484 206.8 297.15 205.813 297.63 205.12C299.07 203.147 300.244 201.653 301.15 200.64C302.057 199.68 302.884 199.2 303.63 199.2C303.897 199.2 304.244 199.333 304.67 199.6C305.044 199.92 305.23 200.347 305.23 200.88C305.23 201.68 304.884 202.613 304.19 203.68C303.497 204.747 302.537 206.053 301.31 207.6C301.204 207.76 301.044 207.973 300.83 208.24C300.617 208.453 300.377 208.747 300.11 209.12C299.524 209.973 298.91 210.88 298.27 211.84C297.63 212.747 296.937 213.653 296.19 214.56C295.124 215.947 294.004 217.467 292.83 219.12C291.657 220.72 290.564 222.4 289.55 224.16C288.644 225.76 287.87 227.413 287.23 229.12C286.59 230.773 286.057 232.453 285.63 234.16C285.577 234.533 285.524 234.827 285.47 235.04C285.47 235.307 285.47 235.493 285.47 235.6L285.55 236.8C285.604 236.96 285.63 237.333 285.63 237.92C285.63 239.307 285.07 240 283.95 240ZM272.99 233.12C273.577 233.12 274.11 233.013 274.59 232.8C276.617 232.107 278.537 231.227 280.35 230.16C282.164 229.093 284.084 227.653 286.11 225.84C286.377 225.093 286.697 224.293 287.07 223.44C287.444 222.587 287.844 221.653 288.27 220.64C287.63 219.307 286.697 218.64 285.47 218.64C284.67 218.64 283.817 218.907 282.91 219.44C282.004 219.973 280.99 220.693 279.87 221.6C278.804 222.453 277.71 223.413 276.59 224.48C275.524 225.547 274.59 226.587 273.79 227.6C272.99 228.56 272.43 229.36 272.11 230C271.79 230.533 271.63 231.147 271.63 231.84C271.63 232.693 272.084 233.12 272.99 233.12ZM313.057 239.28C312.471 239.28 311.964 239.093 311.537 238.72C311.164 238.347 311.004 237.893 311.057 237.36C310.897 236.613 311.004 235.52 311.377 234.08C311.804 232.693 312.391 231.12 313.137 229.36C313.884 227.6 314.684 225.787 315.537 223.92C316.444 222.053 317.297 220.32 318.097 218.72L312.737 220.16H312.577C312.204 220.16 312.017 219.973 312.017 219.6C312.017 219.067 312.231 218.453 312.657 217.76C313.137 217.013 313.644 216.56 314.177 216.4C314.711 216.187 315.457 216 316.417 215.84C317.377 215.68 318.577 215.493 320.017 215.28C329.084 200.08 334.817 192.373 337.217 192.16C340.044 191.84 341.457 193.627 341.457 197.52C341.457 198 341.404 198.587 341.297 199.28C341.244 199.92 341.164 200.693 341.057 201.6C341.004 202.133 340.817 202.4 340.497 202.4C340.284 202.4 340.097 202.24 339.937 201.92C339.831 201.6 339.831 201.2 339.937 200.72C340.097 199.76 340.177 198.96 340.177 198.32C340.177 196.24 339.564 195.2 338.337 195.2C337.111 195.2 335.164 197.12 332.497 200.96C331.164 202.933 329.724 205.093 328.177 207.44C326.684 209.733 325.111 212.213 323.457 214.88C323.937 214.827 324.417 214.8 324.897 214.8C325.377 214.747 325.831 214.72 326.257 214.72C326.737 214.72 327.271 214.72 327.857 214.72C328.497 214.667 329.164 214.613 329.857 214.56C330.284 214.24 330.684 214.08 331.057 214.08C331.751 214.08 332.097 214.453 332.097 215.2C332.097 216 331.644 216.4 330.737 216.4C330.471 216.4 330.097 216.32 329.617 216.16C328.231 216.267 327.164 216.4 326.417 216.56C325.671 216.667 324.977 216.827 324.337 217.04C323.697 217.2 322.844 217.413 321.777 217.68C320.444 219.867 319.191 222.053 318.017 224.24C316.844 226.373 315.857 228.347 315.057 230.16C314.311 231.973 313.937 233.467 313.937 234.64C313.937 235.707 314.364 236.267 315.217 236.32C315.964 236 316.497 235.84 316.817 235.84C317.191 235.84 317.377 235.973 317.377 236.24C317.377 236.72 316.817 237.387 315.697 238.24C314.844 238.933 313.964 239.28 313.057 239.28ZM327.369 235.36C325.289 235.36 324.249 234.427 324.249 232.56C324.249 232.453 324.249 232.267 324.249 232C324.302 231.733 324.356 231.413 324.409 231.04C324.942 228.853 326.009 226.747 327.609 224.72C329.262 222.64 331.156 220.827 333.289 219.28C334.089 218.64 335.369 218.32 337.129 218.32C338.142 218.32 339.022 218.48 339.769 218.8C340.569 219.067 341.129 219.493 341.449 220.08C341.769 220.613 341.929 221.227 341.929 221.92C341.929 222.027 341.902 222.187 341.849 222.4C341.849 222.613 341.822 222.853 341.769 223.12C341.876 223.067 342.036 223.04 342.249 223.04C342.516 223.04 342.836 223.013 343.209 222.96C343.582 222.907 343.929 222.853 344.249 222.8C344.622 222.747 344.996 222.72 345.369 222.72H345.689C346.276 222.72 346.329 222.96 345.849 223.44C345.422 223.867 344.836 224.133 344.089 224.24L341.369 224.56C340.836 226.053 339.902 227.547 338.569 229.04C337.289 230.533 335.849 231.84 334.249 232.96C332.702 234.027 331.236 234.72 329.849 235.04C329.049 235.253 328.222 235.36 327.369 235.36ZM337.609 223.44C337.929 223.44 338.302 223.44 338.729 223.44C339.209 223.387 339.742 223.333 340.329 223.28C340.382 223.173 340.409 222.933 340.409 222.56C340.409 221.6 340.009 220.933 339.209 220.56C338.782 220.293 338.249 220.16 337.609 220.16C336.809 220.16 335.982 220.427 335.129 220.96C334.329 221.44 333.476 222.08 332.569 222.88C333.689 223.253 335.369 223.44 337.609 223.44ZM329.769 232.56C330.302 232.56 331.049 232.32 332.009 231.84C333.022 231.307 334.062 230.613 335.129 229.76C336.196 228.907 337.156 228 338.009 227.04C338.276 226.773 338.542 226.453 338.809 226.08C339.076 225.653 339.369 225.227 339.689 224.8L337.769 225.04C334.782 225.467 332.116 225.707 329.769 225.76C328.596 227.68 327.876 229.28 327.609 230.56C327.556 231.253 327.742 231.76 328.169 232.08C328.596 232.4 329.129 232.56 329.769 232.56ZM343.635 235.68C342.942 235.68 342.595 235.067 342.595 233.84C342.595 232.827 342.835 231.84 343.315 230.88C344.542 228.533 345.662 226.213 346.675 223.92C347.369 222.533 348.009 221.2 348.595 219.92C349.235 218.64 349.822 217.467 350.355 216.4C350.675 216.08 350.995 215.92 351.315 215.92C352.009 215.92 352.222 216.24 351.955 216.88C351.849 217.253 351.689 217.707 351.475 218.24C351.315 218.72 351.102 219.307 350.835 220C349.982 222.24 349.475 223.813 349.315 224.72C350.809 223.387 352.329 222.16 353.875 221.04C355.475 219.867 356.969 218.907 358.355 218.16C359.742 217.413 360.915 217.04 361.875 217.04C362.729 217.04 363.155 217.387 363.155 218.08C363.155 218.667 362.889 219.307 362.355 220C361.822 220.64 361.289 220.96 360.755 220.96C360.489 220.96 360.275 220.88 360.115 220.72C359.955 220.667 359.635 220.64 359.155 220.64C357.449 220.64 355.662 221.467 353.795 223.12C351.822 224.773 350.035 226.773 348.435 229.12C346.835 231.413 345.662 233.413 344.915 235.12C344.542 235.493 344.115 235.68 343.635 235.68ZM363.977 234.88C362.857 234.88 361.87 234.587 361.017 234C359.63 232.933 358.937 231.333 358.937 229.2C358.937 227.067 359.683 224.8 361.177 222.4C362.67 220 364.937 217.787 367.977 215.76C368.51 215.387 369.23 215.2 370.137 215.2C371.31 215.2 372.35 215.52 373.257 216.16C374.217 216.8 374.59 217.627 374.377 218.64C374.003 220.293 373.177 221.76 371.897 223.04C370.67 224.32 369.203 225.467 367.497 226.48C365.843 227.44 364.137 228.373 362.377 229.28C362.323 229.44 362.27 229.6 362.217 229.76C362.217 229.92 362.217 230.08 362.217 230.24C362.217 230.987 362.457 231.653 362.937 232.24C363.47 232.773 364.19 233.04 365.097 233.04C365.79 233.04 366.377 232.933 366.857 232.72C367.71 232.4 368.403 232.107 368.937 231.84C369.523 231.573 370.19 231.173 370.937 230.64C371.683 230.107 372.697 229.307 373.977 228.24C374.563 227.813 374.91 227.6 375.017 227.6C375.337 227.6 375.443 227.84 375.337 228.32C374.803 229.173 373.87 230.107 372.537 231.12C371.257 232.133 369.817 233.013 368.217 233.76C366.67 234.507 365.257 234.88 363.977 234.88ZM362.857 227.12C363.283 227.12 364.163 226.693 365.497 225.84C366.83 224.987 368.083 224.053 369.257 223.04C371.283 221.173 372.297 219.733 372.297 218.72C372.297 218.453 372.217 218.213 372.057 218C371.897 217.733 371.657 217.6 371.337 217.6C370.323 217.6 368.617 218.8 366.217 221.2C364.563 222.8 363.443 224.773 362.857 227.12ZM376.956 236.88C375.783 236.88 375.303 235.44 375.516 232.56C375.623 231.92 375.836 230.907 376.156 229.52C376.529 228.133 376.983 226.613 377.516 224.96C378.049 223.253 378.556 221.733 379.036 220.4C379.356 219.493 379.916 218.64 380.716 217.84C381.569 217.04 382.263 216.64 382.796 216.64C383.116 216.64 383.276 216.853 383.276 217.28C383.276 217.867 382.956 218.773 382.316 220C381.516 221.493 380.876 222.773 380.396 223.84C379.916 224.853 379.516 225.893 379.196 226.96C378.929 227.973 378.636 229.227 378.316 230.72V231.44C378.316 233.147 378.689 233.68 379.436 233.04C380.823 231.92 382.263 230.613 383.756 229.12C385.249 227.573 386.663 226.027 387.996 224.48C389.329 222.933 390.396 221.573 391.196 220.4C391.729 219.547 392.343 218.907 393.036 218.48C393.783 218 394.103 217.92 393.996 218.24C393.943 218.72 393.489 219.6 392.636 220.88C391.836 222.16 390.823 223.6 389.596 225.2C388.423 226.747 387.196 228.24 385.916 229.68C384.689 231.12 383.596 232.24 382.636 233.04C382.263 233.413 381.703 233.893 380.956 234.48C380.263 235.12 379.543 235.68 378.796 236.16C378.049 236.64 377.436 236.88 376.956 236.88ZM396.945 234.88C395.825 234.88 394.839 234.587 393.985 234C392.599 232.933 391.905 231.333 391.905 229.2C391.905 227.067 392.652 224.8 394.145 222.4C395.639 220 397.905 217.787 400.945 215.76C401.479 215.387 402.199 215.2 403.105 215.2C404.279 215.2 405.319 215.52 406.225 216.16C407.185 216.8 407.559 217.627 407.345 218.64C406.972 220.293 406.145 221.76 404.865 223.04C403.639 224.32 402.172 225.467 400.465 226.48C398.812 227.44 397.105 228.373 395.345 229.28C395.292 229.44 395.239 229.6 395.185 229.76C395.185 229.92 395.185 230.08 395.185 230.24C395.185 230.987 395.425 231.653 395.905 232.24C396.439 232.773 397.159 233.04 398.065 233.04C398.759 233.04 399.345 232.933 399.825 232.72C400.679 232.4 401.372 232.107 401.905 231.84C402.492 231.573 403.159 231.173 403.905 230.64C404.652 230.107 405.665 229.307 406.945 228.24C407.532 227.813 407.879 227.6 407.985 227.6C408.305 227.6 408.412 227.84 408.305 228.32C407.772 229.173 406.839 230.107 405.505 231.12C404.225 232.133 402.785 233.013 401.185 233.76C399.639 234.507 398.225 234.88 396.945 234.88ZM395.825 227.12C396.252 227.12 397.132 226.693 398.465 225.84C399.799 224.987 401.052 224.053 402.225 223.04C404.252 221.173 405.265 219.733 405.265 218.72C405.265 218.453 405.185 218.213 405.025 218C404.865 217.733 404.625 217.6 404.305 217.6C403.292 217.6 401.585 218.8 399.185 221.2C397.532 222.8 396.412 224.773 395.825 227.12ZM408.245 235.68C407.551 235.68 407.205 235.067 407.205 233.84C407.205 232.827 407.445 231.84 407.925 230.88C409.151 228.533 410.271 226.213 411.285 223.92C411.978 222.533 412.618 221.2 413.205 219.92C413.845 218.64 414.431 217.467 414.965 216.4C415.285 216.08 415.605 215.92 415.925 215.92C416.618 215.92 416.831 216.24 416.565 216.88C416.458 217.253 416.298 217.707 416.085 218.24C415.925 218.72 415.711 219.307 415.445 220C414.591 222.24 414.085 223.813 413.925 224.72C415.418 223.387 416.938 222.16 418.485 221.04C420.085 219.867 421.578 218.907 422.965 218.16C424.351 217.413 425.525 217.04 426.485 217.04C427.338 217.04 427.765 217.387 427.765 218.08C427.765 218.667 427.498 219.307 426.965 220C426.431 220.64 425.898 220.96 425.365 220.96C425.098 220.96 424.885 220.88 424.725 220.72C424.565 220.667 424.245 220.64 423.765 220.64C422.058 220.64 420.271 221.467 418.405 223.12C416.431 224.773 414.645 226.773 413.045 229.12C411.445 231.413 410.271 233.413 409.525 235.12C409.151 235.493 408.725 235.68 408.245 235.68Z" fill="#333333"/>
<path d="M115.275 262.538C114.995 262.538 114.757 262.412 114.561 262.244C114.379 261.936 114.309 261.586 114.309 261.236C114.309 260.088 115.079 259.192 116.297 258.702L116.437 259.066C115.541 259.472 115.051 260.004 114.855 260.872L114.771 260.354L115.583 260.9C115.961 261.166 116.087 261.418 116.087 261.74C116.087 262.202 115.751 262.538 115.275 262.538ZM128.048 271.526H127.376C127.306 270.966 127.264 269.426 127.264 268.796V259.248C127.026 258.954 126.578 258.674 126.088 258.506L126.214 258.128C126.228 258.072 126.256 258.044 126.382 258.044C126.928 258.072 127.866 258.254 128.3 258.436C128.44 258.478 128.482 258.59 128.482 258.744L128.44 259.514V268.404C128.44 269.258 128.286 270.686 128.048 271.526ZM124.562 263.798C124.562 265.604 123.204 266.864 121.342 266.864C119.466 266.864 118.108 265.604 118.108 263.798C118.108 262.006 119.466 260.732 121.342 260.732C123.204 260.732 124.562 262.006 124.562 263.798ZM123.358 263.798C123.358 262.454 122.504 261.656 121.342 261.656C120.194 261.656 119.34 262.454 119.34 263.798C119.34 265.142 120.194 265.94 121.342 265.94C122.504 265.94 123.358 265.142 123.358 263.798ZM125.304 263.336L126.046 264.036C125.794 264.064 125.374 264.176 125.136 264.26C124.702 264.092 124.338 263.854 124.03 263.602C123.974 263.546 123.96 263.504 123.988 263.448L124.072 263.28C124.436 263.322 124.926 263.336 125.304 263.336ZM127.53 263.252V263.994C127.096 263.966 126.34 263.994 126.046 264.036L125.304 263.336C125.794 263.336 126.928 263.308 127.53 263.252ZM142.045 271.526H141.387C141.331 270.994 141.275 269.524 141.275 268.922V259.192C141.079 258.912 140.659 258.66 140.211 258.506L140.337 258.128C140.351 258.072 140.407 258.044 140.505 258.044C141.023 258.072 141.905 258.24 142.297 258.422C142.437 258.478 142.479 258.576 142.465 258.716L142.437 259.43V268.53C142.437 269.356 142.283 270.728 142.045 271.526ZM139.511 270.588H138.881C138.811 270.028 138.783 268.684 138.783 268.082V260.102C138.587 259.85 138.195 259.612 137.789 259.472L137.929 259.108C137.943 259.052 137.985 259.024 138.111 259.024C138.587 259.038 139.399 259.206 139.763 259.374C139.875 259.43 139.917 259.528 139.917 259.668L139.875 260.298V267.718C139.875 268.502 139.735 269.818 139.511 270.588ZM137.565 263.798L138.223 264.47C137.985 264.484 137.621 264.568 137.383 264.666C137.033 264.498 136.697 264.288 136.445 264.064C136.403 263.994 136.389 263.966 136.403 263.91L136.501 263.756C136.823 263.784 137.215 263.798 137.565 263.798ZM139.217 263.728V264.4C138.923 264.414 138.419 264.442 138.223 264.47L137.565 263.798C137.971 263.798 138.755 263.77 139.217 263.728ZM135.829 260.76V261.46C135.311 261.446 133.813 261.474 133.477 261.502C133.225 261.516 132.749 261.614 132.497 261.698C132.133 261.544 131.727 261.278 131.461 261.04C131.405 260.97 131.391 260.942 131.419 260.9L131.503 260.732C131.867 260.788 132.343 260.816 132.679 260.816C133.141 260.816 135.269 260.788 135.829 260.76ZM136.921 261.46L135.549 261.446L135.787 260.76L136.263 260.536C136.333 260.494 136.431 260.494 136.515 260.536C136.683 260.606 137.033 260.76 137.145 260.844C137.215 260.886 137.215 260.956 137.173 261.026L136.921 261.46ZM131.349 268.026L131.167 267.858C131.125 267.83 131.111 267.788 131.153 267.718C133.267 265.898 134.835 263.504 135.549 261.446L136.263 261.194L136.921 261.46C136.137 263.742 134.023 266.346 131.503 267.984C131.447 268.04 131.391 268.04 131.349 268.026ZM136.809 267.298L134.681 264.414L136.641 265.646L137.159 265.926C137.341 266.248 137.551 266.752 137.635 267.018C137.691 267.214 137.691 267.34 137.635 267.424C137.537 267.578 137.257 267.648 137.103 267.578C137.019 267.55 136.893 267.41 136.809 267.298ZM136.641 265.646L136.543 265.73L134.681 264.414L135.185 263.896L136.641 265.646ZM158.463 268.278L158.995 268.04C159.527 268.068 160.297 268.152 160.633 268.278C160.745 268.306 160.829 268.404 160.829 268.53C160.829 268.796 160.647 269.048 160.493 269.118C160.129 269.076 159.261 269.048 158.827 269.048C157.847 269.034 151.617 269.104 150.861 269.16C150.497 269.188 149.741 269.314 149.391 269.426C148.873 269.258 148.327 268.936 147.977 268.614C147.921 268.586 147.907 268.53 147.935 268.474L148.033 268.264C148.523 268.348 149.195 268.404 149.657 268.418C150.525 268.432 157.483 268.348 158.463 268.278ZM154.963 268.824H153.801V265.016H154.963V268.824ZM157.945 262.566C157.945 264.358 156.391 265.604 154.333 265.604C152.275 265.604 150.735 264.358 150.735 262.566C150.735 260.76 152.275 259.514 154.333 259.514C156.391 259.514 157.945 260.76 157.945 262.566ZM156.699 262.566C156.699 261.18 155.663 260.354 154.333 260.354C153.017 260.354 151.981 261.18 151.981 262.566C151.981 263.952 153.017 264.778 154.333 264.778C155.663 264.778 156.699 263.952 156.699 262.566ZM165.488 260.452H164.27V259.724C164.06 259.542 163.71 259.388 163.346 259.304L163.43 258.954C163.444 258.898 163.486 258.856 163.598 258.856C164.074 258.856 164.928 258.912 165.292 258.996C165.446 259.038 165.516 259.136 165.516 259.29L165.488 259.962V260.452ZM171.914 262.594L165.558 262.678L165.796 261.978C166.748 261.992 169.422 261.964 170.304 261.908L170.738 261.642C171.172 261.642 171.802 261.698 172.096 261.768C172.208 261.782 172.292 261.866 172.292 261.978C172.292 262.258 172.194 262.454 172.124 262.524C172.068 262.58 171.984 262.594 171.914 262.594ZM165.838 261.978L165.558 262.678C164.662 262.678 164.27 262.258 164.27 261.488V260.256H165.488V261.6C165.488 261.88 165.572 261.978 165.838 261.978ZM171.984 263.98L172.516 263.756C173.048 263.77 173.818 263.868 174.154 263.98C174.266 264.022 174.35 264.106 174.35 264.232C174.35 264.498 174.168 264.722 174.014 264.792C173.65 264.75 172.782 264.722 172.348 264.722C171.382 264.708 165.124 264.792 164.368 264.834C164.018 264.862 163.262 265.002 162.912 265.114C162.394 264.946 161.848 264.638 161.498 264.33C161.442 264.288 161.428 264.246 161.456 264.19L161.554 263.98C162.044 264.064 162.716 264.12 163.178 264.12C164.046 264.134 171.004 264.05 171.984 263.98ZM172.026 271.148L165.656 271.19L165.894 270.49C166.86 270.504 169.618 270.49 170.5 270.448L170.934 270.238C171.326 270.238 171.914 270.28 172.194 270.336C172.306 270.364 172.376 270.448 172.376 270.56C172.376 270.826 172.292 271.022 172.222 271.078C172.18 271.134 172.096 271.148 172.026 271.148ZM166.006 270.49L165.656 271.19C164.844 271.176 164.564 270.91 164.564 270.266V269.496H165.768V270.238C165.768 270.406 165.838 270.49 166.006 270.49ZM165.768 269.776H164.564V268.978C164.382 268.81 164.088 268.67 163.766 268.6L163.822 268.306C163.836 268.264 163.878 268.236 163.976 268.236C164.396 268.236 165.404 268.264 165.796 268.306L165.768 268.936V269.776ZM170.388 266.136V266.808C169.618 266.794 166.664 266.836 166.062 266.864C165.782 266.878 165.25 266.976 164.914 267.074C164.48 266.906 164.074 266.654 163.766 266.402C163.696 266.36 163.696 266.318 163.724 266.262L163.808 266.094C164.186 266.164 164.746 266.22 165.11 266.22C165.866 266.22 169.548 266.178 170.388 266.136ZM171.494 266.808H170.234L170.346 266.136L170.78 265.94C170.85 265.912 170.934 265.912 171.018 265.94C171.172 266.01 171.508 266.15 171.634 266.234C171.69 266.276 171.704 266.346 171.662 266.43L171.494 266.808ZM171.214 268.222H170.206C170.234 267.928 170.248 267.102 170.234 266.794L171.494 266.78C171.466 267.186 171.326 267.9 171.214 268.222ZM171.41 268.88L165.586 268.936V268.306C166.314 268.306 169.366 268.278 169.954 268.25L170.304 268.152C170.626 268.082 170.934 268.082 171.116 268.166L171.466 268.334C171.522 268.362 171.55 268.404 171.55 268.46C171.55 268.642 171.466 268.81 171.41 268.88ZM189.074 267.9L189.606 267.676C190.138 267.69 190.908 267.788 191.244 267.9C191.356 267.942 191.44 268.026 191.44 268.152C191.44 268.432 191.258 268.67 191.104 268.74C190.74 268.698 189.872 268.67 189.438 268.67C188.458 268.656 182.228 268.74 181.472 268.782C181.108 268.81 180.352 268.95 180.002 269.062C179.484 268.88 178.938 268.558 178.588 268.25C178.532 268.208 178.518 268.152 178.546 268.11L178.644 267.886C179.134 267.984 179.806 268.04 180.268 268.04C181.136 268.054 188.094 267.97 189.074 267.9ZM187.674 260.186V260.956C186.554 260.956 183.446 261.012 182.746 261.054C182.382 261.068 181.724 261.18 181.374 261.292C180.926 261.11 180.436 260.816 180.114 260.522C180.058 260.466 180.058 260.424 180.072 260.368L180.17 260.172C180.618 260.256 181.192 260.298 181.598 260.298C182.354 260.312 186.75 260.242 187.674 260.186ZM188.948 261.054L187.59 260.956V260.2L188.164 259.92C188.248 259.878 188.346 259.878 188.416 259.92C188.612 260.018 188.99 260.242 189.13 260.34C189.186 260.396 189.186 260.452 189.158 260.536L188.948 261.054ZM187.366 268.264L186.96 268.194C186.89 268.18 186.876 268.138 186.89 268.012C187.282 265.982 187.562 262.944 187.59 260.956L188.332 260.746L188.948 261.054C188.892 263.07 188.332 266.094 187.562 268.166C187.534 268.25 187.45 268.278 187.366 268.264ZM198.284 260.186V260.9C197.78 260.886 195.848 260.928 195.456 260.97C195.19 260.984 194.7 261.082 194.364 261.18C193.958 260.998 193.566 260.746 193.258 260.494C193.202 260.452 193.202 260.41 193.216 260.354L193.314 260.158C193.692 260.242 194.238 260.27 194.574 260.27C195.134 260.284 197.682 260.228 198.284 260.186ZM199.46 260.942L198.144 260.886L198.228 260.2L198.704 259.962C198.774 259.92 198.872 259.92 198.956 259.962C199.124 260.032 199.46 260.228 199.6 260.312C199.656 260.354 199.656 260.424 199.628 260.508L199.46 260.942ZM199.138 263.336H198.116C198.172 262.846 198.172 261.348 198.144 260.886L199.46 260.914C199.446 261.572 199.278 262.762 199.138 263.336ZM199.362 264.05L194.966 264.19V263.476C195.526 263.476 197.444 263.42 197.878 263.392L198.186 263.294C198.522 263.224 198.942 263.224 199.096 263.294L199.418 263.476C199.474 263.504 199.502 263.56 199.502 263.616C199.502 263.798 199.432 263.98 199.362 264.05ZM202.694 271.526H202.022C201.966 270.966 201.924 269.426 201.924 268.796V259.248C201.686 258.954 201.238 258.674 200.734 258.506L200.86 258.128C200.888 258.072 200.916 258.044 201.028 258.044C201.588 258.072 202.526 258.254 202.96 258.436C203.086 258.478 203.142 258.59 203.142 258.744L203.086 259.514V268.404C203.086 269.258 202.946 270.686 202.694 271.526ZM195.148 266.136H193.944V264.19C193.748 264.022 193.44 263.882 193.118 263.798L193.174 263.49C193.188 263.448 193.244 263.406 193.328 263.406C193.748 263.406 194.784 263.434 195.176 263.476L195.148 264.19V266.136ZM202.036 266.108V266.752C200.048 267.396 197.346 267.858 195.512 267.984C195.344 267.998 195.176 268.012 195.036 268.012C194.518 268.012 194.182 267.704 194.014 267.228C193.972 267.102 193.944 266.85 193.944 266.57V264.848H195.148V266.766C195.148 266.934 195.218 267.018 195.414 267.018C197.192 267.004 200.16 266.654 202.036 266.108ZM216.117 268.194L216.649 267.97C217.181 267.984 217.951 268.082 218.287 268.194C218.399 268.222 218.483 268.32 218.483 268.446C218.483 268.712 218.301 268.964 218.147 269.034C217.783 268.992 216.915 268.964 216.481 268.964C215.501 268.95 209.271 269.034 208.515 269.076C208.151 269.104 207.395 269.244 207.045 269.356C206.527 269.174 205.981 268.852 205.631 268.544C205.575 268.502 205.561 268.446 205.589 268.39L205.687 268.18C206.177 268.278 206.849 268.334 207.311 268.334C208.179 268.348 215.137 268.264 216.117 268.194ZM215.081 259.85V260.634C213.891 260.62 210.615 260.676 209.887 260.718C209.509 260.732 208.851 260.844 208.501 260.956C208.067 260.774 207.577 260.48 207.255 260.2C207.185 260.144 207.171 260.088 207.199 260.032L207.311 259.85C207.745 259.934 208.319 259.976 208.725 259.976C209.509 259.976 214.143 259.906 215.081 259.85ZM216.327 260.718L214.969 260.634L214.983 259.864L215.543 259.584C215.627 259.556 215.739 259.556 215.809 259.584C216.005 259.682 216.355 259.906 216.509 260.018C216.565 260.074 216.579 260.13 216.537 260.214L216.327 260.718ZM214.969 266.696L214.633 266.626C214.563 266.612 214.535 266.556 214.549 266.43C214.829 264.764 214.983 262.258 214.969 260.634L215.711 260.41L216.327 260.718C216.285 262.398 215.795 264.89 215.165 266.584C215.137 266.668 215.053 266.696 214.969 266.696ZM212.057 264.806L210.895 264.596C210.699 264.414 210.349 264.218 210.013 264.106L210.097 263.756C210.111 263.714 210.139 263.686 210.265 263.686C210.727 263.686 211.609 263.798 211.973 263.91C212.099 263.952 212.141 264.022 212.127 264.148L212.057 264.806ZM212.029 268.572H210.909L210.895 264.596L212.057 264.806L212.029 268.572ZM230.505 265.716V266.36C229.091 266.892 227.173 267.27 225.871 267.368C225.703 267.396 225.521 267.396 225.381 267.396C224.863 267.396 224.513 267.088 224.359 266.626C224.317 266.486 224.289 266.248 224.289 265.954V262.986H225.465V266.136C225.465 266.318 225.535 266.388 225.717 266.388C227.005 266.374 229.133 266.094 230.505 265.716ZM225.465 263.574H224.289V261.53C224.079 261.348 223.729 261.18 223.393 261.068L223.463 260.704C223.477 260.648 223.533 260.62 223.631 260.62C224.093 260.62 224.905 260.676 225.269 260.76C225.409 260.788 225.479 260.886 225.479 261.04L225.465 261.726V263.574ZM233.879 271.526H233.221C233.165 270.994 233.109 269.524 233.109 268.922V259.192C232.913 258.912 232.493 258.66 232.045 258.506L232.171 258.128C232.185 258.072 232.241 258.044 232.339 258.044C232.857 258.072 233.739 258.24 234.131 258.422C234.271 258.478 234.313 258.576 234.299 258.716L234.271 259.43V268.53C234.271 269.356 234.117 270.728 233.879 271.526ZM230.953 270.56H230.323C230.253 270 230.225 268.67 230.225 268.068V260.102C230.029 259.85 229.637 259.612 229.231 259.472L229.371 259.108C229.385 259.052 229.427 259.024 229.553 259.024C230.029 259.038 230.841 259.206 231.205 259.374C231.317 259.43 231.359 259.514 231.359 259.668L231.317 260.298V267.704C231.317 268.488 231.177 269.804 230.953 270.56ZM233.515 264.428L231.079 264.484V263.742L233.515 263.686V264.428ZM243.453 262.048C243.453 263.602 242.151 264.694 240.359 264.694C238.553 264.694 237.237 263.602 237.237 262.048C237.237 260.494 238.553 259.416 240.359 259.416C242.151 259.416 243.453 260.494 243.453 262.048ZM242.277 262.048C242.277 260.956 241.465 260.27 240.359 260.27C239.253 260.27 238.427 260.956 238.427 262.048C238.427 263.14 239.253 263.812 240.359 263.812C241.465 263.812 242.277 263.14 242.277 262.048ZM245.959 266.024V266.696C245.217 266.696 242.473 266.724 241.899 266.752C241.619 266.766 241.087 266.85 240.737 266.962C240.289 266.794 239.883 266.528 239.575 266.276C239.519 266.234 239.519 266.192 239.533 266.136L239.617 265.968C240.009 266.052 240.583 266.094 240.933 266.094C241.675 266.094 245.161 266.052 245.959 266.024ZM247.653 271.134L241.381 271.162L241.633 270.448C242.585 270.462 245.273 270.448 246.141 270.42L246.561 270.196C246.953 270.196 247.541 270.238 247.821 270.308C247.933 270.322 248.017 270.406 248.017 270.518C248.017 270.798 247.919 270.994 247.849 271.064C247.807 271.106 247.737 271.134 247.653 271.134ZM241.745 270.448L241.381 271.162C240.569 271.162 240.303 270.882 240.303 270.224V269.468H241.507V270.196C241.507 270.378 241.577 270.448 241.745 270.448ZM241.507 269.762H240.303V268.908C240.121 268.74 239.827 268.6 239.505 268.53L239.561 268.25C239.575 268.194 239.617 268.166 239.701 268.166C240.135 268.166 241.143 268.194 241.535 268.236L241.507 268.88V269.762ZM247.079 266.682L245.819 266.696L245.931 266.024L246.379 265.814C246.435 265.772 246.533 265.772 246.617 265.814C246.771 265.884 247.093 266.024 247.219 266.108C247.289 266.15 247.289 266.22 247.261 266.318L247.079 266.682ZM246.799 268.152H245.791C245.819 267.844 245.833 266.99 245.819 266.682L247.079 266.654C247.051 267.074 246.911 267.802 246.799 268.152ZM246.995 268.824L241.409 268.88V268.236C242.123 268.236 244.965 268.208 245.539 268.18L245.903 268.082C246.239 267.998 246.519 267.998 246.701 268.096L247.051 268.264C247.107 268.292 247.135 268.334 247.135 268.39C247.135 268.572 247.065 268.754 246.995 268.824ZM246.841 265.324H246.141C246.057 264.876 246.029 263.882 246.029 263.364V259.248C245.805 258.954 245.371 258.674 244.881 258.506L245.007 258.128C245.021 258.072 245.063 258.044 245.175 258.044C245.721 258.072 246.645 258.254 247.079 258.436C247.205 258.478 247.247 258.59 247.247 258.744L247.205 259.5V263.042C247.205 263.84 247.051 264.82 246.841 265.324ZM260.418 271.526H259.732C259.676 270.966 259.634 269.426 259.634 268.796V259.248C259.396 258.954 258.948 258.674 258.458 258.506L258.57 258.128C258.598 258.072 258.626 258.044 258.752 258.044C259.298 258.072 260.236 258.254 260.67 258.436C260.796 258.478 260.852 258.59 260.852 258.744L260.81 259.514V268.404C260.81 269.258 260.656 270.686 260.418 271.526ZM251.612 267.298L252.536 268.166C252.256 268.194 251.654 268.32 251.388 268.432C250.884 268.208 250.324 267.858 249.932 267.536C249.876 267.48 249.862 267.438 249.89 267.368L249.988 267.186C250.492 267.27 251.108 267.312 251.612 267.298ZM259.858 266.598L259.9 267.004C259.914 267.102 259.872 267.13 259.788 267.158C258.094 267.578 254.454 268.068 252.536 268.166L251.612 267.298C253.726 267.256 257.744 266.906 259.676 266.528C259.76 266.514 259.844 266.542 259.858 266.598ZM257.506 262.594C257.506 264.162 256.176 265.31 254.384 265.31C252.592 265.31 251.276 264.162 251.276 262.594C251.276 261.026 252.592 259.878 254.384 259.878C256.176 259.878 257.506 261.026 257.506 262.594ZM256.302 262.594C256.302 261.474 255.476 260.746 254.384 260.746C253.292 260.746 252.48 261.474 252.48 262.594C252.48 263.7 253.292 264.428 254.384 264.428C255.476 264.428 256.302 263.7 256.302 262.594ZM274.288 263.728C274.288 265.506 272.916 266.766 271.04 266.766C269.15 266.766 267.764 265.506 267.764 263.728C267.764 261.95 269.15 260.704 271.04 260.704C272.916 260.704 274.288 261.95 274.288 263.728ZM273.07 263.728C273.07 262.412 272.202 261.614 271.04 261.614C269.878 261.614 269.01 262.412 269.01 263.728C269.01 265.058 269.878 265.842 271.04 265.842C272.202 265.842 273.07 265.058 273.07 263.728ZM277.438 271.526H276.766C276.71 270.966 276.668 269.426 276.668 268.796V259.248C276.43 258.954 275.982 258.674 275.478 258.506L275.604 258.128C275.632 258.072 275.66 258.044 275.772 258.044C276.332 258.072 277.27 258.254 277.704 258.436C277.83 258.478 277.886 258.59 277.886 258.744L277.83 259.514V268.404C277.83 269.258 277.69 270.686 277.438 271.526ZM292.961 262.706L290.343 262.748V262.048L291.519 261.992L291.967 261.726C292.373 261.712 292.947 261.74 293.213 261.796C293.339 261.824 293.437 261.922 293.437 262.048C293.451 262.314 293.367 262.538 293.269 262.608C293.199 262.678 293.059 262.706 292.961 262.706ZM290.203 271.526H289.531C289.461 270.966 289.419 269.426 289.419 268.796V259.248C289.181 258.954 288.747 258.674 288.243 258.506L288.369 258.128C288.383 258.072 288.425 258.044 288.537 258.044C289.097 258.072 290.035 258.254 290.455 258.436C290.595 258.478 290.637 258.59 290.637 258.744L290.595 259.514V268.404C290.595 269.258 290.441 270.686 290.203 271.526ZM287.333 263.7C287.333 265.478 285.961 266.738 284.085 266.738C282.209 266.738 280.809 265.478 280.809 263.7C280.809 261.908 282.209 260.662 284.085 260.662C285.961 260.662 287.333 261.908 287.333 263.7ZM286.115 263.7C286.115 262.37 285.247 261.572 284.085 261.572C282.923 261.572 282.055 262.37 282.055 263.7C282.055 265.016 282.923 265.814 284.085 265.814C285.247 265.814 286.115 265.016 286.115 263.7ZM292.961 266.178L290.343 266.234V265.52L291.519 265.464L291.967 265.198C292.373 265.184 292.947 265.212 293.213 265.268C293.339 265.296 293.437 265.408 293.437 265.52C293.451 265.786 293.367 266.01 293.269 266.094C293.199 266.15 293.059 266.178 292.961 266.178ZM304.481 271.526H303.809C303.739 270.966 303.697 269.426 303.697 268.796V259.248C303.459 258.954 303.011 258.674 302.521 258.506L302.647 258.128C302.661 258.072 302.689 258.044 302.815 258.044C303.361 258.072 304.299 258.254 304.733 258.436C304.873 258.478 304.915 258.59 304.915 258.744L304.873 259.514V268.404C304.873 269.258 304.719 270.686 304.481 271.526ZM300.127 260.508V261.208C299.469 261.208 297.509 261.236 297.089 261.278C296.809 261.292 296.291 261.39 296.011 261.488C295.619 261.334 295.199 261.068 294.891 260.83C294.835 260.774 294.835 260.732 294.849 260.69L294.947 260.508C295.339 260.564 295.857 260.606 296.207 260.606C296.753 260.606 299.483 260.55 300.127 260.508ZM301.289 261.25L299.903 261.208L300.057 260.522L300.575 260.27C300.645 260.242 300.757 260.242 300.827 260.27C301.009 260.354 301.373 260.55 301.527 260.634C301.583 260.69 301.583 260.76 301.541 260.83L301.289 261.25ZM294.807 268.306L294.611 268.124C294.569 268.082 294.555 268.04 294.611 267.984C297.201 266.038 299.119 263.476 299.903 261.208L300.645 260.956L301.289 261.25C300.561 263.798 298.041 266.598 294.961 268.292C294.891 268.334 294.849 268.334 294.807 268.306ZM308.776 258.884C309.07 258.884 309.294 258.996 309.476 259.178C309.658 259.472 309.742 259.836 309.742 260.172C309.742 261.306 308.972 262.216 307.754 262.706L307.6 262.342C308.496 261.936 309 261.404 309.196 260.55L309.28 261.054L308.468 260.508C308.076 260.242 307.964 259.99 307.964 259.668C307.964 259.22 308.314 258.884 308.776 258.884Z" fill="#999999"/>
</svg>
